<?xml version="1.0" encoding="utf-8"?>
<!-- Generator: Fusion 360, Shaper Origin Export Add-In, Version 1.4.1  -->
<svg enable-background="new 0 0 37.3 7.9" height="7.9cm" shaper:fusionaddin="version:1.4.1" version="1.1" viewBox="0 0 37.3 7.9" width="37.3cm" x="0cm" xml:space="preserve" xmlns="http://www.w3.org/2000/svg" xmlns:shaper="http://www.shapertools.com/namespaces/shaper" xmlns:xlink="http://www.w3.org/1999/xlink" y="0cm"><path d="M-14.38,0.03 L-15.87,0.03 -15.87,1.52 -14.38,1.52 -14.38,0.03z" fill="none" shaper:cutDepth="0" shaper:pathType="guide" stroke="rgb(100,100,100)" stroke-width="2" transform="matrix(1,0,0,-1,30.2,3.55)" vector-effect="non-scaling-stroke" /><path d="M-19.97,1.52 L-18.48,1.52 -18.48,0.03 -19.97,0.03 -19.97,1.52z" fill="none" shaper:cutDepth="0" shaper:pathType="guide" stroke="rgb(100,100,100)" stroke-width="2" transform="matrix(1,0,0,-1,30.2,3.55)" vector-effect="non-scaling-stroke" /><path d="M-22.02,0.03 L-22.02,1.52 -20.53,1.52 -20.53,0.03 -22.02,0.03z" fill="none" shaper:cutDepth="0" shaper:pathType="guide" stroke="rgb(100,100,100)" stroke-width="2" transform="matrix(1,0,0,-1,30.2,3.55)" vector-effect="non-scaling-stroke" /><path d="M-22.58,0.03 L-24.07,0.03 -24.07,1.52 -22.58,1.52 -22.58,0.03z" fill="none" shaper:cutDepth="0" shaper:pathType="guide" stroke="rgb(100,100,100)" stroke-width="2" transform="matrix(1,0,0,-1,30.2,3.55)" vector-effect="non-scaling-stroke" /><path d="M-3.57,0.03 L-3.57,1.52 -2.08,1.52 -2.08,0.03 -3.57,0.03z" fill="none" shaper:cutDepth="0" shaper:pathType="guide" stroke="rgb(100,100,100)" stroke-width="2" transform="matrix(1,0,0,-1,30.2,3.55)" vector-effect="non-scaling-stroke" /><path d="M-17.92,0.03 L-17.92,1.52 -16.43,1.52 -16.43,0.03 -17.92,0.03z" fill="none" shaper:cutDepth="0" shaper:pathType="guide" stroke="rgb(100,100,100)" stroke-width="2" transform="matrix(1,0,0,-1,30.2,3.55)" vector-effect="non-scaling-stroke" /><path d="M-24.63,1.52 L-24.63,0.03 -26.12,0.03 -26.12,1.52 -24.63,1.52z" fill="none" shaper:cutDepth="0" shaper:pathType="guide" stroke="rgb(100,100,100)" stroke-width="2" transform="matrix(1,0,0,-1,30.2,3.55)" vector-effect="non-scaling-stroke" /><path d="M-0.03,0.03 L-1.52,0.03 -1.52,1.52 -0.03,1.52 -0.03,0.03z" fill="none" shaper:cutDepth="0" shaper:pathType="guide" stroke="rgb(100,100,100)" stroke-width="2" transform="matrix(1,0,0,-1,30.2,3.55)" vector-effect="non-scaling-stroke" /><path d="M-5.62,1.52 L-4.13,1.52 -4.13,0.03 -5.62,0.03 -5.62,1.52z" fill="none" shaper:cutDepth="0" shaper:pathType="guide" stroke="rgb(100,100,100)" stroke-width="2" transform="matrix(1,0,0,-1,30.2,3.55)" vector-effect="non-scaling-stroke" /><path d="M-7.67,0.03 L-7.67,1.52 -6.18,1.52 -6.18,0.03 -7.67,0.03z" fill="none" shaper:cutDepth="0" shaper:pathType="guide" stroke="rgb(100,100,100)" stroke-width="2" transform="matrix(1,0,0,-1,30.2,3.55)" vector-effect="non-scaling-stroke" /><path d="M-9.72,0.03 L-9.72,1.52 -8.23,1.52 -8.23,0.03 -9.72,0.03z" fill="none" shaper:cutDepth="0" shaper:pathType="guide" stroke="rgb(100,100,100)" stroke-width="2" transform="matrix(1,0,0,-1,30.2,3.55)" vector-effect="non-scaling-stroke" /><path d="M-11.77,1.52 L-10.28,1.52 -10.28,0.03 -11.77,0.03 -11.77,1.52z" fill="none" shaper:cutDepth="0" shaper:pathType="guide" stroke="rgb(100,100,100)" stroke-width="2" transform="matrix(1,0,0,-1,30.2,3.55)" vector-effect="non-scaling-stroke" /><path d="M-12.33,0.03 L-13.82,0.03 -13.82,1.52 -12.33,1.52 -12.33,0.03z" fill="none" shaper:cutDepth="0" shaper:pathType="guide" stroke="rgb(100,100,100)" stroke-width="2" transform="matrix(1,0,0,-1,30.2,3.55)" vector-effect="non-scaling-stroke" /><path d="M1.53,1.52 L3.02,1.52 3.02,0.03 1.53,0.03 1.53,1.52z" fill="none" shaper:cutDepth="0" shaper:pathType="guide" stroke="rgb(100,100,100)" stroke-width="2" transform="matrix(1,0,0,-1,30.2,3.55)" vector-effect="non-scaling-stroke" /><path d="M5.07,1.52 L5.07,0.03 3.58,0.03 3.58,1.52 5.07,1.52z" fill="none" shaper:cutDepth="0" shaper:pathType="guide" stroke="rgb(100,100,100)" stroke-width="2" transform="matrix(1,0,0,-1,30.2,3.55)" vector-effect="non-scaling-stroke" /><path d="M3.58,-0.83 L5.07,-0.83 5.07,-2.32 3.58,-2.32 3.58,-0.83z" fill="none" shaper:cutDepth="0" shaper:pathType="guide" stroke="rgb(100,100,100)" stroke-width="2" transform="matrix(1,0,0,-1,30.2,3.55)" vector-effect="non-scaling-stroke" /><path d="M1.53,-0.83 L3.02,-0.83 3.02,-2.32 1.53,-2.32 1.53,-0.83z" fill="none" shaper:cutDepth="0" shaper:pathType="guide" stroke="rgb(100,100,100)" stroke-width="2" transform="matrix(1,0,0,-1,30.2,3.55)" vector-effect="non-scaling-stroke" /><path d="M-1.055,-2.32 L-2.545,-2.32 -2.545,-0.83 -1.055,-0.83 -1.055,-2.32z" fill="none" shaper:cutDepth="0" shaper:pathType="guide" stroke="rgb(100,100,100)" stroke-width="2" transform="matrix(1,0,0,-1,30.2,3.55)" vector-effect="non-scaling-stroke" /><path d="M-3.105,-0.83 L-3.105,-2.32 -4.595,-2.32 -4.595,-0.83 -3.105,-0.83z" fill="none" shaper:cutDepth="0" shaper:pathType="guide" stroke="rgb(100,100,100)" stroke-width="2" transform="matrix(1,0,0,-1,30.2,3.55)" vector-effect="non-scaling-stroke" /><path d="M-7.205,-2.32 L-8.695,-2.32 -8.695,-0.83 -7.205,-0.83 -7.205,-2.32z" fill="none" shaper:cutDepth="0" shaper:pathType="guide" stroke="rgb(100,100,100)" stroke-width="2" transform="matrix(1,0,0,-1,30.2,3.55)" vector-effect="non-scaling-stroke" /><path d="M-9.255,-2.32 L-10.745,-2.32 -10.745,-0.83 -9.255,-0.83 -9.255,-2.32z" fill="none" shaper:cutDepth="0" shaper:pathType="guide" stroke="rgb(100,100,100)" stroke-width="2" transform="matrix(1,0,0,-1,30.2,3.55)" vector-effect="non-scaling-stroke" /><path d="M-11.305,-2.32 L-12.795,-2.32 -12.795,-0.83 -11.305,-0.83 -11.305,-2.32z" fill="none" shaper:cutDepth="0" shaper:pathType="guide" stroke="rgb(100,100,100)" stroke-width="2" transform="matrix(1,0,0,-1,30.2,3.55)" vector-effect="non-scaling-stroke" /><path d="M-16.895,-0.83 L-15.405,-0.83 -15.405,-2.32 -16.895,-2.32 -16.895,-0.83z" fill="none" shaper:cutDepth="0" shaper:pathType="guide" stroke="rgb(100,100,100)" stroke-width="2" transform="matrix(1,0,0,-1,30.2,3.55)" vector-effect="non-scaling-stroke" /><path d="M-17.455,-2.32 L-18.945,-2.32 -18.945,-0.83 -17.455,-0.83 -17.455,-2.32z" fill="none" shaper:cutDepth="0" shaper:pathType="guide" stroke="rgb(100,100,100)" stroke-width="2" transform="matrix(1,0,0,-1,30.2,3.55)" vector-effect="non-scaling-stroke" /><path d="M-21.555,-2.32 L-23.045,-2.32 -23.045,-0.83 -21.555,-0.83 -21.555,-2.32z" fill="none" shaper:cutDepth="0" shaper:pathType="guide" stroke="rgb(100,100,100)" stroke-width="2" transform="matrix(1,0,0,-1,30.2,3.55)" vector-effect="non-scaling-stroke" /><path d="M-23.605,-2.32 L-25.095,-2.32 -25.095,-0.83 -23.605,-0.83 -23.605,-2.32z" fill="none" shaper:cutDepth="0" shaper:pathType="guide" stroke="rgb(100,100,100)" stroke-width="2" transform="matrix(1,0,0,-1,30.2,3.55)" vector-effect="non-scaling-stroke" /><path d="M-25.655,-2.32 L-27.145,-2.32 -27.145,-0.83 -25.655,-0.83 -25.655,-2.32z" fill="none" shaper:cutDepth="0" shaper:pathType="guide" stroke="rgb(100,100,100)" stroke-width="2" transform="matrix(1,0,0,-1,30.2,3.55)" vector-effect="non-scaling-stroke" /><path d="M-26.68,1.52 L-26.68,0.03 -28.17,0.03 -28.17,1.52 -26.68,1.52z" fill="none" shaper:cutDepth="0" shaper:pathType="guide" stroke="rgb(100,100,100)" stroke-width="2" transform="matrix(1,0,0,-1,30.2,3.55)" vector-effect="non-scaling-stroke" /><path d="M7.1,3.55 L-30.2,3.55 -30.2,-4.35 7.1,-4.35 7.1,3.55z" fill="none" shaper:cutDepth="0" shaper:pathType="guide" stroke="rgb(100,100,100)" stroke-width="2" transform="matrix(1,0,0,-1,30.2,3.55)" vector-effect="non-scaling-stroke" /></svg>