<?xml version="1.0" encoding="UTF-8" standalone="no"?>
<!-- Created with Inkscape (http://www.inkscape.org/) -->

<svg
   xmlns:shaper="http://www.shapertools.com/namespaces/shaper"
   xmlns:dc="http://purl.org/dc/elements/1.1/"
   xmlns:cc="http://creativecommons.org/ns#"
   xmlns:rdf="http://www.w3.org/1999/02/22-rdf-syntax-ns#"
   xmlns:svg="http://www.w3.org/2000/svg"
   xmlns="http://www.w3.org/2000/svg"
   xmlns:sodipodi="http://sodipodi.sourceforge.net/DTD/sodipodi-0.dtd"
   xmlns:inkscape="http://www.inkscape.org/namespaces/inkscape"
   version="1.1"
   width="1220mm"
   height="610mm"
   id="svg2"
   inkscape:version="0.92.2 (5c3e80d, 2017-08-06)"
   sodipodi:docname="Result.svg"
   viewBox="0 0 1220 610">
  <sodipodi:namedview
     pagecolor="#ffffff"
     bordercolor="#5d6666"
     borderopacity="1"
     objecttolerance="10"
     gridtolerance="10"
     guidetolerance="10"
     inkscape:pageopacity="0"
     inkscape:pageshadow="2"
     inkscape:window-width="2560"
     inkscape:window-height="1537"
     id="namedview91444"
     showgrid="false"
     inkscape:zoom="0.35353124"
     inkscape:cx="1699.1348"
     inkscape:cy="1196.0095"
     inkscape:window-x="1432"
     inkscape:window-y="757"
     inkscape:window-maximized="1"
     inkscape:current-layer="svg2"
     units="mm"
     inkscape:document-units="mm"
     inkscape:pagecheckerboard="true" />
  <defs
     id="defs4">
    <symbol
       id="*PAPER_SPACE" />
    <symbol
       id="*MODEL_SPACE" />
    <pattern
       height="8"
       width="8"
       patternUnits="userSpaceOnUse"
       y="0"
       x="0"
       id="Hatch">
      <path
         linecap="square"
         stroke="#000000"
         stroke-width="0.25"
         d="M8 4 l-4,4"
         id="path617966" />
      <path
         linecap="square"
         stroke="#000000"
         stroke-width="0.25"
         d="M6 2 l-4,4"
         id="path617968" />
      <path
         linecap="square"
         stroke="#000000"
         stroke-width="0.25"
         d="M4 0 l-4,4"
         id="path617970" />
    </pattern>
    <marker
       refX="0"
       refY="0"
       orient="auto"
       id="DistanceX"
       style="overflow:visible">
      <path
         d="M 3,-3 -3,3 M 0,-5 V 5"
         id="path617963"
         style="stroke:#000000;stroke-width:0.5"
         inkscape:connector-curvature="0" />
    </marker>
    <symbol
       id="$PAPER_SPACE" />
    <symbol
       id="$MODEL_SPACE" />
    <pattern
       id="Hatch-0"
       x="0"
       y="0"
       patternUnits="userSpaceOnUse"
       width="8"
       height="8">
      <path
         id="path73478"
         d="M8 4 l-4,4"
         stroke-width="0.25"
         stroke="#000000"
         linecap="square" />
      <path
         id="path73480"
         d="M6 2 l-4,4"
         stroke-width="0.25"
         stroke="#000000"
         linecap="square" />
      <path
         id="path73482"
         d="M4 0 l-4,4"
         stroke-width="0.25"
         stroke="#000000"
         linecap="square" />
    </pattern>
    <marker
       refX="0"
       refY="0"
       orient="auto"
       id="DistanceX-5"
       style="overflow:visible">
      <path
         d="M 3,-3 -3,3 M 0,-5 V 5"
         id="path73475"
         style="stroke:#000000;stroke-width:0.5"
         inkscape:connector-curvature="0" />
    </marker>
    <symbol
       id="$PAPER_SPACE-1" />
    <symbol
       id="$MODEL_SPACE-0" />
    <pattern
       height="8"
       width="8"
       patternUnits="userSpaceOnUse"
       y="0"
       x="0"
       id="Hatch-1">
      <path
         linecap="square"
         stroke="#000000"
         stroke-width="0.25"
         d="M8 4 l-4,4"
         id="path44235" />
      <path
         linecap="square"
         stroke="#000000"
         stroke-width="0.25"
         d="M6 2 l-4,4"
         id="path44237" />
      <path
         linecap="square"
         stroke="#000000"
         stroke-width="0.25"
         d="M4 0 l-4,4"
         id="path44239" />
    </pattern>
    <marker
       refX="0"
       refY="0"
       orient="auto"
       id="DistanceX-1"
       style="overflow:visible">
      <path
         d="M 3,-3 -3,3 M 0,-5 V 5"
         id="path44232"
         style="stroke:#000000;stroke-width:0.5"
         inkscape:connector-curvature="0" />
    </marker>
    <symbol
       id="$PAPER_SPACE-5" />
    <symbol
       id="$MODEL_SPACE-4" />
    <pattern
       id="Hatch-04"
       x="0"
       y="0"
       patternUnits="userSpaceOnUse"
       width="8"
       height="8">
      <path
         id="path101669"
         d="M8 4 l-4,4"
         stroke-width="0.25"
         stroke="#000000"
         linecap="square" />
      <path
         id="path101671"
         d="M6 2 l-4,4"
         stroke-width="0.25"
         stroke="#000000"
         linecap="square" />
      <path
         id="path101673"
         d="M4 0 l-4,4"
         stroke-width="0.25"
         stroke="#000000"
         linecap="square" />
    </pattern>
    <marker
       orient="auto"
       id="DistanceX-2"
       style="overflow:visible"
       refX="0"
       refY="0">
      <path
         id="path101666"
         d="M 3,-3 -3,3 M 0,-5 V 5"
         style="stroke:#000000;stroke-width:0.5"
         inkscape:connector-curvature="0" />
    </marker>
    <symbol
       id="*PAPER_SPACE-9" />
    <symbol
       id="*MODEL_SPACE-2" />
    <pattern
       id="Hatch-9"
       x="0"
       y="0"
       patternUnits="userSpaceOnUse"
       width="8"
       height="8">
      <path
         id="path145873"
         d="M8 4 l-4,4"
         stroke-width="0.25"
         stroke="#000000"
         linecap="square" />
      <path
         id="path145875"
         d="M6 2 l-4,4"
         stroke-width="0.25"
         stroke="#000000"
         linecap="square" />
      <path
         id="path145877"
         d="M4 0 l-4,4"
         stroke-width="0.25"
         stroke="#000000"
         linecap="square" />
    </pattern>
    <marker
       orient="auto"
       id="DistanceX-24"
       style="overflow:visible"
       refX="0"
       refY="0">
      <path
         id="path145870"
         d="M 3,-3 -3,3 M 0,-5 V 5"
         style="stroke:#000000;stroke-width:0.5"
         inkscape:connector-curvature="0" />
    </marker>
    <symbol
       id="$PAPER_SPACE-4" />
    <symbol
       id="$MODEL_SPACE-1" />
    <pattern
       id="Hatch-8"
       x="0"
       y="0"
       patternUnits="userSpaceOnUse"
       width="8"
       height="8">
      <path
         id="path1947"
         d="M8 4 l-4,4"
         stroke-width="0.25"
         stroke="#000000"
         linecap="square" />
      <path
         id="path1949"
         d="M6 2 l-4,4"
         stroke-width="0.25"
         stroke="#000000"
         linecap="square" />
      <path
         id="path1951"
         d="M4 0 l-4,4"
         stroke-width="0.25"
         stroke="#000000"
         linecap="square" />
    </pattern>
    <marker
       orient="auto"
       id="DistanceX-55"
       style="overflow:visible"
       refX="0"
       refY="0">
      <path
         id="path1944"
         d="M 3,-3 -3,3 M 0,-5 V 5"
         style="stroke:#000000;stroke-width:0.5"
         inkscape:connector-curvature="0" />
    </marker>
    <symbol
       id="*PAPER_SPACE-7" />
    <symbol
       id="*MODEL_SPACE-0" />
    <pattern
       id="Hatch-82"
       x="0"
       y="0"
       patternUnits="userSpaceOnUse"
       width="8"
       height="8">
      <path
         id="path1175"
         d="M8 4 l-4,4"
         stroke-width="0.25"
         stroke="#000000"
         linecap="square" />
      <path
         id="path1177"
         d="M6 2 l-4,4"
         stroke-width="0.25"
         stroke="#000000"
         linecap="square" />
      <path
         id="path1179"
         d="M4 0 l-4,4"
         stroke-width="0.25"
         stroke="#000000"
         linecap="square" />
    </pattern>
    <marker
       orient="auto"
       id="DistanceX-29"
       style="overflow:visible"
       refX="0"
       refY="0">
      <path
         id="path1172"
         d="M 3,-3 -3,3 M 0,-5 V 5"
         style="stroke:#000000;stroke-width:0.5"
         inkscape:connector-curvature="0" />
    </marker>
    <symbol
       id="*PAPER_SPACE-76" />
    <symbol
       id="*MODEL_SPACE-5" />
    <pattern
       id="Hatch-3"
       x="0"
       y="0"
       patternUnits="userSpaceOnUse"
       width="8"
       height="8">
      <path
         id="path1809-9"
         d="M8 4 l-4,4"
         stroke-width="0.25"
         stroke="#000000"
         linecap="square" />
      <path
         id="path1811-8"
         d="M6 2 l-4,4"
         stroke-width="0.25"
         stroke="#000000"
         linecap="square" />
      <path
         id="path1813-6"
         d="M4 0 l-4,4"
         stroke-width="0.25"
         stroke="#000000"
         linecap="square" />
    </pattern>
    <marker
       orient="auto"
       id="DistanceX-0"
       style="overflow:visible"
       refX="0"
       refY="0">
      <path
         id="path1806"
         d="M 3,-3 -3,3 M 0,-5 V 5"
         style="stroke:#000000;stroke-width:0.5"
         inkscape:connector-curvature="0" />
    </marker>
    <symbol
       id="*PAPER_SPACE-6" />
    <symbol
       id="*MODEL_SPACE-7" />
    <pattern
       id="Hatch-5"
       x="0"
       y="0"
       patternUnits="userSpaceOnUse"
       width="8"
       height="8">
      <path
         id="path1851"
         d="M8 4 l-4,4"
         stroke-width="0.25"
         stroke="#000000"
         linecap="square" />
      <path
         id="path1853"
         d="M6 2 l-4,4"
         stroke-width="0.25"
         stroke="#000000"
         linecap="square" />
      <path
         id="path1855"
         d="M4 0 l-4,4"
         stroke-width="0.25"
         stroke="#000000"
         linecap="square" />
    </pattern>
    <marker
       orient="auto"
       id="DistanceX-6"
       style="overflow:visible"
       refX="0"
       refY="0">
      <path
         id="path1848"
         d="M 3,-3 -3,3 M 0,-5 V 5"
         style="stroke:#000000;stroke-width:0.5"
         inkscape:connector-curvature="0" />
    </marker>
    <symbol
       id="*PAPER_SPACE-0" />
    <symbol
       id="*MODEL_SPACE-27" />
    <pattern
       id="Hatch-6"
       x="0"
       y="0"
       patternUnits="userSpaceOnUse"
       width="8"
       height="8">
      <path
         id="path1858"
         d="M8 4 l-4,4"
         stroke-width="0.25"
         stroke="#000000"
         linecap="square" />
      <path
         id="path1860"
         d="M6 2 l-4,4"
         stroke-width="0.25"
         stroke="#000000"
         linecap="square" />
      <path
         id="path1862"
         d="M4 0 l-4,4"
         stroke-width="0.25"
         stroke="#000000"
         linecap="square" />
    </pattern>
    <marker
       orient="auto"
       id="DistanceX-65"
       style="overflow:visible"
       refX="0"
       refY="0">
      <path
         id="path1855-7"
         d="M 3,-3 -3,3 M 0,-5 V 5"
         style="stroke:#000000;stroke-width:0.5"
         inkscape:connector-curvature="0" />
    </marker>
  </defs>
  <metadata
     id="metadata7">
    <rdf:RDF>
      <cc:Work
         rdf:about="">
        <dc:format>image/svg+xml</dc:format>
        <dc:type
           rdf:resource="http://purl.org/dc/dcmitype/StillImage" />
        <dc:title></dc:title>
      </cc:Work>
    </rdf:RDF>
  </metadata>
  <g
     inkscape:label="0"
     id="g145881"
     transform="translate(3.0705811,156.18135)"
     style="fill:none;stroke:#ff0000;stroke-opacity:1;stroke-width:0.10000001;stroke-miterlimit:4;stroke-dasharray:none" />
  <g
     inkscape:label="0"
     id="g101677"
     transform="translate(1.2170305,155.38115)"
     style="fill:none;stroke:#ff0000;stroke-opacity:1;stroke-width:0.10000001;stroke-miterlimit:4;stroke-dasharray:none" />
  <g
     transform="translate(-1.147247,152.76995)"
     id="g73486"
     style="stroke:#ff0000;stroke-opacity:1;fill:none;stroke-width:0.10000001;stroke-miterlimit:4;stroke-dasharray:none" />
  <g
     transform="translate(2.7720772,156.87255)"
     id="g44243"
     style="fill:none;stroke:#ff0000;stroke-opacity:1;stroke-width:0.10000001;stroke-miterlimit:4;stroke-dasharray:none" />
  <g
     id="g2616"
     transform="matrix(10,0,0,10,145.79031,135.6787)"
     style="fill:none;stroke:#ff0000;stroke-opacity:1;stroke-width:0.01;stroke-miterlimit:4;stroke-dasharray:none">
    <path
       id="path2521"
       transform="matrix(1,0,0,-1,30.2,3.55)"
       shaper:pathType="guide"
       shaper:cutDepth="0"
       d="m -14.38,0.03 h -1.49 v 1.49 h 1.49 z"
       inkscape:connector-curvature="0"
       style="vector-effect:non-scaling-stroke;fill:none;stroke:#ff0000;stroke-width:0.01;stroke-opacity:1;stroke-miterlimit:4;stroke-dasharray:none" />
    <path
       id="path2523"
       transform="matrix(1,0,0,-1,30.2,3.55)"
       shaper:pathType="guide"
       shaper:cutDepth="0"
       d="m -19.97,1.52 h 1.49 V 0.03 h -1.49 z"
       inkscape:connector-curvature="0"
       style="vector-effect:non-scaling-stroke;fill:none;stroke:#ff0000;stroke-width:0.01;stroke-opacity:1;stroke-miterlimit:4;stroke-dasharray:none" />
    <path
       id="path2525"
       transform="matrix(1,0,0,-1,30.2,3.55)"
       shaper:pathType="guide"
       shaper:cutDepth="0"
       d="m -22.02,0.03 v 1.49 h 1.49 V 0.03 Z"
       inkscape:connector-curvature="0"
       style="vector-effect:non-scaling-stroke;fill:none;stroke:#ff0000;stroke-width:0.01;stroke-opacity:1;stroke-miterlimit:4;stroke-dasharray:none" />
    <path
       id="path2527"
       transform="matrix(1,0,0,-1,30.2,3.55)"
       shaper:pathType="guide"
       shaper:cutDepth="0"
       d="m -22.58,0.03 h -1.49 v 1.49 h 1.49 z"
       inkscape:connector-curvature="0"
       style="vector-effect:non-scaling-stroke;fill:none;stroke:#ff0000;stroke-width:0.01;stroke-opacity:1;stroke-miterlimit:4;stroke-dasharray:none" />
    <path
       id="path2529"
       transform="matrix(1,0,0,-1,30.2,3.55)"
       shaper:pathType="guide"
       shaper:cutDepth="0"
       d="m -3.57,0.03 v 1.49 h 1.49 V 0.03 Z"
       inkscape:connector-curvature="0"
       style="vector-effect:non-scaling-stroke;fill:none;stroke:#ff0000;stroke-width:0.01;stroke-opacity:1;stroke-miterlimit:4;stroke-dasharray:none" />
    <path
       id="path2531"
       transform="matrix(1,0,0,-1,30.2,3.55)"
       shaper:pathType="guide"
       shaper:cutDepth="0"
       d="m -17.92,0.03 v 1.49 h 1.49 V 0.03 Z"
       inkscape:connector-curvature="0"
       style="vector-effect:non-scaling-stroke;fill:none;stroke:#ff0000;stroke-width:0.01;stroke-opacity:1;stroke-miterlimit:4;stroke-dasharray:none" />
    <path
       id="path2533"
       transform="matrix(1,0,0,-1,30.2,3.55)"
       shaper:pathType="guide"
       shaper:cutDepth="0"
       d="M -24.63,1.52 V 0.03 h -1.49 v 1.49 z"
       inkscape:connector-curvature="0"
       style="vector-effect:non-scaling-stroke;fill:none;stroke:#ff0000;stroke-width:0.01;stroke-opacity:1;stroke-miterlimit:4;stroke-dasharray:none" />
    <path
       id="path2535"
       transform="matrix(1,0,0,-1,30.2,3.55)"
       shaper:pathType="guide"
       shaper:cutDepth="0"
       d="m -0.03,0.03 h -1.49 v 1.49 h 1.49 z"
       inkscape:connector-curvature="0"
       style="vector-effect:non-scaling-stroke;fill:none;stroke:#ff0000;stroke-width:0.01;stroke-opacity:1;stroke-miterlimit:4;stroke-dasharray:none" />
    <path
       id="path2537"
       transform="matrix(1,0,0,-1,30.2,3.55)"
       shaper:pathType="guide"
       shaper:cutDepth="0"
       d="m -5.62,1.52 h 1.49 V 0.03 h -1.49 z"
       inkscape:connector-curvature="0"
       style="vector-effect:non-scaling-stroke;fill:none;stroke:#ff0000;stroke-width:0.01;stroke-opacity:1;stroke-miterlimit:4;stroke-dasharray:none" />
    <path
       id="path2539"
       transform="matrix(1,0,0,-1,30.2,3.55)"
       shaper:pathType="guide"
       shaper:cutDepth="0"
       d="m -7.67,0.03 v 1.49 h 1.49 V 0.03 Z"
       inkscape:connector-curvature="0"
       style="vector-effect:non-scaling-stroke;fill:none;stroke:#ff0000;stroke-width:0.01;stroke-opacity:1;stroke-miterlimit:4;stroke-dasharray:none" />
    <path
       id="path2541"
       transform="matrix(1,0,0,-1,30.2,3.55)"
       shaper:pathType="guide"
       shaper:cutDepth="0"
       d="m -9.72,0.03 v 1.49 h 1.49 V 0.03 Z"
       inkscape:connector-curvature="0"
       style="vector-effect:non-scaling-stroke;fill:none;stroke:#ff0000;stroke-width:0.01;stroke-opacity:1;stroke-miterlimit:4;stroke-dasharray:none" />
    <path
       id="path2543"
       transform="matrix(1,0,0,-1,30.2,3.55)"
       shaper:pathType="guide"
       shaper:cutDepth="0"
       d="m -11.77,1.52 h 1.49 V 0.03 h -1.49 z"
       inkscape:connector-curvature="0"
       style="vector-effect:non-scaling-stroke;fill:none;stroke:#ff0000;stroke-width:0.01;stroke-opacity:1;stroke-miterlimit:4;stroke-dasharray:none" />
    <path
       id="path2545"
       transform="matrix(1,0,0,-1,30.2,3.55)"
       shaper:pathType="guide"
       shaper:cutDepth="0"
       d="m -12.33,0.03 h -1.49 v 1.49 h 1.49 z"
       inkscape:connector-curvature="0"
       style="vector-effect:non-scaling-stroke;fill:none;stroke:#ff0000;stroke-width:0.01;stroke-opacity:1;stroke-miterlimit:4;stroke-dasharray:none" />
    <path
       id="path2547"
       transform="matrix(1,0,0,-1,30.2,3.55)"
       shaper:pathType="guide"
       shaper:cutDepth="0"
       d="M 1.53,1.52 H 3.02 V 0.03 H 1.53 Z"
       inkscape:connector-curvature="0"
       style="vector-effect:non-scaling-stroke;fill:none;stroke:#ff0000;stroke-width:0.01;stroke-opacity:1;stroke-miterlimit:4;stroke-dasharray:none" />
    <path
       id="path2549"
       transform="matrix(1,0,0,-1,30.2,3.55)"
       shaper:pathType="guide"
       shaper:cutDepth="0"
       d="M 5.07,1.52 V 0.03 H 3.58 v 1.49 z"
       inkscape:connector-curvature="0"
       style="vector-effect:non-scaling-stroke;fill:none;stroke:#ff0000;stroke-width:0.01;stroke-opacity:1;stroke-miterlimit:4;stroke-dasharray:none" />
    <path
       id="path2551"
       transform="matrix(1,0,0,-1,30.2,3.55)"
       shaper:pathType="guide"
       shaper:cutDepth="0"
       d="M 3.58,-0.83 H 5.07 V -2.32 H 3.58 Z"
       inkscape:connector-curvature="0"
       style="vector-effect:non-scaling-stroke;fill:none;stroke:#ff0000;stroke-width:0.01;stroke-opacity:1;stroke-miterlimit:4;stroke-dasharray:none" />
    <path
       id="path2553"
       transform="matrix(1,0,0,-1,30.2,3.55)"
       shaper:pathType="guide"
       shaper:cutDepth="0"
       d="M 1.53,-0.83 H 3.02 V -2.32 H 1.53 Z"
       inkscape:connector-curvature="0"
       style="vector-effect:non-scaling-stroke;fill:none;stroke:#ff0000;stroke-width:0.01;stroke-opacity:1;stroke-miterlimit:4;stroke-dasharray:none" />
    <path
       id="path2555"
       transform="matrix(1,0,0,-1,30.2,3.55)"
       shaper:pathType="guide"
       shaper:cutDepth="0"
       d="m -1.055,-2.32 h -1.49 v 1.49 h 1.49 z"
       inkscape:connector-curvature="0"
       style="vector-effect:non-scaling-stroke;fill:none;stroke:#ff0000;stroke-width:0.01;stroke-opacity:1;stroke-miterlimit:4;stroke-dasharray:none" />
    <path
       id="path2557"
       transform="matrix(1,0,0,-1,30.2,3.55)"
       shaper:pathType="guide"
       shaper:cutDepth="0"
       d="m -3.105,-0.83 v -1.49 h -1.49 v 1.49 z"
       inkscape:connector-curvature="0"
       style="vector-effect:non-scaling-stroke;fill:none;stroke:#ff0000;stroke-width:0.01;stroke-opacity:1;stroke-miterlimit:4;stroke-dasharray:none" />
    <path
       id="path2559"
       transform="matrix(1,0,0,-1,30.2,3.55)"
       shaper:pathType="guide"
       shaper:cutDepth="0"
       d="m -7.205,-2.32 h -1.49 v 1.49 h 1.49 z"
       inkscape:connector-curvature="0"
       style="vector-effect:non-scaling-stroke;fill:none;stroke:#ff0000;stroke-width:0.01;stroke-opacity:1;stroke-miterlimit:4;stroke-dasharray:none" />
    <path
       id="path2561"
       transform="matrix(1,0,0,-1,30.2,3.55)"
       shaper:pathType="guide"
       shaper:cutDepth="0"
       d="m -9.255,-2.32 h -1.49 v 1.49 h 1.49 z"
       inkscape:connector-curvature="0"
       style="vector-effect:non-scaling-stroke;fill:none;stroke:#ff0000;stroke-width:0.01;stroke-opacity:1;stroke-miterlimit:4;stroke-dasharray:none" />
    <path
       id="path2563"
       transform="matrix(1,0,0,-1,30.2,3.55)"
       shaper:pathType="guide"
       shaper:cutDepth="0"
       d="m -11.305,-2.32 h -1.49 v 1.49 h 1.49 z"
       inkscape:connector-curvature="0"
       style="vector-effect:non-scaling-stroke;fill:none;stroke:#ff0000;stroke-width:0.01;stroke-opacity:1;stroke-miterlimit:4;stroke-dasharray:none" />
    <path
       id="path2565"
       transform="matrix(1,0,0,-1,30.2,3.55)"
       shaper:pathType="guide"
       shaper:cutDepth="0"
       d="m -16.895,-0.83 h 1.49 v -1.49 h -1.49 z"
       inkscape:connector-curvature="0"
       style="vector-effect:non-scaling-stroke;fill:none;stroke:#ff0000;stroke-width:0.01;stroke-opacity:1;stroke-miterlimit:4;stroke-dasharray:none" />
    <path
       id="path2567"
       transform="matrix(1,0,0,-1,30.2,3.55)"
       shaper:pathType="guide"
       shaper:cutDepth="0"
       d="m -17.455,-2.32 h -1.49 v 1.49 h 1.49 z"
       inkscape:connector-curvature="0"
       style="vector-effect:non-scaling-stroke;fill:none;stroke:#ff0000;stroke-width:0.01;stroke-opacity:1;stroke-miterlimit:4;stroke-dasharray:none" />
    <path
       id="path2569"
       transform="matrix(1,0,0,-1,30.2,3.55)"
       shaper:pathType="guide"
       shaper:cutDepth="0"
       d="m -21.555,-2.32 h -1.49 v 1.49 h 1.49 z"
       inkscape:connector-curvature="0"
       style="vector-effect:non-scaling-stroke;fill:none;stroke:#ff0000;stroke-width:0.01;stroke-opacity:1;stroke-miterlimit:4;stroke-dasharray:none" />
    <path
       id="path2571"
       transform="matrix(1,0,0,-1,30.2,3.55)"
       shaper:pathType="guide"
       shaper:cutDepth="0"
       d="m -23.605,-2.32 h -1.49 v 1.49 h 1.49 z"
       inkscape:connector-curvature="0"
       style="vector-effect:non-scaling-stroke;fill:none;stroke:#ff0000;stroke-width:0.01;stroke-opacity:1;stroke-miterlimit:4;stroke-dasharray:none" />
    <path
       id="path2573"
       transform="matrix(1,0,0,-1,30.2,3.55)"
       shaper:pathType="guide"
       shaper:cutDepth="0"
       d="m -25.655,-2.32 h -1.49 v 1.49 h 1.49 z"
       inkscape:connector-curvature="0"
       style="vector-effect:non-scaling-stroke;fill:none;stroke:#ff0000;stroke-width:0.01;stroke-opacity:1;stroke-miterlimit:4;stroke-dasharray:none" />
    <path
       id="path2575"
       transform="matrix(1,0,0,-1,30.2,3.55)"
       shaper:pathType="guide"
       shaper:cutDepth="0"
       d="M -26.68,1.52 V 0.03 h -1.49 v 1.49 z"
       inkscape:connector-curvature="0"
       style="vector-effect:non-scaling-stroke;fill:none;stroke:#ff0000;stroke-width:0.01;stroke-opacity:1;stroke-miterlimit:4;stroke-dasharray:none" />
    <path
       id="path2577"
       transform="matrix(1,0,0,-1,30.2,3.55)"
       shaper:pathType="guide"
       shaper:cutDepth="0"
       d="m 7.1,3.55 h -37.3 v -7.9 H 7.1 Z"
       inkscape:connector-curvature="0"
       style="vector-effect:non-scaling-stroke;fill:none;stroke:#ff0000;stroke-width:0.01;stroke-opacity:1;stroke-miterlimit:4;stroke-dasharray:none" />
  </g>
  <g
     id="g2779"
     transform="matrix(10,0,0,10,145.79031,222.49328)"
     style="fill:none;stroke:#ff0000;stroke-opacity:1;stroke-width:0.01;stroke-miterlimit:4;stroke-dasharray:none">
    <path
       id="path2684"
       transform="matrix(1,0,0,-1,30.2,3.55)"
       shaper:pathType="guide"
       shaper:cutDepth="0"
       d="M 0.03,-0.03 H -1.58 V 1.58 H 0.03 Z"
       inkscape:connector-curvature="0"
       style="vector-effect:non-scaling-stroke;fill:none;stroke:#ff0000;stroke-width:0.01;stroke-opacity:1;stroke-miterlimit:4;stroke-dasharray:none" />
    <path
       id="path2686"
       transform="matrix(1,0,0,-1,30.2,3.55)"
       shaper:pathType="guide"
       shaper:cutDepth="0"
       d="m -26.18,-0.03 v 1.61 h 1.61 v -1.61 z"
       inkscape:connector-curvature="0"
       style="vector-effect:non-scaling-stroke;fill:none;stroke:#ff0000;stroke-width:0.01;stroke-opacity:1;stroke-miterlimit:4;stroke-dasharray:none" />
    <path
       id="path2688"
       transform="matrix(1,0,0,-1,30.2,3.55)"
       shaper:pathType="guide"
       shaper:cutDepth="0"
       d="m -24.13,1.58 h 1.61 v -1.61 h -1.61 z"
       inkscape:connector-curvature="0"
       style="vector-effect:non-scaling-stroke;fill:none;stroke:#ff0000;stroke-width:0.01;stroke-opacity:1;stroke-miterlimit:4;stroke-dasharray:none" />
    <path
       id="path2690"
       transform="matrix(1,0,0,-1,30.2,3.55)"
       shaper:pathType="guide"
       shaper:cutDepth="0"
       d="m -20.47,1.58 v -1.61 h -1.61 v 1.61 z"
       inkscape:connector-curvature="0"
       style="vector-effect:non-scaling-stroke;fill:none;stroke:#ff0000;stroke-width:0.01;stroke-opacity:1;stroke-miterlimit:4;stroke-dasharray:none" />
    <path
       id="path2692"
       transform="matrix(1,0,0,-1,30.2,3.55)"
       shaper:pathType="guide"
       shaper:cutDepth="0"
       d="m -15.93,-0.03 v 1.61 h 1.61 v -1.61 z"
       inkscape:connector-curvature="0"
       style="vector-effect:non-scaling-stroke;fill:none;stroke:#ff0000;stroke-width:0.01;stroke-opacity:1;stroke-miterlimit:4;stroke-dasharray:none" />
    <path
       id="path2694"
       transform="matrix(1,0,0,-1,30.2,3.55)"
       shaper:pathType="guide"
       shaper:cutDepth="0"
       d="m -18.42,1.58 v -1.61 h -1.61 v 1.61 z"
       inkscape:connector-curvature="0"
       style="vector-effect:non-scaling-stroke;fill:none;stroke:#ff0000;stroke-width:0.01;stroke-opacity:1;stroke-miterlimit:4;stroke-dasharray:none" />
    <path
       id="path2696"
       transform="matrix(1,0,0,-1,30.2,3.55)"
       shaper:pathType="guide"
       shaper:cutDepth="0"
       d="m -3.63,-0.03 v 1.61 h 1.61 v -1.61 z"
       inkscape:connector-curvature="0"
       style="vector-effect:non-scaling-stroke;fill:none;stroke:#ff0000;stroke-width:0.01;stroke-opacity:1;stroke-miterlimit:4;stroke-dasharray:none" />
    <path
       id="path2698"
       transform="matrix(1,0,0,-1,30.2,3.55)"
       shaper:pathType="guide"
       shaper:cutDepth="0"
       d="m -5.68,1.58 h 1.61 v -1.61 h -1.61 z"
       inkscape:connector-curvature="0"
       style="vector-effect:non-scaling-stroke;fill:none;stroke:#ff0000;stroke-width:0.01;stroke-opacity:1;stroke-miterlimit:4;stroke-dasharray:none" />
    <path
       id="path2700"
       transform="matrix(1,0,0,-1,30.2,3.55)"
       shaper:pathType="guide"
       shaper:cutDepth="0"
       d="m -7.73,-0.03 v 1.61 h 1.61 v -1.61 z"
       inkscape:connector-curvature="0"
       style="vector-effect:non-scaling-stroke;fill:none;stroke:#ff0000;stroke-width:0.01;stroke-opacity:1;stroke-miterlimit:4;stroke-dasharray:none" />
    <path
       id="path2702"
       transform="matrix(1,0,0,-1,30.2,3.55)"
       shaper:pathType="guide"
       shaper:cutDepth="0"
       d="m -17.98,1.58 h 1.61 v -1.61 h -1.61 z"
       inkscape:connector-curvature="0"
       style="vector-effect:non-scaling-stroke;fill:none;stroke:#ff0000;stroke-width:0.01;stroke-opacity:1;stroke-miterlimit:4;stroke-dasharray:none" />
    <path
       id="path2704"
       transform="matrix(1,0,0,-1,30.2,3.55)"
       shaper:pathType="guide"
       shaper:cutDepth="0"
       d="m -11.83,1.58 h 1.61 v -1.61 h -1.61 z"
       inkscape:connector-curvature="0"
       style="vector-effect:non-scaling-stroke;fill:none;stroke:#ff0000;stroke-width:0.01;stroke-opacity:1;stroke-miterlimit:4;stroke-dasharray:none" />
    <path
       id="path2706"
       transform="matrix(1,0,0,-1,30.2,3.55)"
       shaper:pathType="guide"
       shaper:cutDepth="0"
       d="m -9.78,1.58 h 1.61 v -1.61 h -1.61 z"
       inkscape:connector-curvature="0"
       style="vector-effect:non-scaling-stroke;fill:none;stroke:#ff0000;stroke-width:0.01;stroke-opacity:1;stroke-miterlimit:4;stroke-dasharray:none" />
    <path
       id="path2708"
       transform="matrix(1,0,0,-1,30.2,3.55)"
       shaper:pathType="guide"
       shaper:cutDepth="0"
       d="m -7.145,-0.77 v -1.61 h -1.61 v 1.61 z"
       inkscape:connector-curvature="0"
       style="vector-effect:non-scaling-stroke;fill:none;stroke:#ff0000;stroke-width:0.01;stroke-opacity:1;stroke-miterlimit:4;stroke-dasharray:none" />
    <path
       id="path2710"
       transform="matrix(1,0,0,-1,30.2,3.55)"
       shaper:pathType="guide"
       shaper:cutDepth="0"
       d="M 5.13,1.58 V -0.03 H 3.52 v 1.61 z"
       inkscape:connector-curvature="0"
       style="vector-effect:non-scaling-stroke;fill:none;stroke:#ff0000;stroke-width:0.01;stroke-opacity:1;stroke-miterlimit:4;stroke-dasharray:none" />
    <path
       id="path2712"
       transform="matrix(1,0,0,-1,30.2,3.55)"
       shaper:pathType="guide"
       shaper:cutDepth="0"
       d="m -21.495,-0.77 v -1.61 h -1.61 v 1.61 z"
       inkscape:connector-curvature="0"
       style="vector-effect:non-scaling-stroke;fill:none;stroke:#ff0000;stroke-width:0.01;stroke-opacity:1;stroke-miterlimit:4;stroke-dasharray:none" />
    <path
       id="path2714"
       transform="matrix(1,0,0,-1,30.2,3.55)"
       shaper:pathType="guide"
       shaper:cutDepth="0"
       d="m -12.855,-0.77 h 1.61 v -1.61 h -1.61 z"
       inkscape:connector-curvature="0"
       style="vector-effect:non-scaling-stroke;fill:none;stroke:#ff0000;stroke-width:0.01;stroke-opacity:1;stroke-miterlimit:4;stroke-dasharray:none" />
    <path
       id="path2716"
       transform="matrix(1,0,0,-1,30.2,3.55)"
       shaper:pathType="guide"
       shaper:cutDepth="0"
       d="m -12.27,-0.03 h -1.61 v 1.61 h 1.61 z"
       inkscape:connector-curvature="0"
       style="vector-effect:non-scaling-stroke;fill:none;stroke:#ff0000;stroke-width:0.01;stroke-opacity:1;stroke-miterlimit:4;stroke-dasharray:none" />
    <path
       id="path2718"
       transform="matrix(1,0,0,-1,30.2,3.55)"
       shaper:pathType="guide"
       shaper:cutDepth="0"
       d="m -3.045,-0.77 v -1.61 h -1.61 v 1.61 z"
       inkscape:connector-curvature="0"
       style="vector-effect:non-scaling-stroke;fill:none;stroke:#ff0000;stroke-width:0.01;stroke-opacity:1;stroke-miterlimit:4;stroke-dasharray:none" />
    <path
       id="path2720"
       transform="matrix(1,0,0,-1,30.2,3.55)"
       shaper:pathType="guide"
       shaper:cutDepth="0"
       d="M 5.13,-0.77 V -2.38 H 3.52 v 1.61 z"
       inkscape:connector-curvature="0"
       style="vector-effect:non-scaling-stroke;fill:none;stroke:#ff0000;stroke-width:0.01;stroke-opacity:1;stroke-miterlimit:4;stroke-dasharray:none" />
    <path
       id="path2722"
       transform="matrix(1,0,0,-1,30.2,3.55)"
       shaper:pathType="guide"
       shaper:cutDepth="0"
       d="M 1.47,1.58 H 3.08 V -0.03 H 1.47 Z"
       inkscape:connector-curvature="0"
       style="vector-effect:non-scaling-stroke;fill:none;stroke:#ff0000;stroke-width:0.01;stroke-opacity:1;stroke-miterlimit:4;stroke-dasharray:none" />
    <path
       id="path2724"
       transform="matrix(1,0,0,-1,30.2,3.55)"
       shaper:pathType="guide"
       shaper:cutDepth="0"
       d="m -16.955,-2.38 v 1.61 h 1.61 v -1.61 z"
       inkscape:connector-curvature="0"
       style="vector-effect:non-scaling-stroke;fill:none;stroke:#ff0000;stroke-width:0.01;stroke-opacity:1;stroke-miterlimit:4;stroke-dasharray:none" />
    <path
       id="path2726"
       transform="matrix(1,0,0,-1,30.2,3.55)"
       shaper:pathType="guide"
       shaper:cutDepth="0"
       d="m -23.545,-2.38 h -1.61 v 1.61 h 1.61 z"
       inkscape:connector-curvature="0"
       style="vector-effect:non-scaling-stroke;fill:none;stroke:#ff0000;stroke-width:0.01;stroke-opacity:1;stroke-miterlimit:4;stroke-dasharray:none" />
    <path
       id="path2728"
       transform="matrix(1,0,0,-1,30.2,3.55)"
       shaper:pathType="guide"
       shaper:cutDepth="0"
       d="M 1.47,-0.77 H 3.08 V -2.38 H 1.47 Z"
       inkscape:connector-curvature="0"
       style="vector-effect:non-scaling-stroke;fill:none;stroke:#ff0000;stroke-width:0.01;stroke-opacity:1;stroke-miterlimit:4;stroke-dasharray:none" />
    <path
       id="path2730"
       transform="matrix(1,0,0,-1,30.2,3.55)"
       shaper:pathType="guide"
       shaper:cutDepth="0"
       d="m -25.595,-2.38 h -1.61 v 1.61 h 1.61 z"
       inkscape:connector-curvature="0"
       style="vector-effect:non-scaling-stroke;fill:none;stroke:#ff0000;stroke-width:0.01;stroke-opacity:1;stroke-miterlimit:4;stroke-dasharray:none" />
    <path
       id="path2732"
       transform="matrix(1,0,0,-1,30.2,3.55)"
       shaper:pathType="guide"
       shaper:cutDepth="0"
       d="m -0.995,-2.38 h -1.61 v 1.61 h 1.61 z"
       inkscape:connector-curvature="0"
       style="vector-effect:non-scaling-stroke;fill:none;stroke:#ff0000;stroke-width:0.01;stroke-opacity:1;stroke-miterlimit:4;stroke-dasharray:none" />
    <path
       id="path2734"
       transform="matrix(1,0,0,-1,30.2,3.55)"
       shaper:pathType="guide"
       shaper:cutDepth="0"
       d="m -17.395,-2.38 h -1.61 v 1.61 h 1.61 z"
       inkscape:connector-curvature="0"
       style="vector-effect:non-scaling-stroke;fill:none;stroke:#ff0000;stroke-width:0.01;stroke-opacity:1;stroke-miterlimit:4;stroke-dasharray:none" />
    <path
       id="path2736"
       transform="matrix(1,0,0,-1,30.2,3.55)"
       shaper:pathType="guide"
       shaper:cutDepth="0"
       d="m -9.195,-2.38 h -1.61 v 1.61 h 1.61 z"
       inkscape:connector-curvature="0"
       style="vector-effect:non-scaling-stroke;fill:none;stroke:#ff0000;stroke-width:0.01;stroke-opacity:1;stroke-miterlimit:4;stroke-dasharray:none" />
    <path
       id="path2738"
       transform="matrix(1,0,0,-1,30.2,3.55)"
       shaper:pathType="guide"
       shaper:cutDepth="0"
       d="m -28.23,1.58 h 1.61 v -1.61 h -1.61 z"
       inkscape:connector-curvature="0"
       style="vector-effect:non-scaling-stroke;fill:none;stroke:#ff0000;stroke-width:0.01;stroke-opacity:1;stroke-miterlimit:4;stroke-dasharray:none" />
    <path
       id="path2740"
       transform="matrix(1,0,0,-1,30.2,3.55)"
       shaper:pathType="guide"
       shaper:cutDepth="0"
       d="m 7.1,3.55 h -37.3 v -7.9 H 7.1 Z"
       inkscape:connector-curvature="0"
       style="vector-effect:non-scaling-stroke;fill:none;stroke:#ff0000;stroke-width:0.01;stroke-opacity:1;stroke-miterlimit:4;stroke-dasharray:none" />
  </g>
</svg>
