<?xml version="1.0" encoding="utf-8"?>
<!-- Generator: Fusion 360, Shaper Origin Export Add-In, Version 1.4.1  -->
<svg enable-background="new 0 0 41.3383378 8.5957245" height="8.5957245cm" shaper:fusionaddin="version:1.4.1" version="1.1" viewBox="0 0 41.3383378 8.5957245" width="41.3383378cm" x="0cm" xml:space="preserve" xmlns="http://www.w3.org/2000/svg" xmlns:shaper="http://www.shapertools.com/namespaces/shaper" xmlns:xlink="http://www.w3.org/1999/xlink" y="0cm"><path d="M30.2710004,7.2657698 A1,1 84.1748761 0,0 30.9447294,6.902623 L33.5798679,3.6687298 A1,1 39.1748761 0,0 33.7994826,2.9355478 L33.5,0 0,0 -7.0336915,4.0609037 A1,1 240 0,0 -7.5285278,5.0284216 L-7.470128,5.60086 A1,1 174.1748761 0,0 -6.8848147,6.4116673 L-2.3124185,8.4641742 A1.5,1.5 114.1748761 0,0 -1.4164159,8.569032 L14.6337734,5.5 20.3680371,8.0740586 A1.5,1.5 114.1748761 0,0 21.1345604,8.1978634 L30.2710004,7.2657698z" fill="rgb(0,0,0)" shaper:cutDepth="0" shaper:pathType="exterior" transform="matrix(1,0,0,-1,7.5336915,8.5957245)" vector-effect="non-scaling-stroke" /></svg>