<?xml version="1.0" encoding="utf-8"?>
<!-- Generator: Fusion 360, Shaper Origin Export Add-In, Version 1.4.1  -->
<svg enable-background="new 0 0 33.2490391 4.0361318" height="4.0361318cm" shaper:fusionaddin="version:1.4.1" version="1.1" viewBox="0 0 33.2490391 4.0361318" width="33.2490391cm" x="0cm" xml:space="preserve" xmlns="http://www.w3.org/2000/svg" xmlns:shaper="http://www.shapertools.com/namespaces/shaper" xmlns:xlink="http://www.w3.org/1999/xlink" y="0cm"><path d="M-34.1019934,0.9884926 L-34.1019934,0.9884926 -34.1740383,0.938153 -34.2297693,0.8692644 -34.2646329,0.7874556 -34.2757804,0.6994111 -34.2259054,-3.0460232 -14.8305408,-3.0460232 -14.8305408,0.9884926 -34.1019934,0.9884926z" fill="none" shaper:cutDepth="0" shaper:pathType="guide" stroke="rgb(100,100,100)" stroke-width="2" transform="matrix(1,0,0,-1,34.2757804,0.9884926)" vector-effect="non-scaling-stroke" /><path d="M-22.1853555,-1.2721768 L-22.1853555,-1.2721768 -22.1757195,-1.1745692 -22.147276,-1.0808654 -22.1010313,-0.994374 -22.0389007,-0.9186764 -21.9630894,-0.8564575 -21.876723,-0.8102831 -21.7828812,-0.7817992 -21.6854159,-0.7721768 -21.5878213,-0.7817618 -21.4940866,-0.8101651 -21.4075932,-0.8563636 -21.331861,-0.9184806 -21.2696396,-0.9942613 -21.2234478,-1.0806402 -21.1949713,-1.1744604 -21.1853543,-1.2719482 -21.1949462,-1.3695195 -21.2233618,-1.4632763 -21.2695468,-1.5497519 -21.3316685,-1.6255145 -21.4074134,-1.6877442 -21.4937962,-1.7339852 -21.587758,-1.7625389 -21.6854945,-1.7721768 -21.7831342,-1.7625414 -21.8768215,-1.7341001 -21.9633212,-1.68784 -22.0389936,-1.6257063 -22.1012009,-1.549866 -22.1473352,-1.4634987 -22.1757825,-1.3696288 -22.1853555,-1.2721768z" fill="none" shaper:cutDepth="0" shaper:pathType="guide" stroke="rgb(100,100,100)" stroke-width="2" transform="matrix(1,0,0,-1,34.2757804,0.9884926)" vector-effect="non-scaling-stroke" /><path d="M-17.5235412,-0.5062233 L-17.5235412,-0.5062233 -17.6290685,-0.5246873 -17.7231603,-0.5780783 -17.7956203,-0.6606107 -17.8385962,-0.7633407 -17.8474311,-0.875136 -17.8211675,-0.9838818 -17.7626514,-1.0777939 -17.6782241,-1.1466953 -17.5770344,-1.1831196 -17.4700479,-1.1831196 -17.3688582,-1.1466953 -17.2844309,-1.0777939 -17.2259148,-0.9838818 -17.1996512,-0.875136 -17.2084861,-0.7633407 -17.251462,-0.6606107 -17.323922,-0.5780783 -17.4180138,-0.5246873 -17.5235412,-0.5062233z" fill="none" shaper:cutDepth="0" shaper:pathType="guide" stroke="rgb(100,100,100)" stroke-width="2" transform="matrix(1,0,0,-1,34.2757804,0.9884926)" vector-effect="non-scaling-stroke" /><path d="M-31.3235412,-1.3793907 L-31.3235412,-1.3793907 -31.2180138,-1.3613537 -31.123922,-1.3091975 -31.051462,-1.2285738 -31.0084861,-1.1282197 -30.9996512,-1.0190099 -31.0259148,-0.9127791 -31.0844309,-0.821039 -31.1688582,-0.7537311 -31.2700479,-0.7181492 -31.3770344,-0.7181492 -31.4782241,-0.7537311 -31.5626514,-0.821039 -31.6211675,-0.9127791 -31.6474311,-1.0190099 -31.6385962,-1.1282197 -31.5956203,-1.2285738 -31.5231603,-1.3091975 -31.4290685,-1.3613537 -31.3235412,-1.3793907z" fill="none" shaper:cutDepth="0" shaper:pathType="guide" stroke="rgb(100,100,100)" stroke-width="2" transform="matrix(1,0,0,-1,34.2757804,0.9884926)" vector-effect="non-scaling-stroke" /><path d="M-14.8305408,-3.0460232 L-34.2259054,-3.0460232 -34.2757804,0.6994111 -34.2757804,0.6994111 -34.2646329,0.7874556 -34.2297693,0.8692644 -34.1740383,0.938153 -34.1019934,0.9884926 -14.8305408,0.9884926" fill="none" shaper:cutDepth="0" shaper:pathType="guide" stroke="rgb(100,100,100)" stroke-width="2" transform="matrix(1,0,0,-1,34.2757804,0.9884926)" vector-effect="non-scaling-stroke" /><path d="M-14.8222543,0.9868767 L-12.129996,0.9868767 -12.129996,0.9868767 -12.0366125,0.9720669 -11.9519756,0.9290874 -11.8843701,0.8621452 -11.8404139,0.777793 -11.8244095,0.684288 -11.8217233,0.4825622 -1.0267413,0.4825622 -1.8248421,-3.0476392 -14.8222543,-3.0476392" fill="none" shaper:cutDepth="0" shaper:pathType="guide" stroke="rgb(100,100,100)" stroke-width="2" transform="matrix(1,0,0,-1,34.2757804,0.9884926)" vector-effect="non-scaling-stroke" /><path d="M-3.8750001,-0.4147483 L-3.8750001,-0.4147483 -3.9805274,-0.4327853 -4.0746192,-0.4849415 -4.1470792,-0.5655651 -4.1900551,-0.6659193 -4.19889,-0.7751291 -4.1726264,-0.8813599 -4.1141103,-0.9731 -4.029683,-1.0404079 -3.9284933,-1.0759898 -3.8215068,-1.0759898 -3.7203172,-1.0404079 -3.6358898,-0.9731 -3.5773737,-0.8813599 -3.5511101,-0.7751291 -3.559945,-0.6659193 -3.602921,-0.5655651 -3.6753809,-0.4849415 -3.7694727,-0.4327853 -3.8750001,-0.4147483z" fill="none" shaper:cutDepth="0" shaper:pathType="guide" stroke="rgb(100,100,100)" stroke-width="2" transform="matrix(1,0,0,-1,34.2757804,0.9884926)" vector-effect="non-scaling-stroke" /><path d="M-17.5235412,-0.5062233 L-17.5235412,-0.5062233 -17.6290685,-0.5246873 -17.7231603,-0.5780783 -17.7956203,-0.6606107 -17.8385962,-0.7633407 -17.8474311,-0.875136 -17.8211675,-0.9838818 -17.7626514,-1.0777939 -17.6782241,-1.1466953 -17.5770344,-1.1831196 -17.4700479,-1.1831196 -17.3688582,-1.1466953 -17.2844309,-1.0777939 -17.2259148,-0.9838818 -17.1996512,-0.875136 -17.2084861,-0.7633407 -17.251462,-0.6606107 -17.323922,-0.5780783 -17.4180138,-0.5246873 -17.5235412,-0.5062233z" fill="none" shaper:cutDepth="0" shaper:pathType="guide" stroke="rgb(100,100,100)" stroke-width="2" transform="matrix(1,0,0,-1,34.2757804,0.9884926)" vector-effect="non-scaling-stroke" /><path d="M-22.1853555,-1.2721768 L-22.1853555,-1.2721768 -22.1757195,-1.1745692 -22.147276,-1.0808654 -22.1010313,-0.994374 -22.0389007,-0.9186764 -21.9630894,-0.8564575 -21.876723,-0.8102831 -21.7828812,-0.7817992 -21.6854159,-0.7721768 -21.5878213,-0.7817618 -21.4940866,-0.8101651 -21.4075932,-0.8563636 -21.331861,-0.9184806 -21.2696396,-0.9942613 -21.2234478,-1.0806402 -21.1949713,-1.1744604 -21.1853543,-1.2719482 -21.1949462,-1.3695195 -21.2233618,-1.4632763 -21.2695468,-1.5497519 -21.3316685,-1.6255145 -21.4074134,-1.6877442 -21.4937962,-1.7339852 -21.587758,-1.7625389 -21.6854945,-1.7721768 -21.7831342,-1.7625414 -21.8768215,-1.7341001 -21.9633212,-1.68784 -22.0389936,-1.6257063 -22.1012009,-1.549866 -22.1473352,-1.4634987 -22.1757825,-1.3696288 -22.1853555,-1.2721768z" fill="none" shaper:cutDepth="0" shaper:pathType="guide" stroke="rgb(100,100,100)" stroke-width="2" transform="matrix(1,0,0,-1,34.2757804,0.9884926)" vector-effect="non-scaling-stroke" /><path d="M-31.3235412,-1.3793907 L-31.3235412,-1.3793907 -31.2180138,-1.3613537 -31.123922,-1.3091975 -31.051462,-1.2285738 -31.0084861,-1.1282197 -30.9996512,-1.0190099 -31.0259148,-0.9127791 -31.0844309,-0.821039 -31.1688582,-0.7537311 -31.2700479,-0.7181492 -31.3770344,-0.7181492 -31.4782241,-0.7537311 -31.5626514,-0.821039 -31.6211675,-0.9127791 -31.6474311,-1.0190099 -31.6385962,-1.1282197 -31.5956203,-1.2285738 -31.5231603,-1.3091975 -31.4290685,-1.3613537 -31.3235412,-1.3793907z" fill="none" shaper:cutDepth="0" shaper:pathType="guide" stroke="rgb(100,100,100)" stroke-width="2" transform="matrix(1,0,0,-1,34.2757804,0.9884926)" vector-effect="non-scaling-stroke" /><path d="M-14.8305408,-3.0460232 L-34.2259054,-3.0460232 -34.2757804,0.6994111" fill="none" shaper:cutDepth="0" shaper:pathType="guide" stroke="rgb(100,100,100)" stroke-width="2" transform="matrix(1,0,0,-1,34.2757804,0.9884926)" vector-effect="non-scaling-stroke" /></svg>