<?xml version="1.0" encoding="utf-8"?>
<!-- Generator: Fusion 360, Shaper Origin Export Add-In, Version 1.4.1  -->
<svg enable-background="new 0 0 41.3203575 9.5072585" height="9.5072585cm" shaper:fusionaddin="version:1.4.1" version="1.1" viewBox="0 0 41.3203575 9.5072585" width="41.3203575cm" x="0cm" xml:space="preserve" xmlns="http://www.w3.org/2000/svg" xmlns:shaper="http://www.shapertools.com/namespaces/shaper" xmlns:xlink="http://www.w3.org/1999/xlink" y="0cm"><path d="M18.3362737,7.0952006 A2,2 255.8251239 0,1 19.0983382,7.0529298 L36.8554963,9.4932908 A1.5,1.5 97.8251239 0,0 37.6740059,9.3757082 L40.1980136,8.2427042 A1,1 65.8251239 0,0 40.7833268,7.4318969 L40.8536506,6.7425786 A1,1 5.8251239 0,0 40.5016019,5.8750416 L33.5,0 0,-0 -0.4563794,4.4734602 A1,1 185.8251239 0,0 -0.2367647,5.2066421 L2.3983738,8.4405353 A1,1 140.8251239 0,0 3.0721028,8.8036822 L8.8633394,9.3945003 A1.5,1.5 95.8251239 0,0 9.3829016,9.3565751 L18.3362737,7.0952006z" fill="rgb(0,0,0)" shaper:cutDepth="0" shaper:pathType="exterior" transform="matrix(1,0,0,-1,0.4615431,9.5072585)" vector-effect="non-scaling-stroke" /></svg>