<?xml version="1.0" encoding="utf-8"?>
<!-- Generator: Fusion 360, Shaper Origin Export Add-In, Version 1.4.1  -->
<svg enable-background="new 0 0 33.2679492 4.1411047" height="4.1411047cm" shaper:fusionaddin="version:1.4.1" version="1.1" viewBox="0 0 33.2679492 4.1411047" width="33.2679492cm" x="0cm" xml:space="preserve" xmlns="http://www.w3.org/2000/svg" xmlns:shaper="http://www.shapertools.com/namespaces/shaper" xmlns:xlink="http://www.w3.org/1999/xlink" y="0cm"><path d="M-11.8284388,1.9568676 L-14.8222543,1.9568676 -34.2713433,1.9568676 -34.1619993,-2.1842371 -14.8222543,-2.1842371 -2.6277497,-2.1842371 -1.0033941,1.4392295 -11.8147708,1.4392295 -11.8284388,1.9568676z" fill="none" shaper:cutDepth="0" shaper:pathType="guide" stroke="rgb(100,100,100)" stroke-width="2" transform="matrix(1,0,0,-1,34.2713433,1.9568676)" vector-effect="non-scaling-stroke" /><path d="M-31.5963433,-0.1842371 a0.325,0.325 0 1,1 0.65,0 a0.325,0.325 0 1,1 -0.65,0z" fill="none" shaper:cutDepth="0" shaper:pathType="guide" stroke="rgb(100,100,100)" stroke-width="2" transform="matrix(1,0,0,-1,34.2713433,1.9568676)" vector-effect="non-scaling-stroke" /><path d="M-17.7963433,0.0157629 a0.325,0.325 0 1,1 0.65,0 a0.325,0.325 0 1,1 -0.65,0z" fill="none" shaper:cutDepth="0" shaper:pathType="guide" stroke="rgb(100,100,100)" stroke-width="2" transform="matrix(1,0,0,-1,34.2713433,1.9568676)" vector-effect="non-scaling-stroke" /><path d="M-4.0431961,0.1386354 a0.325,0.325 0 1,1 0.65,0 a0.325,0.325 0 1,1 -0.65,0z" fill="none" shaper:cutDepth="0" shaper:pathType="guide" stroke="rgb(100,100,100)" stroke-width="2" transform="matrix(1,0,0,-1,34.2713433,1.9568676)" vector-effect="non-scaling-stroke" /></svg>