<?xml version="1.0" encoding="utf-8"?>
<!-- Generator: Fusion 360, Shaper Origin Export Add-In, Version 1.4.1  -->
<svg enable-background="new 0 0 33.5 4.0345158" height="4.0345158cm" shaper:fusionaddin="version:1.4.1" version="1.1" viewBox="0 0 33.5 4.0345158" width="33.5cm" x="0cm" xml:space="preserve" xmlns="http://www.w3.org/2000/svg" xmlns:shaper="http://www.shapertools.com/namespaces/shaper" xmlns:xlink="http://www.w3.org/1999/xlink" y="0cm"><path d="M26.6713433,-1.3976392 a1.05,1.05 0 1,1 2.1,0 a1.05,1.05 0 1,1 -2.1,0z" fill="none" shaper:cutDepth="0" shaper:pathType="guide" stroke="rgb(100,100,100)" stroke-width="2" transform="matrix(1,0,0,-1,-0.7713433,0.9868767)" vector-effect="non-scaling-stroke" /><path d="M30.9213433,-1.0476392 a0.3,0.3 0 1,1 0.6,0 a0.3,0.3 0 1,1 -0.6,0z" fill="none" shaper:cutDepth="0" shaper:pathType="guide" stroke="rgb(100,100,100)" stroke-width="2" transform="matrix(1,0,0,-1,-0.7713433,0.9868767)" vector-effect="non-scaling-stroke" /><path d="M17.2713433,-0.9476392 a0.3,0.3 0 1,1 0.6,0 a0.3,0.3 0 1,1 -0.6,0z" fill="none" shaper:cutDepth="0" shaper:pathType="guide" stroke="rgb(100,100,100)" stroke-width="2" transform="matrix(1,0,0,-1,-0.7713433,0.9868767)" vector-effect="non-scaling-stroke" /><path d="M34.2176189,-3.0476392 L34.2713433,0.9868767 15.0096624,0.9868767 0.7713433,0.9868767 1.3989326,-3.0476392 15.0096624,-3.0476392 34.2176189,-3.0476392z" fill="none" shaper:cutDepth="0" shaper:pathType="guide" stroke="rgb(100,100,100)" stroke-width="2" transform="matrix(1,0,0,-1,-0.7713433,0.9868767)" vector-effect="non-scaling-stroke" /><path d="M3.2713433,-1.1976392 a0.3,0.3 0 1,1 0.6,0 a0.3,0.3 0 1,1 -0.6,0z" fill="none" shaper:cutDepth="0" shaper:pathType="guide" stroke="rgb(100,100,100)" stroke-width="2" transform="matrix(1,0,0,-1,-0.7713433,0.9868767)" vector-effect="non-scaling-stroke" /></svg>