<?xml version="1.0" encoding="utf-8"?>
<!-- Generator: Fusion 360, Shaper Origin Export Add-In, Version 1.4.1  -->
<svg enable-background="new 0 0 19.6131939 7.5407673" height="7.5407673cm" shaper:fusionaddin="version:1.4.1" version="1.1" viewBox="0 0 19.6131939 7.5407673" width="19.6131939cm" x="0cm" xml:space="preserve" xmlns="http://www.w3.org/2000/svg" xmlns:shaper="http://www.shapertools.com/namespaces/shaper" xmlns:xlink="http://www.w3.org/1999/xlink" y="0cm"><path d="M14.1207783,0 L-0,0 A1.2,1.2 270.0039381 0,0 -0.6883742,0.2170175 L-4.7939191,3.0917511 A0.7,0.7 235 0,0 -5.0897519,3.7261665 L-5.0283195,4.428342 A0.5,0.5 175 0,0 -4.6944484,4.8570244 L3.0231062,7.5407673 13.5383566,5.530097 13.2547297,2.2882271 A1.3,1.3 175 0,1 13.8041334,1.1100269 L14.3502088,0.7276608 A0.4,0.4 55 0,0 14.1207783,-0z" fill="rgb(0,0,0)" shaper:cutDepth="0" shaper:pathType="exterior" transform="matrix(1,0,0,-1,5.0924156,7.5407673)" vector-effect="non-scaling-stroke" /><path d="M12.4818614,0.9 a0.275,0.275 0 1,1 0.55,0 a0.275,0.275 0 1,1 -0.55,0z" fill="rgb(255,255,255)" shaper:cutDepth="0" shaper:pathType="interior" stroke="rgb(0,0,0)" stroke-width="2" transform="matrix(1,0,0,-1,5.0924156,7.5407673)" vector-effect="non-scaling-stroke" /><path d="M-4.4422152,3.944467 a0.275,0.275 0 1,1 0.55,0 a0.275,0.275 0 1,1 -0.55,0z" fill="rgb(255,255,255)" shaper:cutDepth="0" shaper:pathType="interior" stroke="rgb(0,0,0)" stroke-width="2" transform="matrix(1,0,0,-1,5.0924156,7.5407673)" vector-effect="non-scaling-stroke" /><path d="M10.9716358,0.1993448 L10.9717611,0.2 10.9682094,0.2 10.9716358,0.1993448z" fill="rgb(255,255,255)" shaper:cutDepth="0" shaper:pathType="interior" stroke="rgb(0,0,0)" stroke-width="2" transform="matrix(1,0,0,-1,5.0924156,7.5407673)" vector-effect="non-scaling-stroke" /></svg>