<?xml version="1.0" encoding="utf-8"?>
<!-- Generator: Fusion 360, Shaper Origin Export Add-In, Version 1.4.1  -->
<svg enable-background="new 0 0 40.7019195 8.9072585" height="8.9072585cm" shaper:fusionaddin="version:1.4.1" version="1.1" viewBox="0 0 40.7019195 8.9072585" width="40.7019195cm" x="0cm" xml:space="preserve" xmlns="http://www.w3.org/2000/svg" xmlns:shaper="http://www.shapertools.com/namespaces/shaper" xmlns:xlink="http://www.w3.org/1999/xlink" y="0cm"><path d="M-6.9179567,5.8048549 L0,0 33.1198576,0 33.5277177,3.9978706 A1.2,1.2 354.1748761 0,1 33.26418,4.8776889 L30.8906958,7.7904749 A1.2,1.2 39.1748761 0,1 30.082221,8.2262511 L24.58473,8.7871015 A1.7,1.7 84.1748761 0,1 23.9958929,8.7441196 L16.2587718,6.7899365 A8.3,8.3 284.1748761 0,0 13.096204,6.6145126 L-3.5055324,8.8960844 A1.2,1.2 82.1748761 0,1 -4.16034,8.8020182 L-6.6843477,7.6690142 A0.7,0.7 114.1748761 0,1 -7.094067,7.1014492 L-7.1643908,6.4121308 A0.7,0.7 174.1748761 0,1 -6.9179567,5.8048549z" fill="rgb(0,0,0)" shaper:cutDepth="0" shaper:pathType="exterior" transform="matrix(1,0,0,-1,7.1680054,8.9072585)" vector-effect="non-scaling-stroke" /><path d="M-6.5088762,6.6654467 a0.275,0.275 0 1,1 0.55,0 a0.275,0.275 0 1,1 -0.55,0z" fill="rgb(255,255,255)" shaper:cutDepth="0" shaper:pathType="interior" stroke="rgb(0,0,0)" stroke-width="2" transform="matrix(1,0,0,-1,7.1680054,8.9072585)" vector-effect="non-scaling-stroke" /><path d="M32.153435,2.0902786 a0.275,0.275 0 1,1 0.55,0 a0.275,0.275 0 1,1 -0.55,0z" fill="rgb(255,255,255)" shaper:cutDepth="0" shaper:pathType="interior" stroke="rgb(0,0,0)" stroke-width="2" transform="matrix(1,0,0,-1,7.1680054,8.9072585)" vector-effect="non-scaling-stroke" /></svg>