<?xml version="1.0" encoding="UTF-8" standalone="no"?>
<!-- Created with Inkscape (http://www.inkscape.org/) -->

<svg
   xmlns:shaper="http://www.shapertools.com/namespaces/shaper"
   xmlns:dc="http://purl.org/dc/elements/1.1/"
   xmlns:cc="http://creativecommons.org/ns#"
   xmlns:rdf="http://www.w3.org/1999/02/22-rdf-syntax-ns#"
   xmlns:svg="http://www.w3.org/2000/svg"
   xmlns="http://www.w3.org/2000/svg"
   xmlns:sodipodi="http://sodipodi.sourceforge.net/DTD/sodipodi-0.dtd"
   xmlns:inkscape="http://www.inkscape.org/namespaces/inkscape"
   version="1.1"
   width="1220mm"
   height="610mm"
   id="svg2"
   inkscape:version="0.92.2 (5c3e80d, 2017-08-06)"
   sodipodi:docname="Result2.svg"
   viewBox="0 0 1220 610">
  <sodipodi:namedview
     pagecolor="#ffffff"
     bordercolor="#666666"
     borderopacity="1"
     objecttolerance="10"
     gridtolerance="10"
     guidetolerance="10"
     inkscape:pageopacity="0"
     inkscape:pageshadow="2"
     inkscape:window-width="2560"
     inkscape:window-height="1537"
     id="namedview91444"
     showgrid="false"
     inkscape:zoom="0.35353124"
     inkscape:cx="1294.7043"
     inkscape:cy="1376.1384"
     inkscape:window-x="1432"
     inkscape:window-y="757"
     inkscape:window-maximized="1"
     inkscape:current-layer="g1754"
     units="mm"
     inkscape:document-units="mm" />
  <defs
     id="defs4">
    <symbol
       id="*PAPER_SPACE" />
    <symbol
       id="*MODEL_SPACE" />
    <pattern
       height="8"
       width="8"
       patternUnits="userSpaceOnUse"
       y="0"
       x="0"
       id="Hatch">
      <path
         linecap="square"
         stroke="#000000"
         stroke-width="0.25"
         d="M8 4 l-4,4"
         id="path617966" />
      <path
         linecap="square"
         stroke="#000000"
         stroke-width="0.25"
         d="M6 2 l-4,4"
         id="path617968" />
      <path
         linecap="square"
         stroke="#000000"
         stroke-width="0.25"
         d="M4 0 l-4,4"
         id="path617970" />
    </pattern>
    <marker
       refX="0"
       refY="0"
       orient="auto"
       id="DistanceX"
       style="overflow:visible">
      <path
         d="M 3,-3 -3,3 M 0,-5 V 5"
         id="path617963"
         style="stroke:#000000;stroke-width:0.5"
         inkscape:connector-curvature="0" />
    </marker>
    <symbol
       id="$PAPER_SPACE" />
    <symbol
       id="$MODEL_SPACE" />
    <pattern
       id="Hatch-0"
       x="0"
       y="0"
       patternUnits="userSpaceOnUse"
       width="8"
       height="8">
      <path
         id="path73478"
         d="M8 4 l-4,4"
         stroke-width="0.25"
         stroke="#000000"
         linecap="square" />
      <path
         id="path73480"
         d="M6 2 l-4,4"
         stroke-width="0.25"
         stroke="#000000"
         linecap="square" />
      <path
         id="path73482"
         d="M4 0 l-4,4"
         stroke-width="0.25"
         stroke="#000000"
         linecap="square" />
    </pattern>
    <marker
       refX="0"
       refY="0"
       orient="auto"
       id="DistanceX-5"
       style="overflow:visible">
      <path
         d="M 3,-3 -3,3 M 0,-5 V 5"
         id="path73475"
         style="stroke:#000000;stroke-width:0.5"
         inkscape:connector-curvature="0" />
    </marker>
    <symbol
       id="$PAPER_SPACE-1" />
    <symbol
       id="$MODEL_SPACE-0" />
    <pattern
       height="8"
       width="8"
       patternUnits="userSpaceOnUse"
       y="0"
       x="0"
       id="Hatch-1">
      <path
         linecap="square"
         stroke="#000000"
         stroke-width="0.25"
         d="M8 4 l-4,4"
         id="path44235" />
      <path
         linecap="square"
         stroke="#000000"
         stroke-width="0.25"
         d="M6 2 l-4,4"
         id="path44237" />
      <path
         linecap="square"
         stroke="#000000"
         stroke-width="0.25"
         d="M4 0 l-4,4"
         id="path44239" />
    </pattern>
    <marker
       refX="0"
       refY="0"
       orient="auto"
       id="DistanceX-1"
       style="overflow:visible">
      <path
         d="M 3,-3 -3,3 M 0,-5 V 5"
         id="path44232"
         style="stroke:#000000;stroke-width:0.5"
         inkscape:connector-curvature="0" />
    </marker>
    <symbol
       id="$PAPER_SPACE-5" />
    <symbol
       id="$MODEL_SPACE-4" />
    <pattern
       id="Hatch-04"
       x="0"
       y="0"
       patternUnits="userSpaceOnUse"
       width="8"
       height="8">
      <path
         id="path101669"
         d="M8 4 l-4,4"
         stroke-width="0.25"
         stroke="#000000"
         linecap="square" />
      <path
         id="path101671"
         d="M6 2 l-4,4"
         stroke-width="0.25"
         stroke="#000000"
         linecap="square" />
      <path
         id="path101673"
         d="M4 0 l-4,4"
         stroke-width="0.25"
         stroke="#000000"
         linecap="square" />
    </pattern>
    <marker
       orient="auto"
       id="DistanceX-2"
       style="overflow:visible"
       refX="0"
       refY="0">
      <path
         id="path101666"
         d="M 3,-3 -3,3 M 0,-5 V 5"
         style="stroke:#000000;stroke-width:0.5"
         inkscape:connector-curvature="0" />
    </marker>
    <symbol
       id="*PAPER_SPACE-9" />
    <symbol
       id="*MODEL_SPACE-2" />
    <pattern
       id="Hatch-9"
       x="0"
       y="0"
       patternUnits="userSpaceOnUse"
       width="8"
       height="8">
      <path
         id="path145873"
         d="M8 4 l-4,4"
         stroke-width="0.25"
         stroke="#000000"
         linecap="square" />
      <path
         id="path145875"
         d="M6 2 l-4,4"
         stroke-width="0.25"
         stroke="#000000"
         linecap="square" />
      <path
         id="path145877"
         d="M4 0 l-4,4"
         stroke-width="0.25"
         stroke="#000000"
         linecap="square" />
    </pattern>
    <marker
       orient="auto"
       id="DistanceX-24"
       style="overflow:visible"
       refX="0"
       refY="0">
      <path
         id="path145870"
         d="M 3,-3 -3,3 M 0,-5 V 5"
         style="stroke:#000000;stroke-width:0.5"
         inkscape:connector-curvature="0" />
    </marker>
    <symbol
       id="$PAPER_SPACE-4" />
    <symbol
       id="$MODEL_SPACE-1" />
    <pattern
       id="Hatch-8"
       x="0"
       y="0"
       patternUnits="userSpaceOnUse"
       width="8"
       height="8">
      <path
         id="path1947"
         d="M8 4 l-4,4"
         stroke-width="0.25"
         stroke="#000000"
         linecap="square" />
      <path
         id="path1949"
         d="M6 2 l-4,4"
         stroke-width="0.25"
         stroke="#000000"
         linecap="square" />
      <path
         id="path1951"
         d="M4 0 l-4,4"
         stroke-width="0.25"
         stroke="#000000"
         linecap="square" />
    </pattern>
    <marker
       orient="auto"
       id="DistanceX-55"
       style="overflow:visible"
       refX="0"
       refY="0">
      <path
         id="path1944"
         d="M 3,-3 -3,3 M 0,-5 V 5"
         style="stroke:#000000;stroke-width:0.5"
         inkscape:connector-curvature="0" />
    </marker>
    <symbol
       id="*PAPER_SPACE-7" />
    <symbol
       id="*MODEL_SPACE-0" />
    <pattern
       id="Hatch-82"
       x="0"
       y="0"
       patternUnits="userSpaceOnUse"
       width="8"
       height="8">
      <path
         id="path1175"
         d="M8 4 l-4,4"
         stroke-width="0.25"
         stroke="#000000"
         linecap="square" />
      <path
         id="path1177"
         d="M6 2 l-4,4"
         stroke-width="0.25"
         stroke="#000000"
         linecap="square" />
      <path
         id="path1179"
         d="M4 0 l-4,4"
         stroke-width="0.25"
         stroke="#000000"
         linecap="square" />
    </pattern>
    <marker
       orient="auto"
       id="DistanceX-29"
       style="overflow:visible"
       refX="0"
       refY="0">
      <path
         id="path1172"
         d="M 3,-3 -3,3 M 0,-5 V 5"
         style="stroke:#000000;stroke-width:0.5"
         inkscape:connector-curvature="0" />
    </marker>
    <symbol
       id="*PAPER_SPACE-76" />
    <symbol
       id="*MODEL_SPACE-5" />
    <pattern
       id="Hatch-3"
       x="0"
       y="0"
       patternUnits="userSpaceOnUse"
       width="8"
       height="8">
      <path
         id="path1809-9"
         d="M8 4 l-4,4"
         stroke-width="0.25"
         stroke="#000000"
         linecap="square" />
      <path
         id="path1811-8"
         d="M6 2 l-4,4"
         stroke-width="0.25"
         stroke="#000000"
         linecap="square" />
      <path
         id="path1813-6"
         d="M4 0 l-4,4"
         stroke-width="0.25"
         stroke="#000000"
         linecap="square" />
    </pattern>
    <marker
       orient="auto"
       id="DistanceX-0"
       style="overflow:visible"
       refX="0"
       refY="0">
      <path
         id="path1806"
         d="M 3,-3 -3,3 M 0,-5 V 5"
         style="stroke:#000000;stroke-width:0.5"
         inkscape:connector-curvature="0" />
    </marker>
    <symbol
       id="*PAPER_SPACE-6" />
    <symbol
       id="*MODEL_SPACE-7" />
    <pattern
       id="Hatch-5"
       x="0"
       y="0"
       patternUnits="userSpaceOnUse"
       width="8"
       height="8">
      <path
         id="path1851"
         d="M8 4 l-4,4"
         stroke-width="0.25"
         stroke="#000000"
         linecap="square" />
      <path
         id="path1853"
         d="M6 2 l-4,4"
         stroke-width="0.25"
         stroke="#000000"
         linecap="square" />
      <path
         id="path1855"
         d="M4 0 l-4,4"
         stroke-width="0.25"
         stroke="#000000"
         linecap="square" />
    </pattern>
    <marker
       orient="auto"
       id="DistanceX-6"
       style="overflow:visible"
       refX="0"
       refY="0">
      <path
         id="path1848"
         d="M 3,-3 -3,3 M 0,-5 V 5"
         style="stroke:#000000;stroke-width:0.5"
         inkscape:connector-curvature="0" />
    </marker>
    <symbol
       id="*PAPER_SPACE-0" />
    <symbol
       id="*MODEL_SPACE-27" />
    <pattern
       id="Hatch-6"
       x="0"
       y="0"
       patternUnits="userSpaceOnUse"
       width="8"
       height="8">
      <path
         id="path1858"
         d="M8 4 l-4,4"
         stroke-width="0.25"
         stroke="#000000"
         linecap="square" />
      <path
         id="path1860"
         d="M6 2 l-4,4"
         stroke-width="0.25"
         stroke="#000000"
         linecap="square" />
      <path
         id="path1862"
         d="M4 0 l-4,4"
         stroke-width="0.25"
         stroke="#000000"
         linecap="square" />
    </pattern>
    <marker
       orient="auto"
       id="DistanceX-65"
       style="overflow:visible"
       refX="0"
       refY="0">
      <path
         id="path1855-7"
         d="M 3,-3 -3,3 M 0,-5 V 5"
         style="stroke:#000000;stroke-width:0.5"
         inkscape:connector-curvature="0" />
    </marker>
  </defs>
  <metadata
     id="metadata7">
    <rdf:RDF>
      <cc:Work
         rdf:about="">
        <dc:format>image/svg+xml</dc:format>
        <dc:type
           rdf:resource="http://purl.org/dc/dcmitype/StillImage" />
        <dc:title></dc:title>
      </cc:Work>
    </rdf:RDF>
  </metadata>
  <g
     inkscape:label="0"
     id="g145881"
     transform="translate(3.0705811,156.18135)" />
  <g
     inkscape:label="0"
     id="g101677"
     transform="translate(1.2170305,155.38115)" />
  <g
     transform="translate(-1.147247,152.76995)"
     id="g73486"
     style="stroke:#ff0000;stroke-opacity:1" />
  <g
     transform="translate(2.7720772,156.87255)"
     id="g44243" />
  <g
     id="g1754"
     transform="matrix(0,-10,10,0,471.01519,465.65852)">
    <path
       id="path1715"
       transform="matrix(1,0,0,-1,34.27578,0.9884926)"
       shaper:pathType="guide"
       shaper:cutDepth="0"
       d="m -22.185355,-1.2721768 v 0 l 0.0096,0.097608 0.02844,0.093704 0.04625,0.0864914 0.06213,0.0756976 0.07581,0.0622189 0.08637,0.0461744 0.09384,0.0284839 0.09746,0.009622 0.09759,-0.009585 0.09373,-0.0284033 0.08649,-0.0461985 0.07573,-0.062117 0.06222,-0.0757807 0.04619,-0.0863789 0.02848,-0.09382 0.0096,-0.097488 -0.0096,-0.097571 -0.02842,-0.093757 -0.04618,-0.086476 -0.06212,-0.075763 -0.07574,-0.06223 -0.08638,-0.046241 -0.09396,-0.028554 -0.09774,-0.00964 -0.09764,0.00964 -0.09369,0.028441 -0.0865,0.04626 -0.07567,0.062134 -0.06221,0.07584 -0.04613,0.086367 -0.02845,0.09387 z"
       inkscape:connector-curvature="0"
       style="vector-effect:non-scaling-stroke;fill:none;stroke:#646464;stroke-width:2" />
    <path
       id="path1717"
       transform="matrix(1,0,0,-1,34.27578,0.9884926)"
       shaper:pathType="guide"
       shaper:cutDepth="0"
       d="m -17.523541,-0.5062233 v 0 l -0.105527,-0.018464 -0.09409,-0.053391 -0.07246,-0.0825324 -0.04298,-0.10273 -0.0088,-0.1117953 0.02626,-0.1087458 0.05852,-0.0939121 0.08443,-0.068901 0.10119,-0.036424 h 0.106986 l 0.10119,0.036424 0.08443,0.068901 0.05852,0.0939121 0.02626,0.1087458 -0.0088,0.1117953 -0.04298,0.10273 -0.07246,0.0825324 -0.09409,0.053391 z"
       inkscape:connector-curvature="0"
       style="vector-effect:non-scaling-stroke;fill:none;stroke:#646464;stroke-width:2" />
    <path
       id="path1719"
       transform="matrix(1,0,0,-1,34.27578,0.9884926)"
       shaper:pathType="guide"
       shaper:cutDepth="0"
       d="m -31.323541,-1.3793907 v 0 l 0.105527,0.018037 0.09409,0.052156 0.07246,0.080624 0.04298,0.1003541 0.0088,0.1092098 -0.02626,0.1062308 -0.05852,0.0917401 -0.08443,0.0673079 -0.10119,0.0355819 h -0.106986 l -0.10119,-0.0355819 -0.08443,-0.0673079 -0.05852,-0.0917401 -0.02626,-0.1062308 0.0088,-0.1092098 0.04298,-0.1003541 0.07246,-0.080624 0.09409,-0.052156 z"
       inkscape:connector-curvature="0"
       style="vector-effect:non-scaling-stroke;fill:none;stroke:#646464;stroke-width:2" />
    <path
       id="path1721"
       transform="matrix(1,0,0,-1,34.27578,0.9884926)"
       shaper:pathType="guide"
       shaper:cutDepth="0"
       d="m -14.830541,-3.0460232 h -19.395364 l -0.04988,3.7454343 v 0 l 0.01115,0.0880445 0.03486,0.0818088 0.05573,0.0688886 0.07205,0.0503396 h 19.271452"
       inkscape:connector-curvature="0"
       style="vector-effect:non-scaling-stroke;fill:none;stroke:#646464;stroke-width:2" />
    <path
       id="path1723"
       transform="matrix(1,0,0,-1,34.27578,0.9884926)"
       shaper:pathType="guide"
       shaper:cutDepth="0"
       d="m -14.822254,0.9868767 h 2.692258 v 0 l 0.09338,-0.0148098 0.08464,-0.0429795 0.06761,-0.0669422 0.04396,-0.0843522 0.016,-0.093505 0.0027,-0.2017258 H -1.0267413 L -1.8248421,-3.0476392 H -14.822254"
       inkscape:connector-curvature="0"
       style="vector-effect:non-scaling-stroke;fill:none;stroke:#646464;stroke-width:2" />
    <path
       id="path1725"
       transform="matrix(1,0,0,-1,34.27578,0.9884926)"
       shaper:pathType="guide"
       shaper:cutDepth="0"
       d="m -3.8750001,-0.4147483 v 0 l -0.1055273,-0.018037 -0.094092,-0.0521562 -0.07246,-0.0806236 -0.042976,-0.1003542 -0.00883,-0.1092098 0.026264,-0.1062308 0.058516,-0.0917401 0.084427,-0.0673079 0.1011897,-0.035582 h 0.1069865 l 0.1011896,0.035582 0.084427,0.0673079 0.058516,0.0917401 0.026264,0.1062308 -0.00883,0.1092098 -0.042976,0.1003542 -0.07246,0.0806236 -0.094092,0.0521562 z"
       inkscape:connector-curvature="0"
       style="vector-effect:non-scaling-stroke;fill:none;stroke:#ff0000;stroke-width:2;stroke-opacity:1" />
    <path
       id="path1727"
       transform="matrix(1,0,0,-1,34.27578,0.9884926)"
       shaper:pathType="guide"
       shaper:cutDepth="0"
       d="m -17.523541,-0.5062233 v 0 l -0.105527,-0.018464 -0.09409,-0.053391 -0.07246,-0.0825324 -0.04298,-0.10273 -0.0088,-0.1117953 0.02626,-0.1087458 0.05852,-0.0939121 0.08443,-0.068901 0.10119,-0.036424 h 0.106986 l 0.10119,0.036424 0.08443,0.068901 0.05852,0.0939121 0.02626,0.1087458 -0.0088,0.1117953 -0.04298,0.10273 -0.07246,0.0825324 -0.09409,0.053391 z"
       inkscape:connector-curvature="0"
       style="vector-effect:non-scaling-stroke;fill:none;stroke:#ff0000;stroke-width:2;stroke-opacity:1" />
    <path
       id="path1729"
       transform="matrix(1,0,0,-1,34.27578,0.9884926)"
       shaper:pathType="guide"
       shaper:cutDepth="0"
       d="m -22.185355,-1.2721768 v 0 l 0.0096,0.097608 0.02844,0.093704 0.04625,0.0864914 0.06213,0.0756976 0.07581,0.0622189 0.08637,0.0461744 0.09384,0.0284839 0.09746,0.009622 0.09759,-0.009585 0.09373,-0.0284033 0.08649,-0.0461985 0.07573,-0.062117 0.06222,-0.0757807 0.04619,-0.0863789 0.02848,-0.09382 0.0096,-0.097488 -0.0096,-0.097571 -0.02842,-0.093757 -0.04618,-0.086476 -0.06212,-0.075763 -0.07574,-0.06223 -0.08638,-0.046241 -0.09396,-0.028554 -0.09774,-0.00964 -0.09764,0.00964 -0.09369,0.028441 -0.0865,0.04626 -0.07567,0.062134 -0.06221,0.07584 -0.04613,0.086367 -0.02845,0.09387 z"
       inkscape:connector-curvature="0"
       style="vector-effect:non-scaling-stroke;fill:none;stroke:#ff0000;stroke-width:2;stroke-opacity:1" />
    <path
       id="path1731"
       transform="matrix(1,0,0,-1,34.27578,0.9884926)"
       shaper:pathType="guide"
       shaper:cutDepth="0"
       d="m -31.323541,-1.3793907 v 0 l 0.105527,0.018037 0.09409,0.052156 0.07246,0.080624 0.04298,0.1003541 0.0088,0.1092098 -0.02626,0.1062308 -0.05852,0.0917401 -0.08443,0.0673079 -0.10119,0.0355819 h -0.106986 l -0.10119,-0.0355819 -0.08443,-0.0673079 -0.05852,-0.0917401 -0.02626,-0.1062308 0.0088,-0.1092098 0.04298,-0.1003541 0.07246,-0.080624 0.09409,-0.052156 z"
       inkscape:connector-curvature="0"
       style="vector-effect:non-scaling-stroke;fill:none;stroke:#ff0000;stroke-width:2;stroke-opacity:1" />
    <path
       id="path1733"
       transform="matrix(1,0,0,-1,34.27578,0.9884926)"
       shaper:pathType="guide"
       shaper:cutDepth="0"
       d="m -14.830541,-3.0460232 h -19.395364 l -0.04988,3.7454343"
       inkscape:connector-curvature="0"
       style="vector-effect:non-scaling-stroke;fill:none;stroke:#646464;stroke-width:2" />
  </g>
</svg>
