<?xml version="1.0" encoding="utf-8"?>
<!-- Generator: Fusion 360, Shaper Origin Export Add-In, Version 1.4.1  -->
<svg enable-background="new 0 0 9.4115353 2.39" height="2.39cm" shaper:fusionaddin="version:1.4.1" version="1.1" viewBox="0 0 9.4115353 2.39" width="9.4115353cm" x="0cm" xml:space="preserve" xmlns="http://www.w3.org/2000/svg" xmlns:shaper="http://www.shapertools.com/namespaces/shaper" xmlns:xlink="http://www.w3.org/1999/xlink" y="0cm"><path d="M9.4115353,2.39 L9.4115353,0 0,0 0,2.39 9.4115353,2.39z" fill="rgb(0,0,0)" shaper:cutDepth="0" shaper:pathType="exterior" transform="matrix(1,0,0,-1,-0,2.39)" vector-effect="non-scaling-stroke" /><path d="M2.4396822,2.1401164 L2.4396822,2.1401164 2.5570857,2.118086 2.6586333,2.0549703 2.7306103,1.9592933 2.7632958,1.8439767 2.7522755,1.7245947 2.6990378,1.6172705 2.6107726,1.5364989 2.4994008,1.4931884 2.3799636,1.4931884 2.2685917,1.5364989 2.1803266,1.6172705 2.1270888,1.7245947 2.1160686,1.8439767 2.1487541,1.9592933 2.2207311,2.0549703 2.3222786,2.118086 2.4396822,2.1401164z" fill="rgb(255,255,255)" shaper:cutDepth="0" shaper:pathType="interior" stroke="rgb(0,0,0)" stroke-width="2" transform="matrix(1,0,0,-1,-0,2.39)" vector-effect="non-scaling-stroke" /></svg>