<?xml version="1.0" encoding="utf-8"?>
<!-- Generator: Fusion 360, Shaper Origin Export Add-In, Version 1.4.1  -->
<svg enable-background="new 0 0 30.8064293 2.64" height="2.64cm" shaper:fusionaddin="version:1.4.1" version="1.1" viewBox="0 0 30.8064293 2.64" width="30.8064293cm" x="0cm" xml:space="preserve" xmlns="http://www.w3.org/2000/svg" xmlns:shaper="http://www.shapertools.com/namespaces/shaper" xmlns:xlink="http://www.w3.org/1999/xlink" y="0cm"><path d="M30.8064293,0 L0,0 -0,2.64 30.8064293,2.64 30.8064293,0z" fill="rgb(0,0,0)" shaper:cutDepth="0" shaper:pathType="exterior" transform="matrix(1,0,0,-1,0,2.64)" vector-effect="non-scaling-stroke" /><path d="M21.0630149,1.9182909 L21.0630149,1.9182909 21.2103925,1.8958857 21.3446749,1.8306606 21.4539306,1.7284114 21.5284518,1.5982232 21.5616168,1.4516639 21.5504788,1.3017559 21.4960276,1.1618192 21.4031013,1.0442878 21.2799568,0.9596048 21.137536,0.9152948 20.9884937,0.9152948 20.846073,0.9596048 20.7229285,1.0442878 20.6300022,1.1618192 20.5755509,1.3017559 20.564413,1.4516639 20.597578,1.5982232 20.6720991,1.7284114 20.7813549,1.8306606 20.9156373,1.8958857 21.0630149,1.9182909z" fill="rgb(255,255,255)" shaper:cutDepth="0" shaper:pathType="interior" stroke="rgb(0,0,0)" stroke-width="2" transform="matrix(1,0,0,-1,0,2.64)" vector-effect="non-scaling-stroke" /><path d="M15.9880149,0.8529421 L15.9880149,0.8529421 15.8732099,0.8758437 15.7758828,0.9410618 15.710851,1.0386676 15.6880149,1.1538014 15.710851,1.2689353 15.7758828,1.3665411 15.8732099,1.4317592 15.9880149,1.4546608 16.1028199,1.4317592 16.2001469,1.3665411 16.2651787,1.2689353 16.2880149,1.1538014 16.2651787,1.0386676 16.2001469,0.9410618 16.1028199,0.8758437 15.9880149,0.8529421z" fill="rgb(255,255,255)" shaper:cutDepth="0" shaper:pathType="interior" stroke="rgb(0,0,0)" stroke-width="2" transform="matrix(1,0,0,-1,0,2.64)" vector-effect="non-scaling-stroke" /><path d="M27.1880149,1.534116 L27.1880149,1.534116 27.1650699,1.3176764 27.0972376,1.1106962 26.9874827,0.9222215 26.840602,0.7604895 26.6630149,0.6325687 26.4624827,0.5440499 26.2477698,0.4988017 26.02826,0.4988017 25.813547,0.5440499 25.6130149,0.6325687 25.4354277,0.7604895 25.288547,0.9222215 25.1787922,1.1106962 25.1109599,1.3176764 25.0880149,1.534116 25.1109599,1.7505556 25.1787922,1.9575358 25.288547,2.1460105 25.4354277,2.3077425 25.6130149,2.4356632 25.813547,2.5241821 26.02826,2.5694303 26.2477698,2.5694303 26.4624827,2.5241821 26.6630149,2.4356632 26.840602,2.3077425 26.9874827,2.1460105 27.0972376,1.9575358 27.1650699,1.7505556 27.1880149,1.534116z" fill="rgb(255,255,255)" shaper:cutDepth="0" shaper:pathType="interior" stroke="rgb(0,0,0)" stroke-width="2" transform="matrix(1,0,0,-1,0,2.64)" vector-effect="non-scaling-stroke" /><path d="M29.6380149,1.0177607 L29.6380149,1.0177607 29.5232099,1.040927 29.4258828,1.1068992 29.360851,1.2056336 29.3380149,1.3220987 29.360851,1.4385639 29.4258828,1.5372982 29.5232099,1.6032704 29.6380149,1.6264368 29.7528199,1.6032704 29.8501469,1.5372982 29.9151787,1.4385639 29.9380149,1.3220987 29.9151787,1.2056336 29.8501469,1.1068992 29.7528199,1.040927 29.6380149,1.0177607z" fill="rgb(255,255,255)" shaper:cutDepth="0" shaper:pathType="interior" stroke="rgb(0,0,0)" stroke-width="2" transform="matrix(1,0,0,-1,0,2.64)" vector-effect="non-scaling-stroke" /><path d="M2.2880149,1.2671365 L2.2880149,1.2671365 2.2651787,1.1546246 2.2001469,1.0592417 2.1028199,0.9955089 1.9880149,0.9731289 1.8732099,0.9955089 1.7758828,1.0592417 1.710851,1.1546246 1.6880149,1.2671365 1.710851,1.3796483 1.7758828,1.4750312 1.8732099,1.5387641 1.9880149,1.5611441 2.1028199,1.5387641 2.2001469,1.4750312 2.2651787,1.3796483 2.2880149,1.2671365z" fill="rgb(255,255,255)" shaper:cutDepth="0" shaper:pathType="interior" stroke="rgb(0,0,0)" stroke-width="2" transform="matrix(1,0,0,-1,0,2.64)" vector-effect="non-scaling-stroke" /></svg>