<?xml version="1.0" encoding="utf-8"?>
<!-- Generator: Fusion 360, Shaper Origin Export Add-In, Version 1.4.1  -->
<svg enable-background="new 0 0 10.2298331 41.254549" height="41.254549cm" shaper:fusionaddin="version:1.4.1" version="1.1" viewBox="0 0 10.2298331 41.254549" width="10.2298331cm" x="0cm" xml:space="preserve" xmlns="http://www.w3.org/2000/svg" xmlns:shaper="http://www.shapertools.com/namespaces/shaper" xmlns:xlink="http://www.w3.org/1999/xlink" y="0cm"><path d="M-15.3290363,6.735764 A1.4,1.4 225.3688688 0,1 -13.062838,8.2931615 A7.7988357,7.7988357 203.6271002 0,0 -13.0096545,14.6632969 L-16.4096545,47.990313 A9.35932,9.35932 106.0884309 0,1 -21.2392154,33.297317 A5.6140258,5.6140258 37.5203698 0,0 -20.678284,32.4041714 A13.0006853,13.0006853 26.7405806 0,0 -19.3605298,25.1821833 A4.4822508,4.4822508 354.9746552 0,0 -19.5000003,24.4000004 A19.0734518,19.0734518 164.6042754 0,1 -19.9971814,16.6701175 A15.8941385,15.8941385 184.968722 0,1 -15.3290363,6.735764z" fill="none" shaper:cutDepth="0" shaper:pathType="guide" stroke="rgb(100,100,100)" stroke-width="2" transform="matrix(1,0,0,-1,23.1753137,47.990313)" vector-effect="non-scaling-stroke" /></svg>