<?xml version="1.0" encoding="utf-8"?>
<!-- Generator: Fusion 360, Shaper Origin Export Add-In, Version 1.4.1  -->
<svg enable-background="new 0 0 35.7488423 38.3500006" height="38.3500006cm" shaper:fusionaddin="version:1.4.1" version="1.1" viewBox="0 0 35.7488423 38.3500006" width="35.7488423cm" x="0cm" xml:space="preserve" xmlns="http://www.w3.org/2000/svg" xmlns:shaper="http://www.shapertools.com/namespaces/shaper" xmlns:xlink="http://www.w3.org/1999/xlink" y="0cm"><path d="M-16.8000003,-47.6000007 A9.0652384,9.0652384 250.7777263 0,0 -19.6423308,-32.0956956 A5.6890326,5.6890326 309.9625827 0,1 -18.2575923,-25.0939921 A12.5277752,12.5277752 210.1367012 0,0 -15.7000002,-9.4000001 A0.75,0.75 126.8698976 0,0 -14.5000002,-10.0000001 A3.6752011,3.6752011 156.3125373 0,1 -13.0671068,-14.6025025 L-16.8000003,-47.6000007z" fill="none" shaper:cutDepth="0" shaper:pathType="guide" stroke="rgb(100,100,100)" stroke-width="2" transform="matrix(1,0,0,-1,22.8806562,-9.2500001)" vector-effect="non-scaling-stroke" /><path d="M10.5,-45.5 A9.1790312,9.1790312 317.9021014 0,1 10.7902859,-33.5301512 A12.6201054,12.6201054 217.7662523 0,0 8.6874739,-22.1459618 A10.1944347,10.1944347 341.3853819 0,1 5.6000001,-11.1000002 A0.5676462,0.5676462 40.2363583 0,1 4.6000001,-11.5000002 A3.621467,3.621467 349.8233318 0,0 1.8,-14.4000002 L5.1000001,-47.5000007 A11.2738423,11.2738423 275.526398 0,1 10.5,-45.5z" fill="none" shaper:cutDepth="0" shaper:pathType="guide" stroke="rgb(100,100,100)" stroke-width="2" transform="matrix(1,0,0,-1,22.8806562,-9.2500001)" vector-effect="non-scaling-stroke" /><path d="M-14.3852258,-22.8839925 L-19.055437,-22.3556675 -18.1561605,-14.4063718 -13.4859493,-14.9346968 -14.3852258,-22.8839925z" fill="none" shaper:cutDepth="0" shaper:pathType="guide" stroke="rgb(100,100,100)" stroke-width="2" transform="matrix(1,0,0,-1,22.8806562,-9.2500001)" vector-effect="non-scaling-stroke" /></svg>