<?xml version="1.0" encoding="utf-8"?>
<!-- Generator: Fusion 360, Shaper Origin Export Add-In, Version 1.4.1  -->
<svg enable-background="new 0 0 1.4 1.4" height="1.4cm" shaper:fusionaddin="version:1.4.1" version="1.1" viewBox="0 0 1.4 1.4" width="1.4cm" x="0cm" xml:space="preserve" xmlns="http://www.w3.org/2000/svg" xmlns:shaper="http://www.shapertools.com/namespaces/shaper" xmlns:xlink="http://www.w3.org/1999/xlink" y="0cm"><path d="M1.36,0.06 L1.36,1.46 0.16,1.46 0.16,0.06 1.36,0.06z" fill="none" shaper:cutDepth="0" shaper:pathType="guide" stroke="rgb(100,100,100)" stroke-width="2" transform="matrix(1,0,0,-1,-0.06,1.46)" vector-effect="non-scaling-stroke" /><path d="M0.31,0.41 a0.05,0.05 0 1,1 0.1,0 a0.05,0.05 0 1,1 -0.1,0z" fill="none" shaper:cutDepth="0" shaper:pathType="guide" stroke="rgb(100,100,100)" stroke-width="2" transform="matrix(1,0,0,-1,-0.06,1.46)" vector-effect="non-scaling-stroke" /><path d="M1.01,0.16 a0.05,0.05 0 1,1 0.1,0 a0.05,0.05 0 1,1 -0.1,0z" fill="none" shaper:cutDepth="0" shaper:pathType="guide" stroke="rgb(100,100,100)" stroke-width="2" transform="matrix(1,0,0,-1,-0.06,1.46)" vector-effect="non-scaling-stroke" /><path d="M1.36,0.06 L1.46,0.06 1.46,1.46 1.36,1.46 0.16,1.46 0.06,1.46 0.06,0.06 0.16,0.06 1.36,0.06z" fill="none" shaper:cutDepth="0" shaper:pathType="guide" stroke="rgb(100,100,100)" stroke-width="2" transform="matrix(1,0,0,-1,-0.06,1.46)" vector-effect="non-scaling-stroke" /><path d="M1.36,0.06 L1.46,0.06 1.46,1.46" fill="none" shaper:cutDepth="0" shaper:pathType="guide" stroke="rgb(100,100,100)" stroke-width="2" transform="matrix(1,0,0,-1,-0.06,1.46)" vector-effect="non-scaling-stroke" /><path d="M0.54,0.76 a0.22,0.22 0 1,1 0.44,0 a0.22,0.22 0 1,1 -0.44,0z" fill="none" shaper:cutDepth="0" shaper:pathType="guide" stroke="rgb(100,100,100)" stroke-width="2" transform="matrix(1,0,0,-1,-0.06,1.46)" vector-effect="non-scaling-stroke" /></svg>