<?xml version="1.0" encoding="UTF-8" standalone="no"?>
<!-- Generator: Fusion 360, Shaper Origin Export Add-In, Version 1.4.1  -->

<svg
   xmlns:shaper="http://www.shapertools.com/namespaces/shaper"
   xmlns:dc="http://purl.org/dc/elements/1.1/"
   xmlns:cc="http://creativecommons.org/ns#"
   xmlns:rdf="http://www.w3.org/1999/02/22-rdf-syntax-ns#"
   xmlns:svg="http://www.w3.org/2000/svg"
   xmlns="http://www.w3.org/2000/svg"
   xmlns:sodipodi="http://sodipodi.sourceforge.net/DTD/sodipodi-0.dtd"
   xmlns:inkscape="http://www.inkscape.org/namespaces/inkscape"
   enable-background="new 0 0 36.2772358 5.8877775"
   height="5.8877775cm"
   shaper:fusionaddin="version:1.4.1"
   version="1.1"
   viewBox="0 0 36.2772358 5.8877775"
   width="36.2772358cm"
   x="0cm"
   xml:space="preserve"
   y="0cm"
   id="svg14"
   sodipodi:docname="layer4_1.svg"
   inkscape:version="0.92.2 (5c3e80d, 2017-08-06)"><metadata
     id="metadata20"><rdf:RDF><cc:Work
         rdf:about=""><dc:format>image/svg+xml</dc:format><dc:type
           rdf:resource="http://purl.org/dc/dcmitype/StillImage" /></cc:Work></rdf:RDF></metadata><defs
     id="defs18" /><sodipodi:namedview
     pagecolor="#ffffff"
     bordercolor="#666666"
     borderopacity="1"
     objecttolerance="10"
     gridtolerance="10"
     guidetolerance="10"
     inkscape:pageopacity="0"
     inkscape:pageshadow="2"
     inkscape:window-width="2560"
     inkscape:window-height="1537"
     id="namedview16"
     showgrid="false"
     inkscape:zoom="0.91604735"
     inkscape:cx="489.26849"
     inkscape:cy="245.84146"
     inkscape:window-x="1432"
     inkscape:window-y="757"
     inkscape:window-maximized="1"
     inkscape:current-layer="svg14" /><path
     d="M0.2216955,0.5 A5.2769293,5.2769293 43.4094808 0,1 -1.902415,1.8660504 A2.4902952,2.4902952 224.6858392 0,0 -1.1548091,5.8877775 L-3.3710509,5.4544524 A15.5350318,15.5350318 117.9528884 0,1 -5.5291749,4.0696592 A1.4,1.4 127.4208743 0,1 -4.4366862,1.5788203 A4.7769293,4.7769293 99.9438998 0,0 -0,0 L30.1987922,0 29.5925065,0.5 0.2216955,0.5z"
     fill="rgb(0,0,0)"
     shaper:cutDepth="0"
     shaper:pathType="exterior"
     transform="matrix(1,0,0,-1,6.0784435,5.8877775)"
     vector-effect="non-scaling-stroke"
     id="path2"
     style="fill:none;stroke:#000000;stroke-opacity:1" /><path
     d="M3.1041142,0.3780803 L2.9762537,0.2289099 3.0877356,0.2175366 3.1041142,0.3780803z"
     fill="rgb(0,0,0)"
     shaper:cutDepth="0"
     shaper:pathType="exterior"
     transform="matrix(1,0,0,-1,6.0784435,5.8877775)"
     vector-effect="non-scaling-stroke"
     id="path4"
     style="fill:none;stroke:#ff0000;stroke-opacity:1" /><path
     d="M-4.9284435,2.9577886 a0.25,0.25 0 1,1 0.5,0 a0.25,0.25 0 1,1 -0.5,0z"
     fill="rgb(255,255,255)"
     shaper:cutDepth="0"
     shaper:pathType="interior"
     stroke="rgb(0,0,0)"
     stroke-width="2"
     transform="matrix(1,0,0,-1,6.0784435,5.8877775)"
     vector-effect="non-scaling-stroke"
     id="path6"
     style="fill:none;stroke:#000000;stroke-opacity:1" /><path
     d="M3.5226196,0.4077799 L3.5507937,0.4049056 3.5143198,0.0473864 3.4706014,0.0518465 3.4990223,0.3304298 3.4990223,0.3304298 3.4545387,0.3045374 3.4545387,0.3045374 3.4062086,0.2866451 3.41052,0.3289062 3.41052,0.3289062 3.4789022,0.36414 3.4789022,0.36414 3.5226196,0.4077799z"
     fill="rgb(255,255,255)"
     shaper:cutDepth="0"
     shaper:pathType="interior"
     stroke="rgb(0,0,0)"
     stroke-width="2"
     transform="matrix(1,0,0,-1,6.0784435,5.8877775)"
     vector-effect="non-scaling-stroke"
     id="path8"
     style="fill:none;stroke:#ff0000;stroke-opacity:1" /><path
     d="M3.2908493,0.1204933 L3.2857698,0.0707029 3.2359794,0.0757825 3.241059,0.1255728 3.2908493,0.1204933z"
     fill="rgb(255,255,255)"
     shaper:cutDepth="0"
     shaper:pathType="interior"
     stroke="rgb(0,0,0)"
     stroke-width="2"
     transform="matrix(1,0,0,-1,6.0784435,5.8877775)"
     vector-effect="non-scaling-stroke"
     id="path10"
     style="fill:none;stroke:#ff0000;stroke-opacity:1" /><path
     d="M3.1273656,0.1730013 L3.1186684,0.0877504 3.07495,0.0922106 3.0836472,0.1774614 2.9291755,0.1932205 2.933264,0.2332957 3.1192902,0.4474549 3.1549936,0.4438125 3.131454,0.2130765 3.1795443,0.2081704 3.1754558,0.1680952 3.1273656,0.1730013z"
     fill="rgb(255,255,255)"
     shaper:cutDepth="0"
     shaper:pathType="interior"
     stroke="rgb(0,0,0)"
     stroke-width="2"
     transform="matrix(1,0,0,-1,6.0784435,5.8877775)"
     vector-effect="non-scaling-stroke"
     id="path12"
     style="fill:none;stroke:#ff0000;stroke-opacity:1" /></svg>