<?xml version="1.0" encoding="UTF-8" standalone="no"?>
<!-- Generator: Fusion 360, Shaper Origin Export Add-In, Version 1.4.1  -->

<svg
   xmlns:shaper="http://www.shapertools.com/namespaces/shaper"
   xmlns:dc="http://purl.org/dc/elements/1.1/"
   xmlns:cc="http://creativecommons.org/ns#"
   xmlns:rdf="http://www.w3.org/1999/02/22-rdf-syntax-ns#"
   xmlns:svg="http://www.w3.org/2000/svg"
   xmlns="http://www.w3.org/2000/svg"
   xmlns:sodipodi="http://sodipodi.sourceforge.net/DTD/sodipodi-0.dtd"
   xmlns:inkscape="http://www.inkscape.org/namespaces/inkscape"
   enable-background="new 0 0 21.6490757 3.5706967"
   height="3.5706967cm"
   shaper:fusionaddin="version:1.4.1"
   version="1.1"
   viewBox="0 0 21.6490757 3.5706967"
   width="21.6490757cm"
   x="0cm"
   xml:space="preserve"
   y="0cm"
   id="svg14"
   sodipodi:docname="layer4_6.svg"
   inkscape:version="0.92.2 (5c3e80d, 2017-08-06)"><metadata
     id="metadata20"><rdf:RDF><cc:Work
         rdf:about=""><dc:format>image/svg+xml</dc:format><dc:type
           rdf:resource="http://purl.org/dc/dcmitype/StillImage" /></cc:Work></rdf:RDF></metadata><defs
     id="defs18" /><sodipodi:namedview
     pagecolor="#ffffff"
     bordercolor="#666666"
     borderopacity="1"
     objecttolerance="10"
     gridtolerance="10"
     guidetolerance="10"
     inkscape:pageopacity="0"
     inkscape:pageshadow="2"
     inkscape:window-width="2560"
     inkscape:window-height="1537"
     id="namedview16"
     showgrid="false"
     inkscape:zoom="1.5350154"
     inkscape:cx="434.71447"
     inkscape:cy="104.00225"
     inkscape:window-x="1432"
     inkscape:window-y="757"
     inkscape:window-maximized="1"
     inkscape:current-layer="svg14" /><path
     d="M4.6345245,0.1725682 A13.0006853,13.0006853 276.0592375 0,0 1.1417239,0.2740355 L0,0 A13.5006074,13.5006074 256.0179795 0,1 4.240427,-0.3644988 A9.0103785,9.0103785 274.1059727 0,1 5.824905,-0.1074047 A18.5628351,18.5628351 104.5246753 0,0 12.9014669,0.327308 A15.3941385,15.3941385 85.7848509 0,0 20.8227371,-2.5742113 L21.6490757,-2.5742113 A15.8941385,15.8941385 51.5701036 0,1 13.1465903,0.8092198 A19.0734518,19.0734518 81.9645924 0,1 5.4167074,0.3120387 A4.4822508,4.4822508 285.1948914 0,0 4.6345245,0.1725682z"
     fill="rgb(0,0,0)"
     shaper:cutDepth="0"
     shaper:pathType="exterior"
     transform="matrix(1,0,0,-1,0,0.9964854)"
     vector-effect="non-scaling-stroke"
     id="path2"
     style="fill:none;stroke:#000000;stroke-opacity:1" /><path
     d="M9.4219943,0.6888654 L9.4219943,0.6888654 9.4725314,0.7102277 9.4725314,0.7102277 9.4885403,0.7361016 9.4932834,0.766258 9.4932834,0.766258 9.4836398,0.809715 9.4836398,0.809715 9.4566623,0.8413313 9.4566623,0.8413313 9.4202853,0.8521955 9.4202853,0.8521955 9.3724337,0.8297346 9.3724337,0.8297346 9.3567222,0.8011685 9.3524142,0.7686994 9.3524142,0.7686994 9.3721896,0.7102277 9.3721896,0.7102277 9.4219943,0.6888654z"
     fill="rgb(0,0,0)"
     shaper:cutDepth="0"
     shaper:pathType="exterior"
     transform="matrix(1,0,0,-1,0,0.9964854)"
     vector-effect="non-scaling-stroke"
     id="path4"
     style="fill:none;stroke:#ff0000;stroke-opacity:1" /><path
     d="M9.8179904,0.5948713 L9.9300509,0.7562482 9.8179904,0.7562482 9.8179904,0.5948713z"
     fill="rgb(0,0,0)"
     shaper:cutDepth="0"
     shaper:pathType="exterior"
     transform="matrix(1,0,0,-1,0,0.9964854)"
     vector-effect="non-scaling-stroke"
     id="path6"
     style="fill:none;stroke:#ff0000;stroke-opacity:1" /><path
     d="M9.7740451,0.7965314 L9.7740451,0.8822248 9.8179904,0.8822248 9.8179904,0.7965314 9.9732638,0.7965314 9.9732638,0.7562482 9.8099337,0.5243146 9.7740451,0.5243146 9.7740451,0.7562482 9.7257052,0.7562482 9.7257052,0.7965314 9.7740451,0.7965314z"
     fill="rgb(255,255,255)"
     shaper:cutDepth="0"
     shaper:pathType="interior"
     stroke="rgb(0,0,0)"
     stroke-width="2"
     transform="matrix(1,0,0,-1,0,0.9964854)"
     vector-effect="non-scaling-stroke"
     id="path8"
     style="fill:none;stroke:#ff0000;stroke-opacity:1" /><path
     d="M9.6060763,0.832176 L9.6060763,0.8822248 9.6561252,0.8822248 9.6561252,0.832176 9.6060763,0.832176z"
     fill="rgb(255,255,255)"
     shaper:cutDepth="0"
     shaper:pathType="interior"
     stroke="rgb(0,0,0)"
     stroke-width="2"
     transform="matrix(1,0,0,-1,0,0.9964854)"
     vector-effect="non-scaling-stroke"
     id="path10"
     style="fill:none;stroke:#ff0000;stroke-opacity:1" /><path
     d="M9.4154025,0.5228498 L9.4154025,0.5228498 9.3785259,0.528234 9.3461886,0.5465314 9.3461886,0.5465314 9.3238981,0.5761595 9.31384,0.6119611 9.3575412,0.6153791 9.3575412,0.6153791 9.3741427,0.5777814 9.3741427,0.5777814 9.418088,0.5589826 9.418088,0.5589826 9.4549533,0.5707014 9.4549533,0.5707014 9.4876681,0.6148908 9.4876681,0.6148908 9.5001193,0.6976545 9.5001193,0.6976545 9.4613009,0.6617658 9.4613009,0.6617658 9.4132052,0.6500471 9.4132052,0.6500471 9.3723394,0.6582145 9.3383761,0.6823957 9.3383761,0.6823957 9.3146199,0.721062 9.3074923,0.7660139 9.3074923,0.7660139 9.3220187,0.8286359 9.3220187,0.8286359 9.3619357,0.8729475 9.3619357,0.8729475 9.4195529,0.8883283 9.4195529,0.8883283 9.4690157,0.8784092 9.5091525,0.847923 9.5091525,0.847923 9.5378615,0.7846092 9.5438205,0.7147443 9.5438205,0.7147443 9.5371039,0.6358249 9.5054904,0.5638654 9.5054904,0.5638654 9.4653597,0.5326982 9.4154025,0.5228498z"
     fill="rgb(255,255,255)"
     shaper:cutDepth="0"
     shaper:pathType="interior"
     stroke="rgb(0,0,0)"
     stroke-width="2"
     transform="matrix(1,0,0,-1,0,0.9964854)"
     vector-effect="non-scaling-stroke"
     id="path12"
     style="fill:none;stroke:#ff0000;stroke-opacity:1" /></svg>