<?xml version="1.0" encoding="UTF-8" standalone="no"?>
<!-- Generator: Fusion 360, Shaper Origin Export Add-In, Version 1.4.1  -->

<svg
   xmlns:shaper="http://www.shapertools.com/namespaces/shaper"
   xmlns:dc="http://purl.org/dc/elements/1.1/"
   xmlns:cc="http://creativecommons.org/ns#"
   xmlns:rdf="http://www.w3.org/1999/02/22-rdf-syntax-ns#"
   xmlns:svg="http://www.w3.org/2000/svg"
   xmlns="http://www.w3.org/2000/svg"
   xmlns:sodipodi="http://sodipodi.sourceforge.net/DTD/sodipodi-0.dtd"
   xmlns:inkscape="http://www.inkscape.org/namespaces/inkscape"
   enable-background="new 0 0 20.319441 7.6917505"
   height="7.6917505cm"
   shaper:fusionaddin="version:1.4.1"
   version="1.1"
   viewBox="0 0 20.319441 7.6917505"
   width="20.319441cm"
   x="0cm"
   xml:space="preserve"
   y="0cm"
   id="svg12"
   sodipodi:docname="layer5_4.svg"
   inkscape:version="0.92.2 (5c3e80d, 2017-08-06)"><metadata
     id="metadata18"><rdf:RDF><cc:Work
         rdf:about=""><dc:format>image/svg+xml</dc:format><dc:type
           rdf:resource="http://purl.org/dc/dcmitype/StillImage" /></cc:Work></rdf:RDF></metadata><defs
     id="defs16" /><sodipodi:namedview
     pagecolor="#ffffff"
     bordercolor="#666666"
     borderopacity="1"
     objecttolerance="10"
     gridtolerance="10"
     guidetolerance="10"
     inkscape:pageopacity="0"
     inkscape:pageshadow="2"
     inkscape:window-width="2560"
     inkscape:window-height="1537"
     id="namedview14"
     showgrid="false"
     inkscape:zoom="1.156446"
     inkscape:cx="302.27034"
     inkscape:cy="180.54062"
     inkscape:window-x="1432"
     inkscape:window-y="757"
     inkscape:window-maximized="1"
     inkscape:current-layer="svg12" /><path
     d="M10.3381671,0.5 L9.3483308,0.5 A0.4713873,0.4713873 270 0,0 8.971298,1.2543223 A8.816641,8.816641 143.1145048 0,0 17.4810816,4.6576839 A13.5006074,13.5006074 260.4828553 0,1 18.9197961,4.4952038 L20.319441,4.9859529 A13.0006853,13.0006853 272.6712549 0,0 15.0724253,5.8284647 A5.6140258,5.6140258 249.0845433 0,0 14.1269614,6.2958519 A9.35932,9.35932 58.3047541 0,1 8.7901446,7.682348 A13.805069,13.805069 121.5983525 0,1 8.572149,7.5454269 A22.7836259,22.7836259 302.6667849 0,0 2.4351208,4.7902769 A9.35932,9.35932 136.3706046 0,1 -0,0 L9.5472151,-0 10.3381671,0.5z"
     fill="rgb(0,0,0)"
     shaper:cutDepth="0"
     shaper:pathType="exterior"
     transform="matrix(1,0,0,-1,0,7.6917505)"
     vector-effect="non-scaling-stroke"
     id="path2"
     style="fill:none;stroke:#000000;stroke-opacity:1" /><path
     d="M7.6059501,0.9118011 L7.4340331,1.0069044 7.4454064,0.8954225 7.6059501,0.9118011z"
     fill="rgb(0,0,0)"
     shaper:cutDepth="0"
     shaper:pathType="exterior"
     transform="matrix(1,0,0,-1,0,7.6917505)"
     vector-effect="non-scaling-stroke"
     id="path4"
     style="fill:none;stroke:#ff0000;stroke-opacity:1" /><path
     d="M7.2690602,1.3226016 L7.2690602,1.3226016 7.2709082,1.3655056 7.2881726,1.4046771 7.2881726,1.4046771 7.318252,1.4326055 7.3567275,1.4471325 7.3652967,1.4016246 7.3652967,1.4016246 7.317315,1.3728023 7.317315,1.3728023 7.3050065,1.3262688 7.3050065,1.3262688 7.314027,1.2975616 7.33426,1.2752635 7.33426,1.2752635 7.3653962,1.2612649 7.3996388,1.2598467 7.3996388,1.2598467 7.4308571,1.2676897 7.4565153,1.286877 7.4565153,1.286877 7.4705279,1.3137582 7.4725193,1.3440946 7.4725193,1.3440946 7.4590353,1.381248 7.4590353,1.381248 7.4314145,1.405425 7.4325703,1.4470168 7.6189775,1.4311861 7.637041,1.2541266 7.5952656,1.2498647 7.5807702,1.3919495 7.483118,1.4013743 7.483118,1.4013743 7.5123266,1.3363761 7.5123266,1.3363761 7.5087199,1.2928429 7.4880518,1.2543875 7.4880518,1.2543875 7.4523688,1.2259522 7.4082576,1.2138531 7.4082576,1.2138531 7.3632989,1.2161137 7.3218326,1.2335034 7.3218326,1.2335034 7.2847216,1.2716268 7.2690602,1.3226016z"
     fill="rgb(255,255,255)"
     shaper:cutDepth="0"
     shaper:pathType="interior"
     stroke="rgb(0,0,0)"
     stroke-width="2"
     transform="matrix(1,0,0,-1,0,7.6917505)"
     vector-effect="non-scaling-stroke"
     id="path6"
     style="fill:none;stroke:#ff0000;stroke-opacity:1" /><path
     d="M7.3490569,1.0917356 L7.2992665,1.086656 7.2941869,1.1364464 7.3439773,1.141526 7.3490569,1.0917356z"
     fill="rgb(255,255,255)"
     shaper:cutDepth="0"
     shaper:pathType="interior"
     stroke="rgb(0,0,0)"
     stroke-width="2"
     transform="matrix(1,0,0,-1,0,7.6917505)"
     vector-effect="non-scaling-stroke"
     id="path8"
     style="fill:none;stroke:#ff0000;stroke-opacity:1" /><path
     d="M7.4097913,0.8476157 L7.3245405,0.8389184 7.3200804,0.8826368 7.4053312,0.8913341 7.3895721,1.0458057 7.4296473,1.0498942 7.6769601,0.910947 7.6806025,0.8752437 7.4498665,0.8517041 7.4547727,0.8036139 7.4146975,0.7995254 7.4097913,0.8476157z"
     fill="rgb(255,255,255)"
     shaper:cutDepth="0"
     shaper:pathType="interior"
     stroke="rgb(0,0,0)"
     stroke-width="2"
     transform="matrix(1,0,0,-1,0,7.6917505)"
     vector-effect="non-scaling-stroke"
     id="path10"
     style="fill:none;stroke:#ff0000;stroke-opacity:1" /></svg>