<?xml version="1.0" encoding="UTF-8" standalone="no"?>
<!-- Generator: Fusion 360, Shaper Origin Export Add-In, Version 1.4.1  -->

<svg
   xmlns:shaper="http://www.shapertools.com/namespaces/shaper"
   xmlns:dc="http://purl.org/dc/elements/1.1/"
   xmlns:cc="http://creativecommons.org/ns#"
   xmlns:rdf="http://www.w3.org/1999/02/22-rdf-syntax-ns#"
   xmlns:svg="http://www.w3.org/2000/svg"
   xmlns="http://www.w3.org/2000/svg"
   xmlns:sodipodi="http://sodipodi.sourceforge.net/DTD/sodipodi-0.dtd"
   xmlns:inkscape="http://www.inkscape.org/namespaces/inkscape"
   enable-background="new 0 0 30.947442 4.2447468"
   height="4.2447468cm"
   shaper:fusionaddin="version:1.4.1"
   version="1.1"
   viewBox="0 0 30.947442 4.2447468"
   width="30.947442cm"
   x="0cm"
   xml:space="preserve"
   y="0cm"
   id="svg4"
   sodipodi:docname="layer8_5.svg"
   inkscape:version="0.92.2 (5c3e80d, 2017-08-06)"><metadata
     id="metadata10"><rdf:RDF><cc:Work
         rdf:about=""><dc:format>image/svg+xml</dc:format><dc:type
           rdf:resource="http://purl.org/dc/dcmitype/StillImage" /></cc:Work></rdf:RDF></metadata><defs
     id="defs8" /><sodipodi:namedview
     pagecolor="#ffffff"
     bordercolor="#666666"
     borderopacity="1"
     objecttolerance="10"
     gridtolerance="10"
     guidetolerance="10"
     inkscape:pageopacity="0"
     inkscape:pageshadow="2"
     inkscape:window-width="2560"
     inkscape:window-height="1537"
     id="namedview6"
     showgrid="false"
     inkscape:zoom="1.0738098"
     inkscape:cx="540.43672"
     inkscape:cy="57.856638"
     inkscape:window-x="1432"
     inkscape:window-y="757"
     inkscape:window-maximized="1"
     inkscape:current-layer="svg4" /><path
     d="M22.7875785,0 A7.7988357,7.7988357 120.4089131 0,0 29.1194226,0.6994301 A1.4,1.4 252.1980237 0,1 30.4387761,3.1119907 A15.8941385,15.8941385 50.4562551 0,1 28.8839128,4.2447468 L28.4785614,4.2033932 A15.6441385,15.6441385 58.5643166 0,0 30.2796093,2.919206 A1.15,1.15 50.4562551 0,0 29.1958547,0.9374598 A8.0488357,8.0488357 72.1980237 0,1 22.720209,0.25 L0.395476,0.25 -0,-0 22.7875785,-0z"
     fill="rgb(0,0,0)"
     shaper:cutDepth="0"
     shaper:pathType="exterior"
     transform="matrix(1,0,0,-1,0,4.2447468)"
     vector-effect="non-scaling-stroke"
     id="path2"
     style="fill:none;stroke:#000000;stroke-opacity:1" /></svg>