<?xml version="1.0" encoding="UTF-8" standalone="no"?>
<!-- Generator: Fusion 360, Shaper Origin Export Add-In, Version 1.4.1  -->

<svg
   xmlns:shaper="http://www.shapertools.com/namespaces/shaper"
   xmlns:dc="http://purl.org/dc/elements/1.1/"
   xmlns:cc="http://creativecommons.org/ns#"
   xmlns:rdf="http://www.w3.org/1999/02/22-rdf-syntax-ns#"
   xmlns:svg="http://www.w3.org/2000/svg"
   xmlns="http://www.w3.org/2000/svg"
   xmlns:sodipodi="http://sodipodi.sourceforge.net/DTD/sodipodi-0.dtd"
   xmlns:inkscape="http://www.inkscape.org/namespaces/inkscape"
   enable-background="new 0 0 36.2955849 4.2935754"
   height="4.2935754cm"
   shaper:fusionaddin="version:1.4.1"
   version="1.1"
   viewBox="0 0 36.2955849 4.2935754"
   width="36.2955849cm"
   x="0cm"
   xml:space="preserve"
   y="0cm"
   id="svg12"
   sodipodi:docname="layer5_1.svg"
   inkscape:version="0.92.2 (5c3e80d, 2017-08-06)"><metadata
     id="metadata18"><rdf:RDF><cc:Work
         rdf:about=""><dc:format>image/svg+xml</dc:format><dc:type
           rdf:resource="http://purl.org/dc/dcmitype/StillImage" /></cc:Work></rdf:RDF></metadata><defs
     id="defs16" /><sodipodi:namedview
     pagecolor="#ffffff"
     bordercolor="#666666"
     borderopacity="1"
     objecttolerance="10"
     gridtolerance="10"
     guidetolerance="10"
     inkscape:pageopacity="0"
     inkscape:pageshadow="2"
     inkscape:window-width="2560"
     inkscape:window-height="1537"
     id="namedview14"
     showgrid="false"
     inkscape:zoom="0.91558425"
     inkscape:cx="610.36039"
     inkscape:cy="216.73618"
     inkscape:window-x="1432"
     inkscape:window-y="757"
     inkscape:window-maximized="1"
     inkscape:current-layer="svg12" /><path
     d="M0.2216955,0.5 A5.2769293,5.2769293 43.4094808 0,1 -1.902415,1.8660504 L-2.7955849,1.5803366 A4.7769293,4.7769293 80.1619717 0,0 0,0 L33.5,0 A11.322979,11.322979 10.3947708 0,1 31.935453,4.0047461 L31.1369476,4.2935754 A3.0811122,3.0811122 19.5056357 0,0 29.5925065,0.5 L0.2216955,0.5z"
     fill="rgb(0,0,0)"
     shaper:cutDepth="0"
     shaper:pathType="exterior"
     transform="matrix(1,0,0,-1,2.7955849,4.2935754)"
     vector-effect="non-scaling-stroke"
     id="path2"
     style="fill:none;stroke:#000000;stroke-opacity:1" /><path
     d="M3.0478231,0.0866323 L3.0478231,0.0866323 3.0061762,0.0971061 2.971298,0.121925 2.971298,0.121925 2.9500191,0.1570245 2.9435611,0.1976409 2.9898618,0.1968438 2.9898618,0.1968438 3.0084011,0.1440303 3.0084011,0.1440303 3.0514903,0.1225786 3.0514903,0.1225786 3.0814277,0.1256162 3.1073522,0.1409295 3.1073522,0.1409295 3.12735,0.1685974 3.1356538,0.2018483 3.1356538,0.2018483 3.1342765,0.2340072 3.1206659,0.2630114 3.1206659,0.2630114 3.0971681,0.2821636 3.0678588,0.2902401 3.0678588,0.2902401 3.0287479,0.2845365 3.0287479,0.2845365 2.9994913,0.262367 2.9589898,0.2718979 3.0121369,0.4512679 3.1891964,0.4332044 3.1849345,0.3914291 3.0428497,0.4059245 3.0138995,0.3121873 3.0138995,0.3121873 3.0834568,0.3276686 3.0834568,0.3276686 3.1253649,0.3153452 3.1588544,0.2873374 3.1588544,0.2873374 3.1794982,0.2466473 3.1824403,0.2010017 3.1824403,0.2010017 3.1711475,0.1574256 3.1457425,0.1203253 3.1457425,0.1203253 3.1009104,0.0916773 3.0478231,0.0866323z"
     fill="rgb(255,255,255)"
     shaper:cutDepth="0"
     shaper:pathType="interior"
     stroke="rgb(0,0,0)"
     stroke-width="2"
     transform="matrix(1,0,0,-1,2.7955849,4.2935754)"
     vector-effect="non-scaling-stroke"
     id="path4"
     style="fill:none;stroke:#ff0000;stroke-opacity:1" /><path
     d="M3.5218575,0.4056472 L3.5500316,0.4027729 3.5135577,0.0452536 3.4698393,0.0497137 3.4982602,0.328297 3.4982602,0.328297 3.4537766,0.3024046 3.4537766,0.3024046 3.4054465,0.2845123 3.4097579,0.3267734 3.4097579,0.3267734 3.4781401,0.3620073 3.4781401,0.3620073 3.5218575,0.4056472z"
     fill="rgb(255,255,255)"
     shaper:cutDepth="0"
     shaper:pathType="interior"
     stroke="rgb(0,0,0)"
     stroke-width="2"
     transform="matrix(1,0,0,-1,2.7955849,4.2935754)"
     vector-effect="non-scaling-stroke"
     id="path6"
     style="fill:none;stroke:#ff0000;stroke-opacity:1" /><path
     d="M3.2900872,0.1183605 L3.2850077,0.0685701 3.2352173,0.0736497 3.2402969,0.1234401 3.2900872,0.1183605z"
     fill="rgb(255,255,255)"
     shaper:cutDepth="0"
     shaper:pathType="interior"
     stroke="rgb(0,0,0)"
     stroke-width="2"
     transform="matrix(1,0,0,-1,2.7955849,4.2935754)"
     vector-effect="non-scaling-stroke"
     id="path8"
     style="fill:none;stroke:#ff0000;stroke-opacity:1" /><path
     d="M31.4164356,1.324495 a0.25,0.25 0 1,1 0.5,0 a0.25,0.25 0 1,1 -0.5,0z"
     fill="rgb(255,255,255)"
     shaper:cutDepth="0"
     shaper:pathType="interior"
     stroke="rgb(0,0,0)"
     stroke-width="2"
     transform="matrix(1,0,0,-1,2.7955849,4.2935754)"
     vector-effect="non-scaling-stroke"
     id="path10"
     style="fill:none;stroke:#000000;stroke-opacity:1" /></svg>