<?xml version="1.0" encoding="UTF-8" standalone="no"?>
<!-- Generator: Fusion 360, Shaper Origin Export Add-In, Version 1.4.1  -->

<svg
   xmlns:shaper="http://www.shapertools.com/namespaces/shaper"
   xmlns:dc="http://purl.org/dc/elements/1.1/"
   xmlns:cc="http://creativecommons.org/ns#"
   xmlns:rdf="http://www.w3.org/1999/02/22-rdf-syntax-ns#"
   xmlns:svg="http://www.w3.org/2000/svg"
   xmlns="http://www.w3.org/2000/svg"
   xmlns:sodipodi="http://sodipodi.sourceforge.net/DTD/sodipodi-0.dtd"
   xmlns:inkscape="http://www.inkscape.org/namespaces/inkscape"
   enable-background="new 0 0 28.8212938 2.2"
   height="2.2cm"
   shaper:fusionaddin="version:1.4.1"
   version="1.1"
   viewBox="0 0 28.8212938 2.2"
   width="28.8212938cm"
   x="0cm"
   xml:space="preserve"
   y="0cm"
   id="svg12"
   sodipodi:docname="layer7_5.svg"
   inkscape:version="0.92.2 (5c3e80d, 2017-08-06)"><metadata
     id="metadata18"><rdf:RDF><cc:Work
         rdf:about=""><dc:format>image/svg+xml</dc:format><dc:type
           rdf:resource="http://purl.org/dc/dcmitype/StillImage" /></cc:Work></rdf:RDF></metadata><defs
     id="defs16" /><sodipodi:namedview
     pagecolor="#ffffff"
     bordercolor="#666666"
     borderopacity="1"
     objecttolerance="10"
     gridtolerance="10"
     guidetolerance="10"
     inkscape:pageopacity="0"
     inkscape:pageshadow="2"
     inkscape:window-width="2560"
     inkscape:window-height="1537"
     id="namedview14"
     showgrid="false"
     inkscape:zoom="1.1530248"
     inkscape:cx="386.17071"
     inkscape:cy="169.99736"
     inkscape:window-x="1432"
     inkscape:window-y="757"
     inkscape:window-maximized="1"
     inkscape:current-layer="svg12" /><path
     d="M14.7458099,1.1261394 A1.1,1.1 1.3616519 0,1 12.5463214,1.0789807 A0.4775263,0.4775263 12.2664525 0,0 12.079697,0.5 L0.790952,0.5 -0,-0 23.9527849,-0 A7.7988357,7.7988357 120.4089131 0,0 28.8212938,1.0182752 L28.3890907,1.5584406 A8.2988357,8.2988357 86.6234357 0,1 23.8191578,0.5 L15.5365352,0.5 A0.8123567,0.8123567 270 0,0 14.7458099,1.1261394z"
     fill="rgb(0,0,0)"
     shaper:cutDepth="0"
     shaper:pathType="exterior"
     transform="matrix(1,0,0,-1,0,2.2)"
     vector-effect="non-scaling-stroke"
     id="path2"
     style="fill:none;stroke:#000000;stroke-opacity:1" /><path
     d="M21.8265863,0.3706439 L21.8258655,0.4206876 21.8759092,0.4214083 21.8766299,0.3713647 21.8265863,0.3706439z"
     fill="rgb(255,255,255)"
     shaper:cutDepth="0"
     shaper:pathType="interior"
     stroke="rgb(0,0,0)"
     stroke-width="2"
     transform="matrix(1,0,0,-1,0,2.2)"
     vector-effect="non-scaling-stroke"
     id="path4"
     style="fill:none;stroke:#ff0000;stroke-opacity:1" /><path
     d="M21.646597,0.4242099 L21.646597,0.4242099 21.6891766,0.4186296 21.7266944,0.3980168 21.7266944,0.3980168 21.7518949,0.3656178 21.7630133,0.3260226 21.7169317,0.3214523 21.7169317,0.3214523 21.6924009,0.3717634 21.6924009,0.3717634 21.6471173,0.3880808 21.6471173,0.3880808 21.6177332,0.3815966 21.5937565,0.363384 21.5937565,0.363384 21.5770974,0.3335864 21.5727002,0.2995976 21.5727002,0.2995976 21.5777925,0.2678145 21.5946705,0.2405817 21.5946705,0.2405817 21.6202282,0.2242796 21.6502756,0.2196518 21.6502756,0.2196518 21.6884628,0.2298463 21.6884628,0.2298463 21.7149551,0.2552549 21.7562879,0.2504785 21.7242709,0.0661604 21.5463109,0.0635974 21.5457062,0.1055853 21.6885136,0.107642 21.7064135,0.2041012 21.7064135,0.2041012 21.639117,0.1806687 21.639117,0.1806687 21.5960638,0.1880559 21.5595561,0.2119969 21.5595561,0.2119969 21.534339,0.2500224 21.5261305,0.2950203 21.5261305,0.2950203 21.5323008,0.3396109 21.5532384,0.3794038 21.5532384,0.3794038 21.5944512,0.4130509 21.646597,0.4242099z"
     fill="rgb(255,255,255)"
     shaper:cutDepth="0"
     shaper:pathType="interior"
     stroke="rgb(0,0,0)"
     stroke-width="2"
     transform="matrix(1,0,0,-1,0,2.2)"
     vector-effect="non-scaling-stroke"
     id="path6"
     style="fill:none;stroke:#ff0000;stroke-opacity:1" /><path
     d="M22.0666426,0.2067255 L22.0666426,0.2067255 22.0048871,0.1121984 22.1801619,0.1147228 22.1807701,0.0724908 21.9491047,0.0691543 21.9486125,0.1033305 21.9486125,0.1033305 22.0149622,0.2009758 22.0149622,0.2009758 22.0650507,0.3257335 22.0650507,0.3257335 22.0804778,0.4243545 22.1256391,0.4250049 22.1256391,0.4250049 22.1105089,0.3227257 22.1105089,0.3227257 22.0666426,0.2067255z"
     fill="rgb(255,255,255)"
     shaper:cutDepth="0"
     shaper:pathType="interior"
     stroke="rgb(0,0,0)"
     stroke-width="2"
     transform="matrix(1,0,0,-1,0,2.2)"
     vector-effect="non-scaling-stroke"
     id="path8"
     style="fill:none;stroke:#ff0000;stroke-opacity:1" /><path
     d="M13.3961205,1.1 a0.25,0.25 0 1,1 0.5,0 a0.25,0.25 0 1,1 -0.5,0z"
     fill="rgb(255,255,255)"
     shaper:cutDepth="0"
     shaper:pathType="interior"
     stroke="rgb(0,0,0)"
     stroke-width="2"
     transform="matrix(1,0,0,-1,0,2.2)"
     vector-effect="non-scaling-stroke"
     id="path10"
     style="fill:none;stroke:#000000;stroke-opacity:1" /></svg>