<?xml version="1.0" encoding="UTF-8" standalone="no"?>
<!-- Generator: Fusion 360, Shaper Origin Export Add-In, Version 1.4.1  -->

<svg
   xmlns:shaper="http://www.shapertools.com/namespaces/shaper"
   xmlns:dc="http://purl.org/dc/elements/1.1/"
   xmlns:cc="http://creativecommons.org/ns#"
   xmlns:rdf="http://www.w3.org/1999/02/22-rdf-syntax-ns#"
   xmlns:svg="http://www.w3.org/2000/svg"
   xmlns="http://www.w3.org/2000/svg"
   xmlns:sodipodi="http://sodipodi.sourceforge.net/DTD/sodipodi-0.dtd"
   xmlns:inkscape="http://www.inkscape.org/namespaces/inkscape"
   enable-background="new 0 0 22.3799172 7.121609"
   height="7.121609cm"
   shaper:fusionaddin="version:1.4.1"
   version="1.1"
   viewBox="0 0 22.3799172 7.121609"
   width="22.3799172cm"
   x="0cm"
   xml:space="preserve"
   y="0cm"
   id="svg14"
   sodipodi:docname="layer5_6.svg"
   inkscape:version="0.92.2 (5c3e80d, 2017-08-06)"><metadata
     id="metadata20"><rdf:RDF><cc:Work
         rdf:about=""><dc:format>image/svg+xml</dc:format><dc:type
           rdf:resource="http://purl.org/dc/dcmitype/StillImage" /></cc:Work></rdf:RDF></metadata><defs
     id="defs18" /><sodipodi:namedview
     pagecolor="#ffffff"
     bordercolor="#666666"
     borderopacity="1"
     objecttolerance="10"
     gridtolerance="10"
     guidetolerance="10"
     inkscape:pageopacity="0"
     inkscape:pageshadow="2"
     inkscape:window-width="2560"
     inkscape:window-height="1537"
     id="namedview16"
     showgrid="false"
     inkscape:zoom="0.74244392"
     inkscape:cx="537.2568"
     inkscape:cy="348.05945"
     inkscape:window-x="1432"
     inkscape:window-y="757"
     inkscape:window-maximized="1"
     inkscape:current-layer="svg14" /><path
     d="M18.6202547,-4.8516325 L18.9954032,-5.432874 A7.7988357,7.7988357 77.3928159 0,0 20.4188218,-5.8985903 A1.4,1.4 246.3728998 0,1 21.9762194,-3.632392 A15.8941385,15.8941385 44.6311312 0,1 12.0418659,1.0357531 A19.0734518,19.0734518 81.9645924 0,1 4.311983,0.538572 A4.4822508,4.4822508 285.1948914 0,0 3.5298001,0.3991015 A13.0006853,13.0006853 276.0592375 0,0 1.4422249,0.3461615 L0,0 A13.5006074,13.5006074 260.8053131 0,1 3.1357026,-0.1379654 A9.0103785,9.0103785 274.1059727 0,1 4.7201806,0.1191286 A18.5628351,18.5628351 104.5246753 0,0 11.7967425,0.5538413 A15.3941385,15.3941385 85.7848509 0,0 19.7827261,-2.3949874 A1.3818073,1.3818073 53.6817608 0,0 18.7257866,-4.8694272 A8.2988357,8.2988357 80.0594212 0,1 18.6202547,-4.8516325z"
     fill="rgb(0,0,0)"
     shaper:cutDepth="0"
     shaper:pathType="exterior"
     transform="matrix(1,0,0,-1,-0,1.2230187)"
     vector-effect="non-scaling-stroke"
     id="path2"
     style="fill:none;stroke:#000000;stroke-opacity:1" /><path
     d="M8.3154148,0.9129232 L8.3154148,0.9129232 8.365952,0.9342855 8.365952,0.9342855 8.3819609,0.9601594 8.3867039,0.9903158 8.3867039,0.9903158 8.3770604,1.0337729 8.3770604,1.0337729 8.3500828,1.0653891 8.3500828,1.0653891 8.3137059,1.0762533 8.3137059,1.0762533 8.2658543,1.0537924 8.2658543,1.0537924 8.2501427,1.0252263 8.2458348,0.9927572 8.2458348,0.9927572 8.2656102,0.9342855 8.2656102,0.9342855 8.3154148,0.9129232z"
     fill="rgb(0,0,0)"
     shaper:cutDepth="0"
     shaper:pathType="exterior"
     transform="matrix(1,0,0,-1,-0,1.2230187)"
     vector-effect="non-scaling-stroke"
     id="path4"
     style="fill:none;stroke:#ff0000;stroke-opacity:1" /><path
     d="M20.7299172,-4.6159477 a0.25,0.25 0 1,1 0.5,0 a0.25,0.25 0 1,1 -0.5,0z"
     fill="rgb(255,255,255)"
     shaper:cutDepth="0"
     shaper:pathType="interior"
     stroke="rgb(0,0,0)"
     stroke-width="2"
     transform="matrix(1,0,0,-1,-0,1.2230187)"
     vector-effect="non-scaling-stroke"
     id="path6"
     style="fill:none;stroke:#000000;stroke-opacity:1" /><path
     d="M8.7372898,1.1123861 L8.7372898,1.1123861 8.7797847,1.1061933 8.8170018,1.0850424 8.8170018,1.0850424 8.8417331,1.0522838 8.8522801,1.0125326 8.8061375,1.0086264 8.8061375,1.0086264 8.7823338,1.0592855 8.7823338,1.0592855 8.7372898,1.0762533 8.7372898,1.0762533 8.7078154,1.0701929 8.6835789,1.0523275 8.6835789,1.0523275 8.6664924,1.0227729 8.6616063,0.988851 8.6616063,0.988851 8.6662404,0.9569979 8.6827244,0.9295248 8.6827244,0.9295248 8.7080447,0.9128564 8.7380223,0.9077963 8.7380223,0.9077963 8.7763523,0.9174398 8.7763523,0.9174398 8.8032078,0.9424643 8.8444676,0.9370932 8.8097996,0.7532553 8.6318211,0.7532553 8.6318211,0.7952475 8.7746434,0.7952475 8.7939305,0.8914389 8.7939305,0.8914389 8.7263035,0.8689779 8.7263035,0.8689779 8.6833611,0.8769843 8.647202,0.9014486 8.647202,0.9014486 8.622535,0.9398334 8.6149754,0.9849447 8.6149754,0.9849447 8.6217873,1.0294419 8.6432957,1.0689291 8.6432957,1.0689291 8.6849887,1.1019792 8.7372898,1.1123861z"
     fill="rgb(255,255,255)"
     shaper:cutDepth="0"
     shaper:pathType="interior"
     stroke="rgb(0,0,0)"
     stroke-width="2"
     transform="matrix(1,0,0,-1,-0,1.2230187)"
     vector-effect="non-scaling-stroke"
     id="path8"
     style="fill:none;stroke:#ff0000;stroke-opacity:1" /><path
     d="M8.4994969,1.0562338 L8.4994969,1.1062826 8.5495457,1.1062826 8.5495457,1.0562338 8.4994969,1.0562338z"
     fill="rgb(255,255,255)"
     shaper:cutDepth="0"
     shaper:pathType="interior"
     stroke="rgb(0,0,0)"
     stroke-width="2"
     transform="matrix(1,0,0,-1,-0,1.2230187)"
     vector-effect="non-scaling-stroke"
     id="path10"
     style="fill:none;stroke:#ff0000;stroke-opacity:1" /><path
     d="M8.3088231,0.7469076 L8.3088231,0.7469076 8.2719464,0.7522919 8.2396092,0.7705893 8.2396092,0.7705893 8.2173187,0.8002173 8.2072606,0.8360189 8.2509617,0.8394369 8.2509617,0.8394369 8.2675633,0.8018393 8.2675633,0.8018393 8.3115086,0.7830404 8.3115086,0.7830404 8.3483738,0.7947592 8.3483738,0.7947592 8.3810887,0.8389486 8.3810887,0.8389486 8.3935398,0.9217123 8.3935398,0.9217123 8.3547215,0.8858236 8.3547215,0.8858236 8.3066258,0.8741049 8.3066258,0.8741049 8.2657599,0.8822723 8.2317967,0.9064535 8.2317967,0.9064535 8.2080404,0.9451198 8.2009129,0.9900717 8.2009129,0.9900717 8.2154393,1.0526938 8.2154393,1.0526938 8.2553563,1.0970053 8.2553563,1.0970053 8.3129734,1.1123861 8.3129734,1.1123861 8.3624362,1.102467 8.4025731,1.0719809 8.4025731,1.0719809 8.4312821,1.0086671 8.437241,0.9388021 8.437241,0.9388021 8.4305245,0.8598827 8.3989109,0.7879232 8.3989109,0.7879232 8.3587802,0.756756 8.3088231,0.7469076z"
     fill="rgb(255,255,255)"
     shaper:cutDepth="0"
     shaper:pathType="interior"
     stroke="rgb(0,0,0)"
     stroke-width="2"
     transform="matrix(1,0,0,-1,-0,1.2230187)"
     vector-effect="non-scaling-stroke"
     id="path12"
     style="fill:none;stroke:#ff0000;stroke-opacity:1" /></svg>