<?xml version="1.0" encoding="UTF-8" standalone="no"?>
<!-- Generator: Fusion 360, Shaper Origin Export Add-In, Version 1.4.1  -->

<svg
   xmlns:shaper="http://www.shapertools.com/namespaces/shaper"
   xmlns:dc="http://purl.org/dc/elements/1.1/"
   xmlns:cc="http://creativecommons.org/ns#"
   xmlns:rdf="http://www.w3.org/1999/02/22-rdf-syntax-ns#"
   xmlns:svg="http://www.w3.org/2000/svg"
   xmlns="http://www.w3.org/2000/svg"
   xmlns:sodipodi="http://sodipodi.sourceforge.net/DTD/sodipodi-0.dtd"
   xmlns:inkscape="http://www.inkscape.org/namespaces/inkscape"
   enable-background="new 0 0 22.3799172 7.121609"
   height="7.121609cm"
   shaper:fusionaddin="version:1.4.1"
   version="1.1"
   viewBox="0 0 22.3799172 7.121609"
   width="22.3799172cm"
   x="0cm"
   xml:space="preserve"
   y="0cm"
   id="svg14"
   sodipodi:docname="layer3_6.svg"
   inkscape:version="0.92.2 (5c3e80d, 2017-08-06)"><metadata
     id="metadata20"><rdf:RDF><cc:Work
         rdf:about=""><dc:format>image/svg+xml</dc:format><dc:type
           rdf:resource="http://purl.org/dc/dcmitype/StillImage" /></cc:Work></rdf:RDF></metadata><defs
     id="defs18" /><sodipodi:namedview
     pagecolor="#ffffff"
     bordercolor="#666666"
     borderopacity="1"
     objecttolerance="10"
     gridtolerance="10"
     guidetolerance="10"
     inkscape:pageopacity="0"
     inkscape:pageshadow="2"
     inkscape:window-width="2560"
     inkscape:window-height="1537"
     id="namedview16"
     showgrid="false"
     inkscape:zoom="1.0499743"
     inkscape:cx="299.37764"
     inkscape:cy="162.50643"
     inkscape:window-x="1432"
     inkscape:window-y="757"
     inkscape:window-maximized="1"
     inkscape:current-layer="svg14" /><path
     d="M18.6202547,-4.8516325 L18.9954032,-5.432874 A7.7988357,7.7988357 77.3928159 0,0 20.4188218,-5.8985903 A1.4,1.4 246.3728998 0,1 21.9762194,-3.632392 A15.8941385,15.8941385 44.6311312 0,1 12.0418659,1.0357531 A19.0734518,19.0734518 81.9645924 0,1 4.311983,0.538572 A4.4822508,4.4822508 285.1948914 0,0 3.5298001,0.3991015 A13.0006853,13.0006853 276.0592375 0,0 1.4422249,0.3461615 L0,0 A13.5006074,13.5006074 260.8053131 0,1 3.1357026,-0.1379654 A9.0103785,9.0103785 274.1059727 0,1 4.7201806,0.1191286 A18.5628351,18.5628351 104.5246753 0,0 11.7967425,0.5538413 A15.3941385,15.3941385 85.7848509 0,0 19.7827261,-2.3949874 A1.3818073,1.3818073 53.6817608 0,0 18.7257866,-4.8694272 A8.2988357,8.2988357 80.0594212 0,1 18.6202547,-4.8516325z"
     fill="rgb(0,0,0)"
     shaper:cutDepth="0"
     shaper:pathType="exterior"
     transform="matrix(1,0,0,-1,-0,1.2230187)"
     vector-effect="non-scaling-stroke"
     id="path2"
     style="fill:none;stroke:#000000;stroke-opacity:1" /><path
     d="M8.3111897,0.9275252 L8.3111897,0.9275252 8.3617269,0.9488875 8.3617269,0.9488875 8.3777358,0.9747614 8.3824788,1.0049178 8.3824788,1.0049178 8.3728352,1.0483748 8.3728352,1.0483748 8.3458577,1.079991 8.3458577,1.079991 8.3094808,1.0908553 8.3094808,1.0908553 8.2616292,1.0683944 8.2616292,1.0683944 8.2459176,1.0398283 8.2416097,1.0073592 8.2416097,1.0073592 8.2613851,0.9488875 8.2613851,0.9488875 8.3111897,0.9275252z"
     fill="rgb(0,0,0)"
     shaper:cutDepth="0"
     shaper:pathType="exterior"
     transform="matrix(1,0,0,-1,-0,1.2230187)"
     vector-effect="non-scaling-stroke"
     id="path4"
     style="fill:none;stroke:#ff0000;stroke-opacity:1" /><path
     d="M20.7299172,-4.6159477 a0.25,0.25 0 1,1 0.5,0 a0.25,0.25 0 1,1 -0.5,0z"
     fill="rgb(255,255,255)"
     shaper:cutDepth="0"
     shaper:pathType="interior"
     stroke="rgb(0,0,0)"
     stroke-width="2"
     transform="matrix(1,0,0,-1,-0,1.2230187)"
     vector-effect="non-scaling-stroke"
     id="path6"
     style="fill:none;stroke:#000000;stroke-opacity:1" /><path
     d="M8.3045979,0.7615096 L8.3045979,0.7615096 8.2677213,0.7668938 8.2353841,0.7851912 8.2353841,0.7851912 8.2130936,0.8148193 8.2030354,0.8506209 8.2467366,0.8540389 8.2467366,0.8540389 8.2633382,0.8164412 8.2633382,0.8164412 8.3072835,0.7976424 8.3072835,0.7976424 8.3441487,0.8093611 8.3441487,0.8093611 8.3768636,0.8535506 8.3768636,0.8535506 8.3893147,0.9363143 8.3893147,0.9363143 8.3504964,0.9004256 8.3504964,0.9004256 8.3024007,0.8887069 8.3024007,0.8887069 8.2615348,0.8968743 8.2275716,0.9210555 8.2275716,0.9210555 8.2038153,0.9597218 8.1966878,1.0046736 8.1966878,1.0046736 8.2112142,1.0672957 8.2112142,1.0672957 8.2511311,1.1116072 8.2511311,1.1116072 8.3087483,1.1269881 8.3087483,1.1269881 8.3582111,1.117069 8.3983479,1.0865828 8.3983479,1.0865828 8.427057,1.023269 8.4330159,0.9534041 8.4330159,0.9534041 8.4262993,0.8744847 8.3946858,0.8025252 8.3946858,0.8025252 8.3545551,0.771358 8.3045979,0.7615096z"
     fill="rgb(255,255,255)"
     shaper:cutDepth="0"
     shaper:pathType="interior"
     stroke="rgb(0,0,0)"
     stroke-width="2"
     transform="matrix(1,0,0,-1,-0,1.2230187)"
     vector-effect="non-scaling-stroke"
     id="path8"
     style="fill:none;stroke:#ff0000;stroke-opacity:1" /><path
     d="M8.4952718,1.0708358 L8.4952718,1.1208846 8.5453206,1.1208846 8.5453206,1.0708358 8.4952718,1.0708358z"
     fill="rgb(255,255,255)"
     shaper:cutDepth="0"
     shaper:pathType="interior"
     stroke="rgb(0,0,0)"
     stroke-width="2"
     transform="matrix(1,0,0,-1,-0,1.2230187)"
     vector-effect="non-scaling-stroke"
     id="path10"
     style="fill:none;stroke:#ff0000;stroke-opacity:1" /><path
     d="M8.7340413,1.1272322 L8.7340413,1.1272322 8.7758999,1.1206708 8.8122884,1.0991561 8.8122884,1.0991561 8.8370714,1.0662395 8.8478108,1.0264022 8.8038655,1.0205428 8.8038655,1.0205428 8.7781087,1.0743758 8.7781087,1.0743758 8.7337972,1.0908553 8.7337972,1.0908553 8.681429,1.0693709 8.681429,1.0693709 8.6600667,1.0161483 8.6600667,1.0161483 8.6798421,0.9662215 8.6798421,0.9662215 8.7301351,0.9465682 8.7301351,0.9465682 8.7611409,0.951451 8.7562581,0.9128768 8.7562581,0.9128768 8.749178,0.9133651 8.749178,0.9133651 8.6986409,0.8987166 8.6986409,0.8987166 8.6813538,0.8792252 8.67618,0.8535506 8.67618,0.8535506 8.6925374,0.8135115 8.6925374,0.8135115 8.7347737,0.7976424 8.7347737,0.7976424 8.7774983,0.8137557 8.7774983,0.8137557 8.799471,0.8620955 8.8434163,0.854283 8.8434163,0.854283 8.8311406,0.8167472 8.8067952,0.7858016 8.8067952,0.7858016 8.7735382,0.7671632 8.7357503,0.7615096 8.7357503,0.7615096 8.6817952,0.7740828 8.6817952,0.7740828 8.6440755,0.8083846 8.6440755,0.8083846 8.631014,0.8545272 8.631014,0.8545272 8.6434651,0.8967635 8.6434651,0.8967635 8.6803304,0.9270369 8.6803304,0.9270369 8.631014,0.9574324 8.631014,0.9574324 8.6134358,1.0151717 8.6134358,1.0151717 8.6220171,1.0585606 8.6476155,1.0946395 8.6476155,1.0946395 8.687526,1.119546 8.7340413,1.1272322z"
     fill="rgb(255,255,255)"
     shaper:cutDepth="0"
     shaper:pathType="interior"
     stroke="rgb(0,0,0)"
     stroke-width="2"
     transform="matrix(1,0,0,-1,-0,1.2230187)"
     vector-effect="non-scaling-stroke"
     id="path12"
     style="fill:none;stroke:#ff0000;stroke-opacity:1" /></svg>