<?xml version="1.0" encoding="UTF-8" standalone="no"?>
<!-- Generator: Fusion 360, Shaper Origin Export Add-In, Version 1.4.1  -->

<svg
   xmlns:shaper="http://www.shapertools.com/namespaces/shaper"
   xmlns:dc="http://purl.org/dc/elements/1.1/"
   xmlns:cc="http://creativecommons.org/ns#"
   xmlns:rdf="http://www.w3.org/1999/02/22-rdf-syntax-ns#"
   xmlns:svg="http://www.w3.org/2000/svg"
   xmlns="http://www.w3.org/2000/svg"
   xmlns:sodipodi="http://sodipodi.sourceforge.net/DTD/sodipodi-0.dtd"
   xmlns:inkscape="http://www.inkscape.org/namespaces/inkscape"
   enable-background="new 0 0 18.9058005 6.9089644"
   height="6.9089644cm"
   shaper:fusionaddin="version:1.4.1"
   version="1.1"
   viewBox="0 0 18.9058005 6.9089644"
   width="18.9058005cm"
   x="0cm"
   xml:space="preserve"
   y="0cm"
   id="svg4"
   sodipodi:docname="layer8_4.svg"
   inkscape:version="0.92.2 (5c3e80d, 2017-08-06)"><metadata
     id="metadata10"><rdf:RDF><cc:Work
         rdf:about=""><dc:format>image/svg+xml</dc:format><dc:type
           rdf:resource="http://purl.org/dc/dcmitype/StillImage" /></cc:Work></rdf:RDF></metadata><defs
     id="defs8" /><sodipodi:namedview
     pagecolor="#ffffff"
     bordercolor="#666666"
     borderopacity="1"
     objecttolerance="10"
     gridtolerance="10"
     guidetolerance="10"
     inkscape:pageopacity="0"
     inkscape:pageshadow="2"
     inkscape:window-width="2560"
     inkscape:window-height="1537"
     id="namedview6"
     showgrid="false"
     inkscape:zoom="1.7577498"
     inkscape:cx="277.89251"
     inkscape:cy="116.43859"
     inkscape:window-x="1432"
     inkscape:window-y="757"
     inkscape:window-maximized="1"
     inkscape:current-layer="svg4" /><path
     d="M10.7124215,0 L11.1078975,0.25 9.3483308,0.25 A0.7213873,0.7213873 270 0,0 8.7713389,1.4043767 A9.066641,9.066641 143.1145048 0,0 17.5222815,4.9042657 A13.2506074,13.2506074 260.4822603 0,1 18.3282749,4.7944487 L18.9058005,4.996943 A13.0006853,13.0006853 266.437888 0,0 15.0724253,5.8284647 A5.6140258,5.6140258 249.0845433 0,0 14.1269614,6.2958519 A9.35932,9.35932 58.3047541 0,1 12.9565551,6.9089644 A11.405069,11.405069 105.5992901 0,1 9.8675548,5.5250497 A25.1836259,25.1836259 302.6667849 0,0 0.5605694,1.9089862 A9.35932,9.35932 157.5337958 0,1 -0,0 L10.7124215,0z"
     fill="rgb(0,0,0)"
     shaper:cutDepth="0"
     shaper:pathType="exterior"
     transform="matrix(1,0,0,-1,0,6.9089644)"
     vector-effect="non-scaling-stroke"
     id="path2"
     style="fill:none;stroke:#000000;stroke-opacity:1" /></svg>