<?xml version="1.0" encoding="UTF-8" standalone="no"?>
<!-- Generator: Fusion 360, Shaper Origin Export Add-In, Version 1.4.1  -->

<svg
   xmlns:shaper="http://www.shapertools.com/namespaces/shaper"
   xmlns:dc="http://purl.org/dc/elements/1.1/"
   xmlns:cc="http://creativecommons.org/ns#"
   xmlns:rdf="http://www.w3.org/1999/02/22-rdf-syntax-ns#"
   xmlns:svg="http://www.w3.org/2000/svg"
   xmlns="http://www.w3.org/2000/svg"
   xmlns:sodipodi="http://sodipodi.sourceforge.net/DTD/sodipodi-0.dtd"
   xmlns:inkscape="http://www.inkscape.org/namespaces/inkscape"
   enable-background="new 0 0 21.6490757 3.5706967"
   height="3.5706967cm"
   shaper:fusionaddin="version:1.4.1"
   version="1.1"
   viewBox="0 0 21.6490757 3.5706967"
   width="21.6490757cm"
   x="0cm"
   xml:space="preserve"
   y="0cm"
   id="svg14"
   sodipodi:docname="layer6_6.svg"
   inkscape:version="0.92.2 (5c3e80d, 2017-08-06)"><metadata
     id="metadata20"><rdf:RDF><cc:Work
         rdf:about=""><dc:format>image/svg+xml</dc:format><dc:type
           rdf:resource="http://purl.org/dc/dcmitype/StillImage" /></cc:Work></rdf:RDF></metadata><defs
     id="defs18" /><sodipodi:namedview
     pagecolor="#ffffff"
     bordercolor="#666666"
     borderopacity="1"
     objecttolerance="10"
     gridtolerance="10"
     guidetolerance="10"
     inkscape:pageopacity="0"
     inkscape:pageshadow="2"
     inkscape:window-width="2560"
     inkscape:window-height="1537"
     id="namedview16"
     showgrid="false"
     inkscape:zoom="1.5350154"
     inkscape:cx="428.44458"
     inkscape:cy="105.39571"
     inkscape:window-x="1432"
     inkscape:window-y="757"
     inkscape:window-maximized="1"
     inkscape:current-layer="svg14" /><path
     d="M4.6345245,0.1725682 A13.0006853,13.0006853 276.0592375 0,0 1.1417239,0.2740355 L0,0 A13.5006074,13.5006074 256.0179795 0,1 4.240427,-0.3644988 A9.0103785,9.0103785 274.1059727 0,1 5.824905,-0.1074047 A18.5628351,18.5628351 104.5246753 0,0 12.9014669,0.327308 A15.3941385,15.3941385 85.7848509 0,0 20.8227371,-2.5742113 L21.6490757,-2.5742113 A15.8941385,15.8941385 51.5701036 0,1 13.1465903,0.8092198 A19.0734518,19.0734518 81.9645924 0,1 5.4167074,0.3120387 A4.4822508,4.4822508 285.1948914 0,0 4.6345245,0.1725682z"
     fill="rgb(0,0,0)"
     shaper:cutDepth="0"
     shaper:pathType="exterior"
     transform="matrix(1,0,0,-1,0,0.9964854)"
     vector-effect="non-scaling-stroke"
     id="path2"
     style="fill:none;stroke:#000000;stroke-opacity:1" /><path
     d="M9.842225,0.6881283 L9.842225,0.6881283 9.8927621,0.7094906 9.8927621,0.7094906 9.9087711,0.7353645 9.9135141,0.7655209 9.9135141,0.7655209 9.9038705,0.8089779 9.9038705,0.8089779 9.876893,0.8405941 9.876893,0.8405941 9.840516,0.8514584 9.840516,0.8514584 9.7926645,0.8289974 9.7926645,0.8289974 9.7769529,0.8004314 9.7726449,0.7679623 9.7726449,0.7679623 9.7924203,0.7094906 9.7924203,0.7094906 9.842225,0.6881283z"
     fill="rgb(0,0,0)"
     shaper:cutDepth="0"
     shaper:pathType="exterior"
     transform="matrix(1,0,0,-1,0,0.9964854)"
     vector-effect="non-scaling-stroke"
     id="path4"
     style="fill:none;stroke:#ff0000;stroke-opacity:1" /><path
     d="M9.4252328,0.6881283 L9.4252328,0.6881283 9.4757699,0.7094906 9.4757699,0.7094906 9.4917789,0.7353645 9.4965219,0.7655209 9.4965219,0.7655209 9.4868783,0.8089779 9.4868783,0.8089779 9.4599008,0.8405941 9.4599008,0.8405941 9.4235239,0.8514584 9.4235239,0.8514584 9.3756723,0.8289974 9.3756723,0.8289974 9.3599607,0.8004314 9.3556528,0.7679623 9.3556528,0.7679623 9.3754282,0.7094906 9.3754282,0.7094906 9.4252328,0.6881283z"
     fill="rgb(0,0,0)"
     shaper:cutDepth="0"
     shaper:pathType="exterior"
     transform="matrix(1,0,0,-1,0,0.9964854)"
     vector-effect="non-scaling-stroke"
     id="path6"
     style="fill:none;stroke:#ff0000;stroke-opacity:1" /><path
     d="M9.418641,0.5221127 L9.418641,0.5221127 9.3817644,0.5274969 9.3494272,0.5457943 9.3494272,0.5457943 9.3271367,0.5754224 9.3170785,0.611224 9.3607797,0.614642 9.3607797,0.614642 9.3773813,0.5770443 9.3773813,0.5770443 9.4213266,0.5582455 9.4213266,0.5582455 9.4581918,0.5699642 9.4581918,0.5699642 9.4909067,0.6141537 9.4909067,0.6141537 9.5033578,0.6969174 9.5033578,0.6969174 9.4645395,0.6610287 9.4645395,0.6610287 9.4164438,0.6493099 9.4164438,0.6493099 9.3755779,0.6574773 9.3416147,0.6816586 9.3416147,0.6816586 9.3178584,0.7203249 9.3107309,0.7652767 9.3107309,0.7652767 9.3252573,0.8278988 9.3252573,0.8278988 9.3651742,0.8722103 9.3651742,0.8722103 9.4227914,0.8875912 9.4227914,0.8875912 9.4722542,0.8776721 9.512391,0.8471859 9.512391,0.8471859 9.5411001,0.7838721 9.547059,0.7140072 9.547059,0.7140072 9.5403424,0.6350878 9.5087289,0.5631283 9.5087289,0.5631283 9.4685982,0.5319611 9.418641,0.5221127z"
     fill="rgb(255,255,255)"
     shaper:cutDepth="0"
     shaper:pathType="interior"
     stroke="rgb(0,0,0)"
     stroke-width="2"
     transform="matrix(1,0,0,-1,0,0.9964854)"
     vector-effect="non-scaling-stroke"
     id="path8"
     style="fill:none;stroke:#ff0000;stroke-opacity:1" /><path
     d="M9.6093149,0.8314388 L9.6093149,0.8814877 9.6593637,0.8814877 9.6593637,0.8314388 9.6093149,0.8314388z"
     fill="rgb(255,255,255)"
     shaper:cutDepth="0"
     shaper:pathType="interior"
     stroke="rgb(0,0,0)"
     stroke-width="2"
     transform="matrix(1,0,0,-1,0,0.9964854)"
     vector-effect="non-scaling-stroke"
     id="path10"
     style="fill:none;stroke:#ff0000;stroke-opacity:1" /><path
     d="M9.8356332,0.5221127 L9.8356332,0.5221127 9.7987566,0.5274969 9.7664194,0.5457943 9.7664194,0.5457943 9.7441289,0.5754224 9.7340707,0.611224 9.7777719,0.614642 9.7777719,0.614642 9.7943735,0.5770443 9.7943735,0.5770443 9.8383188,0.5582455 9.8383188,0.5582455 9.875184,0.5699642 9.875184,0.5699642 9.9078989,0.6141537 9.9078989,0.6141537 9.92035,0.6969174 9.92035,0.6969174 9.8815317,0.6610287 9.8815317,0.6610287 9.833436,0.6493099 9.833436,0.6493099 9.7925701,0.6574773 9.7586069,0.6816586 9.7586069,0.6816586 9.7348506,0.7203249 9.7277231,0.7652767 9.7277231,0.7652767 9.7422494,0.8278988 9.7422494,0.8278988 9.7821664,0.8722103 9.7821664,0.8722103 9.8397836,0.8875912 9.8397836,0.8875912 9.8892464,0.8776721 9.9293832,0.8471859 9.9293832,0.8471859 9.9580923,0.7838721 9.9640512,0.7140072 9.9640512,0.7140072 9.9573346,0.6350878 9.9257211,0.5631283 9.9257211,0.5631283 9.8855904,0.5319611 9.8356332,0.5221127z"
     fill="rgb(255,255,255)"
     shaper:cutDepth="0"
     shaper:pathType="interior"
     stroke="rgb(0,0,0)"
     stroke-width="2"
     transform="matrix(1,0,0,-1,0,0.9964854)"
     vector-effect="non-scaling-stroke"
     id="path12"
     style="fill:none;stroke:#ff0000;stroke-opacity:1" /></svg>