<?xml version="1.0" encoding="UTF-8" standalone="no"?>
<!-- Generator: Fusion 360, Shaper Origin Export Add-In, Version 1.4.1  -->

<svg
   xmlns:shaper="http://www.shapertools.com/namespaces/shaper"
   xmlns:dc="http://purl.org/dc/elements/1.1/"
   xmlns:cc="http://creativecommons.org/ns#"
   xmlns:rdf="http://www.w3.org/1999/02/22-rdf-syntax-ns#"
   xmlns:svg="http://www.w3.org/2000/svg"
   xmlns="http://www.w3.org/2000/svg"
   xmlns:sodipodi="http://sodipodi.sourceforge.net/DTD/sodipodi-0.dtd"
   xmlns:inkscape="http://www.inkscape.org/namespaces/inkscape"
   enable-background="new 0 0 36.2955849 4.2935754"
   height="4.2935754cm"
   shaper:fusionaddin="version:1.4.1"
   version="1.1"
   viewBox="0 0 36.2955849 4.2935754"
   width="36.2955849cm"
   x="0cm"
   xml:space="preserve"
   y="0cm"
   id="svg12"
   sodipodi:docname="layer7_1.svg"
   inkscape:version="0.92.2 (5c3e80d, 2017-08-06)"><metadata
     id="metadata18"><rdf:RDF><cc:Work
         rdf:about=""><dc:format>image/svg+xml</dc:format><dc:type
           rdf:resource="http://purl.org/dc/dcmitype/StillImage" /></cc:Work></rdf:RDF></metadata><defs
     id="defs16" /><sodipodi:namedview
     pagecolor="#ffffff"
     bordercolor="#666666"
     borderopacity="1"
     objecttolerance="10"
     gridtolerance="10"
     guidetolerance="10"
     inkscape:pageopacity="0"
     inkscape:pageshadow="2"
     inkscape:window-width="2560"
     inkscape:window-height="1537"
     id="namedview14"
     showgrid="false"
     inkscape:zoom="0.45779213"
     inkscape:cx="808.60935"
     inkscape:cy="487.34187"
     inkscape:window-x="1432"
     inkscape:window-y="757"
     inkscape:window-maximized="1"
     inkscape:current-layer="svg12" /><path
     d="M0.2216955,0.5 A5.2769293,5.2769293 43.4094808 0,1 -1.902415,1.8660504 L-2.7955849,1.5803366 A4.7769293,4.7769293 80.1619717 0,0 -0,0 L33.5,0 A11.322979,11.322979 10.3947708 0,1 31.935453,4.0047461 L31.1369476,4.2935754 A3.0811122,3.0811122 19.5056357 0,0 29.5925065,0.5 L0.2216955,0.5z"
     fill="rgb(0,0,0)"
     shaper:cutDepth="0"
     shaper:pathType="exterior"
     transform="matrix(1,0,0,-1,2.7955849,4.2935754)"
     vector-effect="non-scaling-stroke"
     id="path2"
     style="fill:none;stroke:#000000;stroke-opacity:1" /><path
     d="M3.0719223,0.3018619 L3.0719223,0.3018619 3.1442093,0.3886011 2.9698215,0.4063921 2.9741082,0.4484103 3.2046013,0.4248956 3.2011323,0.3908924 3.2011323,0.3908924 3.1239208,0.3015879 3.1239208,0.3015879 3.0597214,0.1834703 3.0597214,0.1834703 3.032977,0.0872994 2.9880442,0.0918834 2.9880442,0.0918834 3.0149174,0.1917223 3.0149174,0.1917223 3.0719223,0.3018619z"
     fill="rgb(255,255,255)"
     shaper:cutDepth="0"
     shaper:pathType="interior"
     stroke="rgb(0,0,0)"
     stroke-width="2"
     transform="matrix(1,0,0,-1,2.7955849,4.2935754)"
     vector-effect="non-scaling-stroke"
     id="path4"
     style="fill:none;stroke:#ff0000;stroke-opacity:1" /><path
     d="M3.5231506,0.3985326 L3.5513247,0.3956583 3.5148508,0.038139 3.4711324,0.0425991 3.4995533,0.3211824 3.4995533,0.3211824 3.4550697,0.29529 3.4550697,0.29529 3.4067396,0.2773977 3.411051,0.3196588 3.411051,0.3196588 3.4794332,0.3548926 3.4794332,0.3548926 3.5231506,0.3985326z"
     fill="rgb(255,255,255)"
     shaper:cutDepth="0"
     shaper:pathType="interior"
     stroke="rgb(0,0,0)"
     stroke-width="2"
     transform="matrix(1,0,0,-1,2.7955849,4.2935754)"
     vector-effect="non-scaling-stroke"
     id="path6"
     style="fill:none;stroke:#ff0000;stroke-opacity:1" /><path
     d="M3.2913803,0.1112459 L3.2863007,0.0614555 3.2365104,0.0665351 3.2415899,0.1163255 3.2913803,0.1112459z"
     fill="rgb(255,255,255)"
     shaper:cutDepth="0"
     shaper:pathType="interior"
     stroke="rgb(0,0,0)"
     stroke-width="2"
     transform="matrix(1,0,0,-1,2.7955849,4.2935754)"
     vector-effect="non-scaling-stroke"
     id="path8"
     style="fill:none;stroke:#ff0000;stroke-opacity:1" /><path
     d="M31.4164356,1.324495 a0.25,0.25 0 1,1 0.5,0 a0.25,0.25 0 1,1 -0.5,0z"
     fill="rgb(255,255,255)"
     shaper:cutDepth="0"
     shaper:pathType="interior"
     stroke="rgb(0,0,0)"
     stroke-width="2"
     transform="matrix(1,0,0,-1,2.7955849,4.2935754)"
     vector-effect="non-scaling-stroke"
     id="path10"
     style="fill:none;stroke:#000000;stroke-opacity:1" /></svg>