<?xml version="1.0" encoding="UTF-8" standalone="no"?>
<!-- Generator: Fusion 360, Shaper Origin Export Add-In, Version 1.4.1  -->

<svg
   xmlns:shaper="http://www.shapertools.com/namespaces/shaper"
   xmlns:dc="http://purl.org/dc/elements/1.1/"
   xmlns:cc="http://creativecommons.org/ns#"
   xmlns:rdf="http://www.w3.org/1999/02/22-rdf-syntax-ns#"
   xmlns:svg="http://www.w3.org/2000/svg"
   xmlns="http://www.w3.org/2000/svg"
   xmlns:sodipodi="http://sodipodi.sourceforge.net/DTD/sodipodi-0.dtd"
   xmlns:inkscape="http://www.inkscape.org/namespaces/inkscape"
   enable-background="new 0 0 22.3799172 7.121609"
   height="7.121609cm"
   shaper:fusionaddin="version:1.4.1"
   version="1.1"
   viewBox="0 0 22.3799172 7.121609"
   width="22.3799172cm"
   x="0cm"
   xml:space="preserve"
   y="0cm"
   id="svg14"
   sodipodi:docname="layer7_6.svg"
   inkscape:version="0.92.2 (5c3e80d, 2017-08-06)"><metadata
     id="metadata20"><rdf:RDF><cc:Work
         rdf:about=""><dc:format>image/svg+xml</dc:format><dc:type
           rdf:resource="http://purl.org/dc/dcmitype/StillImage" /></cc:Work></rdf:RDF></metadata><defs
     id="defs18" /><sodipodi:namedview
     pagecolor="#ffffff"
     bordercolor="#666666"
     borderopacity="1"
     objecttolerance="10"
     gridtolerance="10"
     guidetolerance="10"
     inkscape:pageopacity="0"
     inkscape:pageshadow="2"
     inkscape:window-width="2560"
     inkscape:window-height="1537"
     id="namedview16"
     showgrid="false"
     inkscape:zoom="1.0499743"
     inkscape:cx="325.54348"
     inkscape:cy="119.36031"
     inkscape:window-x="1432"
     inkscape:window-y="757"
     inkscape:window-maximized="1"
     inkscape:current-layer="svg14" /><path
     d="M18.6202547,-4.8516325 L18.9954032,-5.432874 A7.7988357,7.7988357 77.3928159 0,0 20.4188218,-5.8985903 A1.4,1.4 246.3728998 0,1 21.9762194,-3.632392 A15.8941385,15.8941385 44.6311312 0,1 12.0418659,1.0357531 A19.0734518,19.0734518 81.9645924 0,1 4.311983,0.538572 A4.4822508,4.4822508 285.1948914 0,0 3.5298001,0.3991015 A13.0006853,13.0006853 276.0592375 0,0 1.4422249,0.3461615 L0,0 A13.5006074,13.5006074 260.8053131 0,1 3.1357026,-0.1379654 A9.0103785,9.0103785 274.1059727 0,1 4.7201806,0.1191286 A18.5628351,18.5628351 104.5246753 0,0 11.7967425,0.5538413 A15.3941385,15.3941385 85.7848509 0,0 19.7827261,-2.3949874 A1.3818073,1.3818073 53.6817608 0,0 18.7257866,-4.8694272 A8.2988357,8.2988357 80.0594212 0,1 18.6202547,-4.8516325z"
     fill="rgb(0,0,0)"
     shaper:cutDepth="0"
     shaper:pathType="exterior"
     transform="matrix(1,0,0,-1,-0,1.2230187)"
     vector-effect="non-scaling-stroke"
     id="path2"
     style="fill:none;stroke:#000000;stroke-opacity:1" /><path
     d="M8.3142797,0.922556 L8.3142797,0.922556 8.3648168,0.9439183 8.3648168,0.9439183 8.3808258,0.9697921 8.3855688,0.9999485 8.3855688,0.9999485 8.3759252,1.0434056 8.3759252,1.0434056 8.3489477,1.0750218 8.3489477,1.0750218 8.3125707,1.085886 8.3125707,1.085886 8.2647192,1.0634251 8.2647192,1.0634251 8.2490076,1.0348591 8.2446997,1.0023899 8.2446997,1.0023899 8.264475,0.9439183 8.264475,0.9439183 8.3142797,0.922556z"
     fill="rgb(0,0,0)"
     shaper:cutDepth="0"
     shaper:pathType="exterior"
     transform="matrix(1,0,0,-1,-0,1.2230187)"
     vector-effect="non-scaling-stroke"
     id="path4"
     style="fill:none;stroke:#ff0000;stroke-opacity:1" /><path
     d="M20.7299172,-4.6159477 a0.25,0.25 0 1,1 0.5,0 a0.25,0.25 0 1,1 -0.5,0z"
     fill="rgb(255,255,255)"
     shaper:cutDepth="0"
     shaper:pathType="interior"
     stroke="rgb(0,0,0)"
     stroke-width="2"
     transform="matrix(1,0,0,-1,-0,1.2230187)"
     vector-effect="non-scaling-stroke"
     id="path6"
     style="fill:none;stroke:#000000;stroke-opacity:1" /><path
     d="M8.3076879,0.7565403 L8.3076879,0.7565403 8.2708113,0.7619246 8.2384741,0.780222 8.2384741,0.780222 8.2161836,0.8098501 8.2061254,0.8456517 8.2498266,0.8490696 8.2498266,0.8490696 8.2664282,0.811472 8.2664282,0.811472 8.3103735,0.7926731 8.3103735,0.7926731 8.3472387,0.8043919 8.3472387,0.8043919 8.3799536,0.8485813 8.3799536,0.8485813 8.3924047,0.931345 8.3924047,0.931345 8.3535864,0.8954563 8.3535864,0.8954563 8.3054907,0.8837376 8.3054907,0.8837376 8.2646248,0.891905 8.2306616,0.9160862 8.2306616,0.9160862 8.2069053,0.9547525 8.1997778,0.9997044 8.1997778,0.9997044 8.2143041,1.0623265 8.2143041,1.0623265 8.2542211,1.106638 8.2542211,1.106638 8.3118383,1.1220188 8.3118383,1.1220188 8.3613011,1.1120997 8.4014379,1.0816136 8.4014379,1.0816136 8.430147,1.0182998 8.4361059,0.9484349 8.4361059,0.9484349 8.4293893,0.8695154 8.3977758,0.797556 8.3977758,0.797556 8.3576451,0.7663887 8.3076879,0.7565403z"
     fill="rgb(255,255,255)"
     shaper:cutDepth="0"
     shaper:pathType="interior"
     stroke="rgb(0,0,0)"
     stroke-width="2"
     transform="matrix(1,0,0,-1,-0,1.2230187)"
     vector-effect="non-scaling-stroke"
     id="path8"
     style="fill:none;stroke:#ff0000;stroke-opacity:1" /><path
     d="M8.4983618,1.0658665 L8.4983618,1.1159153 8.5484106,1.1159153 8.5484106,1.0658665 8.4983618,1.0658665z"
     fill="rgb(255,255,255)"
     shaper:cutDepth="0"
     shaper:pathType="interior"
     stroke="rgb(0,0,0)"
     stroke-width="2"
     transform="matrix(1,0,0,-1,-0,1.2230187)"
     vector-effect="non-scaling-stroke"
     id="path10"
     style="fill:none;stroke:#ff0000;stroke-opacity:1" /><path
     d="M8.7360327,0.8985081 L8.7360327,0.8985081 8.6729223,0.8048802 8.8482153,0.8048802 8.8482153,0.7626438 8.6165258,0.7626438 8.6165258,0.7968235 8.6165258,0.7968235 8.6842748,0.8935032 8.6842748,0.8935032 8.7361547,1.0175267 8.7361547,1.0175267 8.7530004,1.1159153 8.7981664,1.1159153 8.7981664,1.1159153 8.7815649,1.0138645 8.7815649,1.0138645 8.7360327,0.8985081z"
     fill="rgb(255,255,255)"
     shaper:cutDepth="0"
     shaper:pathType="interior"
     stroke="rgb(0,0,0)"
     stroke-width="2"
     transform="matrix(1,0,0,-1,-0,1.2230187)"
     vector-effect="non-scaling-stroke"
     id="path12"
     style="fill:none;stroke:#ff0000;stroke-opacity:1" /></svg>