<?xml version="1.0" encoding="UTF-8" standalone="no"?>
<!-- Generator: Fusion 360, Shaper Origin Export Add-In, Version 1.4.1  -->

<svg
   xmlns:shaper="http://www.shapertools.com/namespaces/shaper"
   xmlns:dc="http://purl.org/dc/elements/1.1/"
   xmlns:cc="http://creativecommons.org/ns#"
   xmlns:rdf="http://www.w3.org/1999/02/22-rdf-syntax-ns#"
   xmlns:svg="http://www.w3.org/2000/svg"
   xmlns="http://www.w3.org/2000/svg"
   xmlns:sodipodi="http://sodipodi.sourceforge.net/DTD/sodipodi-0.dtd"
   xmlns:inkscape="http://www.inkscape.org/namespaces/inkscape"
   enable-background="new 0 0 36.2772358 5.8877775"
   height="5.8877775cm"
   shaper:fusionaddin="version:1.4.1"
   version="1.1"
   viewBox="0 0 36.2772358 5.8877775"
   width="36.2772358cm"
   x="0cm"
   xml:space="preserve"
   y="0cm"
   id="svg12"
   sodipodi:docname="layer2_1.svg"
   inkscape:version="0.92.2 (5c3e80d, 2017-08-06)"><metadata
     id="metadata18"><rdf:RDF><cc:Work
         rdf:about=""><dc:format>image/svg+xml</dc:format><dc:type
           rdf:resource="http://purl.org/dc/dcmitype/StillImage" /></cc:Work></rdf:RDF></metadata><defs
     id="defs16" /><sodipodi:namedview
     pagecolor="#ffffff"
     bordercolor="#666666"
     borderopacity="1"
     objecttolerance="10"
     gridtolerance="10"
     guidetolerance="10"
     inkscape:pageopacity="0"
     inkscape:pageshadow="2"
     inkscape:window-width="2560"
     inkscape:window-height="1537"
     id="namedview14"
     showgrid="false"
     inkscape:zoom="0.64774329"
     inkscape:cx="212.46084"
     inkscape:cy="-31.800275"
     inkscape:window-x="1432"
     inkscape:window-y="757"
     inkscape:window-maximized="1"
     inkscape:current-layer="svg12" /><path
     d="M0.2216955,0.5 A5.2769293,5.2769293 43.4094808 0,1 -1.902415,1.8660504 A2.4902952,2.4902952 224.6858392 0,0 -1.1548091,5.8877775 L-3.3710509,5.4544524 A15.5350318,15.5350318 117.9528884 0,1 -5.5291749,4.0696592 A1.4,1.4 127.4208743 0,1 -4.4366862,1.5788203 A4.7769293,4.7769293 99.9438998 0,0 0,0 L30.1987922,0 29.5925065,0.5 0.2216955,0.5z"
     fill="rgb(0,0,0)"
     shaper:cutDepth="0"
     shaper:pathType="exterior"
     transform="matrix(1,0,0,-1,6.0784435,5.8877775)"
     vector-effect="non-scaling-stroke"
     id="path2"
     style="fill:none;stroke:#000000;stroke-opacity:1" /><path
     d="M-5.2784435,2.9577886 a0.6,0.6 0 1,1 1.2,0 a0.6,0.6 0 1,1 -1.2,0z"
     fill="rgb(255,255,255)"
     shaper:cutDepth="0"
     shaper:pathType="interior"
     stroke="rgb(0,0,0)"
     stroke-width="2"
     transform="matrix(1,0,0,-1,6.0784435,5.8877775)"
     vector-effect="non-scaling-stroke"
     id="path4"
     style="fill:none;stroke:#000000;stroke-opacity:1" /><path
     d="M3.2831729,0.1165956 L3.2780933,0.0668052 3.2283029,0.0718848 3.2333825,0.1216752 3.2831729,0.1165956z"
     fill="rgb(255,255,255)"
     shaper:cutDepth="0"
     shaper:pathType="interior"
     stroke="rgb(0,0,0)"
     stroke-width="2"
     transform="matrix(1,0,0,-1,6.0784435,5.8877775)"
     vector-effect="non-scaling-stroke"
     id="path6"
     style="fill:none;stroke:#ff0000;stroke-opacity:1" /><path
     d="M3.5149431,0.4038823 L3.5431172,0.401008 3.5066433,0.0434887 3.4629249,0.0479488 3.4913458,0.3265321 3.4913458,0.3265321 3.4468623,0.3006397 3.4468623,0.3006397 3.3985321,0.2827474 3.4028436,0.3250085 3.4028436,0.3250085 3.4712258,0.3602423 3.4712258,0.3602423 3.5149431,0.4038823z"
     fill="rgb(255,255,255)"
     shaper:cutDepth="0"
     shaper:pathType="interior"
     stroke="rgb(0,0,0)"
     stroke-width="2"
     transform="matrix(1,0,0,-1,6.0784435,5.8877775)"
     vector-effect="non-scaling-stroke"
     id="path8"
     style="fill:none;stroke:#ff0000;stroke-opacity:1" /><path
     d="M3.0074269,0.1608012 L3.0074269,0.1608012 2.9865522,0.1390036 3.1611829,0.1211879 3.1568962,0.0791696 2.9215455,0.10318 2.9215455,0.10318 2.9297433,0.1330196 2.9297433,0.1330196 2.9633564,0.1774449 2.9633564,0.1774449 3.0260554,0.225529 3.0260554,0.225529 3.1121993,0.2929398 3.1121993,0.2929398 3.1379658,0.3434419 3.1379658,0.3434419 3.123858,0.3891773 3.123858,0.3891773 3.0772247,0.4119722 3.0772247,0.4119722 3.0247729,0.3981815 3.0247729,0.3981815 3.0002332,0.347677 2.9557712,0.3568757 2.9557712,0.3568757 2.9698941,0.3977049 2.9983207,0.429961 2.9983207,0.429961 3.0383338,0.4467334 3.0818882,0.4480622 3.0818882,0.4480622 3.124715,0.4373966 3.160111,0.4113693 3.160111,0.4113693 3.1793315,0.3770696 3.1827995,0.3378863 3.1827995,0.3378863 3.1697691,0.2967601 3.1697691,0.2967601 3.1363096,0.2562457 3.1363096,0.2562457 3.0625176,0.2004586 3.0625176,0.2004586 3.0074269,0.1608012z"
     fill="rgb(255,255,255)"
     shaper:cutDepth="0"
     shaper:pathType="interior"
     stroke="rgb(0,0,0)"
     stroke-width="2"
     transform="matrix(1,0,0,-1,6.0784435,5.8877775)"
     vector-effect="non-scaling-stroke"
     id="path10"
     style="fill:none;stroke:#ff0000;stroke-opacity:1" /></svg>