<?xml version="1.0" encoding="UTF-8" standalone="no"?>
<!-- Generator: Fusion 360, Shaper Origin Export Add-In, Version 1.4.1  -->

<svg
   xmlns:shaper="http://www.shapertools.com/namespaces/shaper"
   xmlns:dc="http://purl.org/dc/elements/1.1/"
   xmlns:cc="http://creativecommons.org/ns#"
   xmlns:rdf="http://www.w3.org/1999/02/22-rdf-syntax-ns#"
   xmlns:svg="http://www.w3.org/2000/svg"
   xmlns="http://www.w3.org/2000/svg"
   xmlns:sodipodi="http://sodipodi.sourceforge.net/DTD/sodipodi-0.dtd"
   xmlns:inkscape="http://www.inkscape.org/namespaces/inkscape"
   enable-background="new 0 0 30.947442 4.2447468"
   height="4.2447468cm"
   shaper:fusionaddin="version:1.4.1"
   version="1.1"
   viewBox="0 0 30.947442 4.2447468"
   width="30.947442cm"
   x="0cm"
   xml:space="preserve"
   y="0cm"
   id="svg16"
   sodipodi:docname="layer6_5.svg"
   inkscape:version="0.92.2 (5c3e80d, 2017-08-06)"><metadata
     id="metadata22"><rdf:RDF><cc:Work
         rdf:about=""><dc:format>image/svg+xml</dc:format><dc:type
           rdf:resource="http://purl.org/dc/dcmitype/StillImage" /></cc:Work></rdf:RDF></metadata><defs
     id="defs20" /><sodipodi:namedview
     pagecolor="#ffffff"
     bordercolor="#666666"
     borderopacity="1"
     objecttolerance="10"
     gridtolerance="10"
     guidetolerance="10"
     inkscape:pageopacity="0"
     inkscape:pageshadow="2"
     inkscape:window-width="2560"
     inkscape:window-height="1537"
     id="namedview18"
     showgrid="false"
     inkscape:zoom="0.75929822"
     inkscape:cx="150.31867"
     inkscape:cy="235.83699"
     inkscape:window-x="1432"
     inkscape:window-y="757"
     inkscape:window-maximized="1"
     inkscape:current-layer="svg16" /><path
     d="M13.5806035,1.1261394 A1.1,1.1 1.3616519 0,1 11.381115,1.0789807 A0.4775263,0.4775263 12.2664525 0,0 10.9144906,0.5 L0.790952,0.5 0,0 22.7875785,0 A7.7988357,7.7988357 120.4089131 0,0 29.1194226,0.6994301 A1.4,1.4 252.1980237 0,1 30.4387761,3.1119907 A15.8941385,15.8941385 50.4562551 0,1 28.8839128,4.2447468 L28.0618412,4.1608796 A15.3941385,15.3941385 59.805243 0,0 28.131022,4.1203825 A1.3818073,1.3818073 59.5068847 0,0 27.3306774,1.5514484 A8.2988357,8.2988357 85.8845451 0,1 22.6539514,0.5 L14.3713288,0.5 A0.8123567,0.8123567 270 0,0 13.5806035,1.1261394z"
     fill="rgb(0,0,0)"
     shaper:cutDepth="0"
     shaper:pathType="exterior"
     transform="matrix(1,0,0,-1,-0,4.2447468)"
     vector-effect="non-scaling-stroke"
     id="path2"
     style="fill:none;stroke:#000000;stroke-opacity:1" /><path
     d="M20.9000736,0.2247364 L20.9000736,0.2247364 20.9502978,0.2468242 20.9502978,0.2468242 20.9659325,0.272926 20.9702407,0.3031475 20.9702407,0.3031475 20.9599724,0.3464612 20.9599724,0.3464612 20.9325423,0.3776856 20.9325423,0.3776856 20.8960127,0.3880249 20.8960127,0.3880249 20.8484896,0.3648772 20.8484896,0.3648772 20.833191,0.3360879 20.8293511,0.3035601 20.8293511,0.3035601 20.8499664,0.2453792 20.8499664,0.2453792 20.9000736,0.2247364z"
     fill="rgb(0,0,0)"
     shaper:cutDepth="0"
     shaper:pathType="exterior"
     transform="matrix(1,0,0,-1,-0,4.2447468)"
     vector-effect="non-scaling-stroke"
     id="path4"
     style="fill:none;stroke:#ff0000;stroke-opacity:1" /><path
     d="M29.297442,2.0323965 a0.25,0.25 0 1,1 0.5,0 a0.25,0.25 0 1,1 -0.5,0z"
     fill="rgb(255,255,255)"
     shaper:cutDepth="0"
     shaper:pathType="interior"
     stroke="rgb(0,0,0)"
     stroke-width="2"
     transform="matrix(1,0,0,-1,-0,4.2447468)"
     vector-effect="non-scaling-stroke"
     id="path6"
     style="fill:none;stroke:#000000;stroke-opacity:1" /><path
     d="M12.2309141,1.1 a0.25,0.25 0 1,1 0.5,0 a0.25,0.25 0 1,1 -0.5,0z"
     fill="rgb(255,255,255)"
     shaper:cutDepth="0"
     shaper:pathType="interior"
     stroke="rgb(0,0,0)"
     stroke-width="2"
     transform="matrix(1,0,0,-1,-0,4.2447468)"
     vector-effect="non-scaling-stroke"
     id="path8"
     style="fill:none;stroke:#000000;stroke-opacity:1" /><path
     d="M20.4851345,0.4182439 L20.4851345,0.4182439 20.5277142,0.4126637 20.565232,0.3920509 20.565232,0.3920509 20.5904325,0.3596519 20.6015508,0.3200567 20.5554693,0.3154864 20.5554693,0.3154864 20.5309385,0.3657975 20.5309385,0.3657975 20.4856549,0.3821149 20.4856549,0.3821149 20.4562707,0.3756306 20.4322941,0.3574181 20.4322941,0.3574181 20.415635,0.3276204 20.4112378,0.2936317 20.4112378,0.2936317 20.4163301,0.2618486 20.4332081,0.2346158 20.4332081,0.2346158 20.4587657,0.2183137 20.4888131,0.2136859 20.4888131,0.2136859 20.5270003,0.2238804 20.5270003,0.2238804 20.5534927,0.2492889 20.5948255,0.2445126 20.5628085,0.0601945 20.3848484,0.0576315 20.3842437,0.0996193 20.5270512,0.1016761 20.5449511,0.1981352 20.5449511,0.1981352 20.4776546,0.1747028 20.4776546,0.1747028 20.4346013,0.18209 20.3980936,0.206031 20.3980936,0.206031 20.3728765,0.2440565 20.364668,0.2890543 20.364668,0.2890543 20.3708384,0.333645 20.391776,0.3734378 20.391776,0.3734378 20.4329887,0.4070849 20.4851345,0.4182439z"
     fill="rgb(255,255,255)"
     shaper:cutDepth="0"
     shaper:pathType="interior"
     stroke="rgb(0,0,0)"
     stroke-width="2"
     transform="matrix(1,0,0,-1,-0,4.2447468)"
     vector-effect="non-scaling-stroke"
     id="path10"
     style="fill:none;stroke:#ff0000;stroke-opacity:1" /><path
     d="M20.6651238,0.364678 L20.6644031,0.4147216 20.7144467,0.4154424 20.7151674,0.3653987 20.6651238,0.364678z"
     fill="rgb(255,255,255)"
     shaper:cutDepth="0"
     shaper:pathType="interior"
     stroke="rgb(0,0,0)"
     stroke-width="2"
     transform="matrix(1,0,0,-1,-0,4.2447468)"
     vector-effect="non-scaling-stroke"
     id="path12"
     style="fill:none;stroke:#ff0000;stroke-opacity:1" /><path
     d="M20.8958732,0.058643 L20.8958732,0.058643 20.8589228,0.0634957 20.8263255,0.0813255 20.8263255,0.0813255 20.8036106,0.1106295 20.793038,0.1462826 20.8366854,0.1503295 20.8366854,0.1503295 20.8538267,0.1129748 20.8538267,0.1129748 20.8980381,0.0948108 20.8980381,0.0948108 20.9347308,0.1070592 20.9347308,0.1070592 20.9668059,0.1517152 20.9668059,0.1517152 20.9780639,0.2346496 20.9780639,0.2346496 20.9397664,0.1982056 20.9397664,0.1982056 20.8918444,0.1857955 20.8918444,0.1857955 20.8508652,0.1933735 20.8165573,0.2170632 20.8165573,0.2170632 20.7922466,0.2553834 20.7844725,0.3002279 20.7844725,0.3002279 20.7980956,0.3630527 20.7980956,0.3630527 20.8373703,0.4079344 20.8373703,0.4079344 20.89476,0.4241434 20.89476,0.4241434 20.9443605,0.4149376 20.9849322,0.3850326 20.9849322,0.3850326 21.01455,0.3221388 21.0215144,0.252367 21.0215144,0.252367 21.0159351,0.173359 20.9853611,0.1009517 20.9853611,0.1009517 20.9456834,0.0692098 20.8958732,0.058643z"
     fill="rgb(255,255,255)"
     shaper:cutDepth="0"
     shaper:pathType="interior"
     stroke="rgb(0,0,0)"
     stroke-width="2"
     transform="matrix(1,0,0,-1,-0,4.2447468)"
     vector-effect="non-scaling-stroke"
     id="path14"
     style="fill:none;stroke:#ff0000;stroke-opacity:1" /></svg>