<?xml version="1.0" encoding="UTF-8" standalone="no"?>
<!-- Generator: Fusion 360, Shaper Origin Export Add-In, Version 1.4.1  -->

<svg
   xmlns:shaper="http://www.shapertools.com/namespaces/shaper"
   xmlns:dc="http://purl.org/dc/elements/1.1/"
   xmlns:cc="http://creativecommons.org/ns#"
   xmlns:rdf="http://www.w3.org/1999/02/22-rdf-syntax-ns#"
   xmlns:svg="http://www.w3.org/2000/svg"
   xmlns="http://www.w3.org/2000/svg"
   xmlns:sodipodi="http://sodipodi.sourceforge.net/DTD/sodipodi-0.dtd"
   xmlns:inkscape="http://www.inkscape.org/namespaces/inkscape"
   enable-background="new 0 0 41.6598636 7.6917505"
   height="7.6917505cm"
   shaper:fusionaddin="version:1.4.1"
   version="1.1"
   viewBox="0 0 41.6598636 7.6917505"
   width="41.6598636cm"
   x="0cm"
   xml:space="preserve"
   y="0cm"
   id="svg10"
   sodipodi:docname="layer1_2.svg"
   inkscape:version="0.92.2 (5c3e80d, 2017-08-06)"><metadata
     id="metadata16"><rdf:RDF><cc:Work
         rdf:about=""><dc:format>image/svg+xml</dc:format><dc:type
           rdf:resource="http://purl.org/dc/dcmitype/StillImage" /></cc:Work></rdf:RDF></metadata><defs
     id="defs14" /><sodipodi:namedview
     pagecolor="#ffffff"
     bordercolor="#666666"
     borderopacity="1"
     objecttolerance="10"
     gridtolerance="10"
     guidetolerance="10"
     inkscape:pageopacity="0"
     inkscape:pageshadow="2"
     inkscape:window-width="2560"
     inkscape:window-height="1537"
     id="namedview12"
     showgrid="false"
     inkscape:zoom="0.79769026"
     inkscape:cx="502.66602"
     inkscape:cy="233.66012"
     inkscape:window-x="1432"
     inkscape:window-y="757"
     inkscape:window-maximized="1"
     inkscape:current-layer="svg10" /><path
     d="M33.5,-0 A7.7988357,7.7988357 120.4089131 0,0 39.8318442,0.6994301 A1.4,1.4 252.1980237 0,1 41.1511976,3.1119907 A15.8941385,15.8941385 50.4562551 0,1 30.7943602,6.7477681 A19.0734518,19.0734518 87.7897163 0,1 23.1548523,5.4686289 A4.4822508,4.4822508 291.0200153 0,0 22.3908635,5.2504928 A13.0006853,13.0006853 281.8843614 0,0 15.0724253,5.8284647 A5.6140258,5.6140258 249.0845433 0,0 14.1269614,6.2958519 A9.35932,9.35932 58.3047541 0,1 -0,0 L33.5,0z"
     fill="rgb(0,0,0)"
     shaper:cutDepth="0"
     shaper:pathType="exterior"
     transform="matrix(1,0,0,-1,0,7.6917505)"
     vector-effect="non-scaling-stroke"
     id="path2"
     style="fill:none;stroke:#000000;stroke-opacity:1" /><path
     d="M40.5288205,1.9387606 L40.4790301,1.933681 40.4739505,1.9834714 40.5237409,1.988551 40.5288205,1.9387606z"
     fill="rgb(255,255,255)"
     shaper:cutDepth="0"
     shaper:pathType="interior"
     stroke="rgb(0,0,0)"
     stroke-width="2"
     transform="matrix(1,0,0,-1,0,7.6917505)"
     vector-effect="non-scaling-stroke"
     id="path4"
     style="fill:none;stroke:#ff0000;stroke-opacity:1" /><path
     d="M40.5587537,1.8029135 L40.5587537,1.8029135 40.5331897,1.8189565 40.5510055,1.6443258 40.5089872,1.6400391 40.4849769,1.8753898 40.4849769,1.8753898 40.5158572,1.8733866 40.5158572,1.8733866 40.5661551,1.8494372 40.5661551,1.8494372 40.6259098,1.7977398 40.6259098,1.7977398 40.7093274,1.7269832 40.7093274,1.7269832 40.7639923,1.7119459 40.7639923,1.7119459 40.8059366,1.7349987 40.8059366,1.7349987 40.818845,1.7852745 40.818845,1.7852745 40.7947464,1.8338608 40.7947464,1.8338608 40.7403269,1.8476961 40.7403576,1.8930997 40.7403576,1.8930997 40.7831975,1.8875127 40.8205295,1.8661855 40.8205295,1.8661855 40.8450365,1.8303837 40.8551332,1.7879949 40.8551332,1.7879949 40.8533357,1.7438966 40.8349923,1.7039739 40.8349923,1.7039739 40.8052805,1.678223 40.7676048,1.666914 40.7676048,1.666914 40.7246946,1.671371 40.7246946,1.671371 40.678258,1.6959598 40.678258,1.6959598 40.608719,1.7569661 40.608719,1.7569661 40.5587537,1.8029135z"
     fill="rgb(255,255,255)"
     shaper:cutDepth="0"
     shaper:pathType="interior"
     stroke="rgb(0,0,0)"
     stroke-width="2"
     transform="matrix(1,0,0,-1,0,7.6917505)"
     vector-effect="non-scaling-stroke"
     id="path6"
     style="fill:none;stroke:#ff0000;stroke-opacity:1" /><path
     d="M40.81467,2.1846179 L40.8175443,2.1564438 40.460025,2.1199699 40.4555649,2.1636883 40.7341482,2.1921092 40.7341482,2.1921092 40.6998063,2.2304477 40.6998063,2.2304477 40.672523,2.2741691 40.7147841,2.2784805 40.7147841,2.2784805 40.763101,2.2186221 40.763101,2.2186221 40.81467,2.1846179z"
     fill="rgb(255,255,255)"
     shaper:cutDepth="0"
     shaper:pathType="interior"
     stroke="rgb(0,0,0)"
     stroke-width="2"
     transform="matrix(1,0,0,-1,0,7.6917505)"
     vector-effect="non-scaling-stroke"
     id="path8"
     style="fill:none;stroke:#ff0000;stroke-opacity:1" /></svg>