<?xml version="1.0" encoding="UTF-8" standalone="no"?>
<!-- Generator: Fusion 360, Shaper Origin Export Add-In, Version 1.4.1  -->

<svg
   xmlns:shaper="http://www.shapertools.com/namespaces/shaper"
   xmlns:dc="http://purl.org/dc/elements/1.1/"
   xmlns:cc="http://creativecommons.org/ns#"
   xmlns:rdf="http://www.w3.org/1999/02/22-rdf-syntax-ns#"
   xmlns:svg="http://www.w3.org/2000/svg"
   xmlns="http://www.w3.org/2000/svg"
   xmlns:sodipodi="http://sodipodi.sourceforge.net/DTD/sodipodi-0.dtd"
   xmlns:inkscape="http://www.inkscape.org/namespaces/inkscape"
   enable-background="new 0 0 36.2772358 5.8877775"
   height="5.8877775cm"
   shaper:fusionaddin="version:1.4.1"
   version="1.1"
   viewBox="0 0 36.2772358 5.8877775"
   width="36.2772358cm"
   x="0cm"
   xml:space="preserve"
   y="0cm"
   id="svg14"
   sodipodi:docname="layer6_1.svg"
   inkscape:version="0.92.2 (5c3e80d, 2017-08-06)"><metadata
     id="metadata20"><rdf:RDF><cc:Work
         rdf:about=""><dc:format>image/svg+xml</dc:format><dc:type
           rdf:resource="http://purl.org/dc/dcmitype/StillImage" /></cc:Work></rdf:RDF></metadata><defs
     id="defs18" /><sodipodi:namedview
     pagecolor="#ffffff"
     bordercolor="#666666"
     borderopacity="1"
     objecttolerance="10"
     gridtolerance="10"
     guidetolerance="10"
     inkscape:pageopacity="0"
     inkscape:pageshadow="2"
     inkscape:window-width="2560"
     inkscape:window-height="1537"
     id="namedview16"
     showgrid="false"
     inkscape:zoom="1.2954866"
     inkscape:cx="635.93849"
     inkscape:cy="141.30021"
     inkscape:window-x="1432"
     inkscape:window-y="757"
     inkscape:window-maximized="1"
     inkscape:current-layer="svg14" /><path
     d="M0.2216955,0.5 A5.2769293,5.2769293 43.4094808 0,1 -1.902415,1.8660504 A2.4902952,2.4902952 224.6858392 0,0 -1.1548091,5.8877775 L-3.3710509,5.4544524 A15.5350318,15.5350318 117.9528884 0,1 -5.5291749,4.0696592 A1.4,1.4 127.4208743 0,1 -4.4366862,1.5788203 A4.7769293,4.7769293 99.9438998 0,0 -0,0 L30.1987922,0 29.5925065,0.5 0.2216955,0.5z"
     fill="rgb(0,0,0)"
     shaper:cutDepth="0"
     shaper:pathType="exterior"
     transform="matrix(1,0,0,-1,6.0784435,5.8877775)"
     vector-effect="non-scaling-stroke"
     id="path2"
     style="fill:none;stroke:#000000;stroke-opacity:1" /><path
     d="M3.0747969,0.275413 L3.0747969,0.275413 3.0223526,0.2592901 3.0223526,0.2592901 3.0038004,0.2351747 2.9960212,0.2056554 2.9960212,0.2056554 3.0012044,0.161444 3.0012044,0.161444 3.0248338,0.127253 3.0248338,0.127253 3.0599203,0.1127529 3.0599203,0.1127529 3.1098044,0.1302412 3.1098044,0.1302412 3.128334,0.1570652 3.1359151,0.1889294 3.1359151,0.1889294 3.1221763,0.2491062 3.1221763,0.2491062 3.0747969,0.275413z"
     fill="rgb(0,0,0)"
     shaper:cutDepth="0"
     shaper:pathType="exterior"
     transform="matrix(1,0,0,-1,6.0784435,5.8877775)"
     vector-effect="non-scaling-stroke"
     id="path4"
     style="fill:none;stroke:#ff0000;stroke-opacity:1" /><path
     d="M-4.9284435,2.9577886 a0.25,0.25 0 1,1 0.5,0 a0.25,0.25 0 1,1 -0.5,0z"
     fill="rgb(255,255,255)"
     shaper:cutDepth="0"
     shaper:pathType="interior"
     stroke="rgb(0,0,0)"
     stroke-width="2"
     transform="matrix(1,0,0,-1,6.0784435,5.8877775)"
     vector-effect="non-scaling-stroke"
     id="path6"
     style="fill:none;stroke:#000000;stroke-opacity:1" /><path
     d="M3.098204,0.4399024 L3.098204,0.4399024 3.1343438,0.4308032 3.164657,0.4093183 3.164657,0.4093183 3.1838253,0.3775809 3.1901979,0.3409433 3.1463755,0.3419784 3.1463755,0.3419784 3.1336756,0.3810668 3.1336756,0.3810668 3.0918651,0.4042287 3.0918651,0.4042287 3.0540009,0.396312 3.0540009,0.396312 3.0169701,0.355671 3.0169701,0.355671 2.9961833,0.2745984 2.9961833,0.2745984 3.0384436,0.306362 3.0384436,0.306362 3.0874803,0.3131389 3.0874803,0.3131389 3.1273062,0.3008661 3.1586399,0.2733627 3.1586399,0.2733627 3.1783492,0.232485 3.1808776,0.1870418 3.1808776,0.1870418 3.1600706,0.1262174 3.1600706,0.1262174 3.1158624,0.086186 3.1158624,0.086186 3.0569817,0.0767323 3.0569817,0.0767323 3.008781,0.0916203 2.9719456,0.1260226 2.9719456,0.1260226 2.9498107,0.1919232 2.9509733,0.2620322 2.9509733,0.2620322 2.9656649,0.3398624 3.0044185,0.4082418 3.0044185,0.4082418 3.0475052,0.4351751 3.098204,0.4399024z"
     fill="rgb(255,255,255)"
     shaper:cutDepth="0"
     shaper:pathType="interior"
     stroke="rgb(0,0,0)"
     stroke-width="2"
     transform="matrix(1,0,0,-1,6.0784435,5.8877775)"
     vector-effect="non-scaling-stroke"
     id="path8"
     style="fill:none;stroke:#ff0000;stroke-opacity:1" /><path
     d="M3.2919594,0.1092038 L3.2868798,0.0594134 3.2370895,0.064493 3.242169,0.1142834 3.2919594,0.1092038z"
     fill="rgb(255,255,255)"
     shaper:cutDepth="0"
     shaper:pathType="interior"
     stroke="rgb(0,0,0)"
     stroke-width="2"
     transform="matrix(1,0,0,-1,6.0784435,5.8877775)"
     vector-effect="non-scaling-stroke"
     id="path10"
     style="fill:none;stroke:#ff0000;stroke-opacity:1" /><path
     d="M3.5237297,0.3964905 L3.5519038,0.3936162 3.5154299,0.0360969 3.4717115,0.040557 3.5001324,0.3191403 3.5001324,0.3191403 3.4556488,0.293248 3.4556488,0.293248 3.4073187,0.2753556 3.4116301,0.3176167 3.4116301,0.3176167 3.4800123,0.3528506 3.4800123,0.3528506 3.5237297,0.3964905z"
     fill="rgb(255,255,255)"
     shaper:cutDepth="0"
     shaper:pathType="interior"
     stroke="rgb(0,0,0)"
     stroke-width="2"
     transform="matrix(1,0,0,-1,6.0784435,5.8877775)"
     vector-effect="non-scaling-stroke"
     id="path12"
     style="fill:none;stroke:#ff0000;stroke-opacity:1" /></svg>