<?xml version="1.0" encoding="UTF-8" standalone="no"?>
<!-- Generator: Fusion 360, Shaper Origin Export Add-In, Version 1.4.1  -->

<svg
   xmlns:shaper="http://www.shapertools.com/namespaces/shaper"
   xmlns:dc="http://purl.org/dc/elements/1.1/"
   xmlns:cc="http://creativecommons.org/ns#"
   xmlns:rdf="http://www.w3.org/1999/02/22-rdf-syntax-ns#"
   xmlns:svg="http://www.w3.org/2000/svg"
   xmlns="http://www.w3.org/2000/svg"
   xmlns:sodipodi="http://sodipodi.sourceforge.net/DTD/sodipodi-0.dtd"
   xmlns:inkscape="http://www.inkscape.org/namespaces/inkscape"
   enable-background="new 0 0 18.9058005 7.6917505"
   height="7.6917505cm"
   shaper:fusionaddin="version:1.4.1"
   version="1.1"
   viewBox="0 0 18.9058005 7.6917505"
   width="18.9058005cm"
   x="0cm"
   xml:space="preserve"
   y="0cm"
   id="svg14"
   sodipodi:docname="layer4_4.svg"
   inkscape:version="0.92.2 (5c3e80d, 2017-08-06)"><metadata
     id="metadata20"><rdf:RDF><cc:Work
         rdf:about=""><dc:format>image/svg+xml</dc:format><dc:type
           rdf:resource="http://purl.org/dc/dcmitype/StillImage" /></cc:Work></rdf:RDF></metadata><defs
     id="defs18" /><sodipodi:namedview
     pagecolor="#ffffff"
     bordercolor="#666666"
     borderopacity="1"
     objecttolerance="10"
     gridtolerance="10"
     guidetolerance="10"
     inkscape:pageopacity="0"
     inkscape:pageshadow="2"
     inkscape:window-width="2560"
     inkscape:window-height="1537"
     id="namedview16"
     showgrid="false"
     inkscape:zoom="1.7577498"
     inkscape:cx="273.03812"
     inkscape:cy="153.30402"
     inkscape:window-x="1432"
     inkscape:window-y="757"
     inkscape:window-maximized="1"
     inkscape:current-layer="svg14" /><path
     d="M14.1269614,6.2958519 A9.35932,9.35932 58.3047541 0,1 -0,0 L10.7124215,0 11.5033735,0.5 9.3483308,0.5 A0.4713873,0.4713873 270 0,0 8.971298,1.2543223 A8.816641,8.816641 143.1145048 0,0 17.4810816,4.6576839 A13.5006074,13.5006074 260.4828553 0,1 17.7977847,4.6084461 L18.9058005,4.996943 A13.0006853,13.0006853 266.437888 0,0 15.0724253,5.8284647 A5.6140258,5.6140258 249.0845433 0,0 14.1269614,6.2958519z"
     fill="rgb(0,0,0)"
     shaper:cutDepth="0"
     shaper:pathType="exterior"
     transform="matrix(1,0,0,-1,0,7.6917505)"
     vector-effect="non-scaling-stroke"
     id="path2"
     style="fill:none;stroke:#000000;stroke-opacity:1" /><path
     d="M7.5806487,1.3186422 L7.4087317,1.4137455 7.4201051,1.3022636 7.5806487,1.3186422z"
     fill="rgb(0,0,0)"
     shaper:cutDepth="0"
     shaper:pathType="exterior"
     transform="matrix(1,0,0,-1,0,7.6917505)"
     vector-effect="non-scaling-stroke"
     id="path4"
     style="fill:none;stroke:#ff0000;stroke-opacity:1" /><path
     d="M7.6229703,0.9038032 L7.4510533,0.9989066 7.4624266,0.8874247 7.6229703,0.9038032z"
     fill="rgb(0,0,0)"
     shaper:cutDepth="0"
     shaper:pathType="exterior"
     transform="matrix(1,0,0,-1,0,7.6917505)"
     vector-effect="non-scaling-stroke"
     id="path6"
     style="fill:none;stroke:#ff0000;stroke-opacity:1" /><path
     d="M7.4268116,0.8396178 L7.3415607,0.8309206 7.3371006,0.874639 7.4223515,0.8833362 7.4065924,1.0378079 7.4466676,1.0418963 7.6939803,0.9029492 7.6976227,0.8672458 7.4668868,0.8437063 7.4717929,0.7956161 7.4317177,0.7915276 7.4268116,0.8396178z"
     fill="rgb(255,255,255)"
     shaper:cutDepth="0"
     shaper:pathType="interior"
     stroke="rgb(0,0,0)"
     stroke-width="2"
     transform="matrix(1,0,0,-1,0,7.6917505)"
     vector-effect="non-scaling-stroke"
     id="path8"
     style="fill:none;stroke:#ff0000;stroke-opacity:1" /><path
     d="M7.3660771,1.0837377 L7.3162867,1.0786582 7.3112071,1.1284486 7.3609975,1.1335281 7.3660771,1.0837377z"
     fill="rgb(255,255,255)"
     shaper:cutDepth="0"
     shaper:pathType="interior"
     stroke="rgb(0,0,0)"
     stroke-width="2"
     transform="matrix(1,0,0,-1,0,7.6917505)"
     vector-effect="non-scaling-stroke"
     id="path10"
     style="fill:none;stroke:#ff0000;stroke-opacity:1" /><path
     d="M7.38449,1.2544568 L7.2992391,1.2457596 7.294779,1.289478 7.3800299,1.2981752 7.3642708,1.4526469 7.404346,1.4567353 7.6516587,1.3177881 7.6553011,1.2820848 7.4245652,1.2585453 7.4294713,1.210455 7.3893961,1.2063666 7.38449,1.2544568z"
     fill="rgb(255,255,255)"
     shaper:cutDepth="0"
     shaper:pathType="interior"
     stroke="rgb(0,0,0)"
     stroke-width="2"
     transform="matrix(1,0,0,-1,0,7.6917505)"
     vector-effect="non-scaling-stroke"
     id="path12"
     style="fill:none;stroke:#ff0000;stroke-opacity:1" /></svg>