<?xml version="1.0" encoding="UTF-8" standalone="no"?>
<!-- Generator: Fusion 360, Shaper Origin Export Add-In, Version 1.4.1  -->

<svg
   xmlns:shaper="http://www.shapertools.com/namespaces/shaper"
   xmlns:dc="http://purl.org/dc/elements/1.1/"
   xmlns:cc="http://creativecommons.org/ns#"
   xmlns:rdf="http://www.w3.org/1999/02/22-rdf-syntax-ns#"
   xmlns:svg="http://www.w3.org/2000/svg"
   xmlns="http://www.w3.org/2000/svg"
   xmlns:sodipodi="http://sodipodi.sourceforge.net/DTD/sodipodi-0.dtd"
   xmlns:inkscape="http://www.inkscape.org/namespaces/inkscape"
   enable-background="new 0 0 30.947442 4.2447468"
   height="4.2447468cm"
   shaper:fusionaddin="version:1.4.1"
   version="1.1"
   viewBox="0 0 30.947442 4.2447468"
   width="30.947442cm"
   x="0cm"
   xml:space="preserve"
   y="0cm"
   id="svg16"
   sodipodi:docname="layer4_5.svg"
   inkscape:version="0.92.2 (5c3e80d, 2017-08-06)"><metadata
     id="metadata22"><rdf:RDF><cc:Work
         rdf:about=""><dc:format>image/svg+xml</dc:format><dc:type
           rdf:resource="http://purl.org/dc/dcmitype/StillImage" /></cc:Work></rdf:RDF></metadata><defs
     id="defs20" /><sodipodi:namedview
     pagecolor="#ffffff"
     bordercolor="#666666"
     borderopacity="1"
     objecttolerance="10"
     gridtolerance="10"
     guidetolerance="10"
     inkscape:pageopacity="0"
     inkscape:pageshadow="2"
     inkscape:window-width="2560"
     inkscape:window-height="1537"
     id="namedview18"
     showgrid="false"
     inkscape:zoom="1.0738098"
     inkscape:cx="434.5148"
     inkscape:cy="270.21158"
     inkscape:window-x="1432"
     inkscape:window-y="757"
     inkscape:window-maximized="1"
     inkscape:current-layer="svg16" /><path
     d="M13.5806035,1.1261394 A1.1,1.1 1.3616519 0,1 11.381115,1.0789807 A0.4775263,0.4775263 12.2664525 0,0 10.9144906,0.5 L0.790952,0.5 0,-0 22.7875785,0 A7.7988357,7.7988357 120.4089131 0,0 29.1194226,0.6994301 A1.4,1.4 252.1980237 0,1 30.4387761,3.1119907 A15.8941385,15.8941385 50.4562551 0,1 28.8839128,4.2447468 L28.0618412,4.1608796 A15.3941385,15.3941385 59.805243 0,0 28.131022,4.1203825 A1.3818073,1.3818073 59.5068847 0,0 27.3306774,1.5514484 A8.2988357,8.2988357 85.8845451 0,1 22.6539514,0.5 L14.3713288,0.5 A0.8123567,0.8123567 270 0,0 13.5806035,1.1261394z"
     fill="rgb(0,0,0)"
     shaper:cutDepth="0"
     shaper:pathType="exterior"
     transform="matrix(1,0,0,-1,-0,4.2447468)"
     vector-effect="non-scaling-stroke"
     id="path2"
     style="fill:none;stroke:#000000;stroke-opacity:1" /><path
     d="M20.875122,0.1291161 L20.984847,0.29209 20.8727981,0.2904763 20.875122,0.1291161z"
     fill="rgb(0,0,0)"
     shaper:cutDepth="0"
     shaper:pathType="exterior"
     transform="matrix(1,0,0,-1,-0,4.2447468)"
     vector-effect="non-scaling-stroke"
     id="path4"
     style="fill:none;stroke:#ff0000;stroke-opacity:1" /><path
     d="M12.2309141,1.1 a0.25,0.25 0 1,1 0.5,0 a0.25,0.25 0 1,1 -0.5,0z"
     fill="rgb(255,255,255)"
     shaper:cutDepth="0"
     shaper:pathType="interior"
     stroke="rgb(0,0,0)"
     stroke-width="2"
     transform="matrix(1,0,0,-1,-0,4.2447468)"
     vector-effect="non-scaling-stroke"
     id="path6"
     style="fill:none;stroke:#000000;stroke-opacity:1" /><path
     d="M29.297442,2.0323965 a0.25,0.25 0 1,1 0.5,0 a0.25,0.25 0 1,1 -0.5,0z"
     fill="rgb(255,255,255)"
     shaper:cutDepth="0"
     shaper:pathType="interior"
     stroke="rgb(0,0,0)"
     stroke-width="2"
     transform="matrix(1,0,0,-1,-0,4.2447468)"
     vector-effect="non-scaling-stroke"
     id="path8"
     style="fill:none;stroke:#000000;stroke-opacity:1" /><path
     d="M20.8282772,0.3301225 L20.8270432,0.4158069 20.8709839,0.4164398 20.872218,0.3307553 21.0274753,0.3329913 21.0280554,0.2927123 20.8680823,0.0584507 20.8321973,0.0579339 20.8288573,0.2898434 20.7805225,0.2891473 20.7799424,0.3294263 20.8282772,0.3301225z"
     fill="rgb(255,255,255)"
     shaper:cutDepth="0"
     shaper:pathType="interior"
     stroke="rgb(0,0,0)"
     stroke-width="2"
     transform="matrix(1,0,0,-1,-0,4.2447468)"
     vector-effect="non-scaling-stroke"
     id="path10"
     style="fill:none;stroke:#ff0000;stroke-opacity:1" /><path
     d="M20.6598126,0.3633444 L20.6590919,0.4133881 20.7091355,0.4141088 20.7098562,0.3640652 20.6598126,0.3633444z"
     fill="rgb(255,255,255)"
     shaper:cutDepth="0"
     shaper:pathType="interior"
     stroke="rgb(0,0,0)"
     stroke-width="2"
     transform="matrix(1,0,0,-1,-0,4.2447468)"
     vector-effect="non-scaling-stroke"
     id="path12"
     style="fill:none;stroke:#ff0000;stroke-opacity:1" /><path
     d="M20.4798233,0.4169104 L20.4798233,0.4169104 20.5224029,0.4113301 20.5599207,0.3907174 20.5599207,0.3907174 20.5851213,0.3583183 20.5962396,0.3187232 20.550158,0.3141528 20.550158,0.3141528 20.5256273,0.364464 20.5256273,0.364464 20.4803437,0.3807813 20.4803437,0.3807813 20.4509595,0.3742971 20.4269828,0.3560845 20.4269828,0.3560845 20.4103238,0.3262869 20.4059266,0.2922981 20.4059266,0.2922981 20.4110189,0.2605151 20.4278969,0.2332822 20.4278969,0.2332822 20.4534545,0.2169802 20.4835019,0.2123523 20.4835019,0.2123523 20.5216891,0.2225468 20.5216891,0.2225468 20.5481814,0.2479554 20.5895143,0.243179 20.5574973,0.058861 20.3795372,0.0562979 20.3789325,0.0982858 20.52174,0.1003425 20.5396399,0.1968017 20.5396399,0.1968017 20.4723434,0.1733692 20.4723434,0.1733692 20.4292901,0.1807564 20.3927824,0.2046974 20.3927824,0.2046974 20.3675653,0.242723 20.3593568,0.2877208 20.3593568,0.2877208 20.3655272,0.3323114 20.3864647,0.3721043 20.3864647,0.3721043 20.4276775,0.4057514 20.4798233,0.4169104z"
     fill="rgb(255,255,255)"
     shaper:cutDepth="0"
     shaper:pathType="interior"
     stroke="rgb(0,0,0)"
     stroke-width="2"
     transform="matrix(1,0,0,-1,-0,4.2447468)"
     vector-effect="non-scaling-stroke"
     id="path14"
     style="fill:none;stroke:#ff0000;stroke-opacity:1" /></svg>