<?xml version="1.0" encoding="UTF-8" standalone="no"?>
<!-- Generator: Fusion 360, Shaper Origin Export Add-In, Version 1.4.1  -->

<svg
   xmlns:shaper="http://www.shapertools.com/namespaces/shaper"
   xmlns:dc="http://purl.org/dc/elements/1.1/"
   xmlns:cc="http://creativecommons.org/ns#"
   xmlns:rdf="http://www.w3.org/1999/02/22-rdf-syntax-ns#"
   xmlns:svg="http://www.w3.org/2000/svg"
   xmlns="http://www.w3.org/2000/svg"
   xmlns:sodipodi="http://sodipodi.sourceforge.net/DTD/sodipodi-0.dtd"
   xmlns:inkscape="http://www.inkscape.org/namespaces/inkscape"
   enable-background="new 0 0 30.947442 4.2447468"
   height="4.2447468cm"
   shaper:fusionaddin="version:1.4.1"
   version="1.1"
   viewBox="0 0 30.947442 4.2447468"
   width="30.947442cm"
   x="0cm"
   xml:space="preserve"
   y="0cm"
   id="svg14"
   sodipodi:docname="layer2_5.svg"
   inkscape:version="0.92.2 (5c3e80d, 2017-08-06)"><metadata
     id="metadata20"><rdf:RDF><cc:Work
         rdf:about=""><dc:format>image/svg+xml</dc:format><dc:type
           rdf:resource="http://purl.org/dc/dcmitype/StillImage" /></cc:Work></rdf:RDF></metadata><defs
     id="defs18" /><sodipodi:namedview
     pagecolor="#ffffff"
     bordercolor="#666666"
     borderopacity="1"
     objecttolerance="10"
     gridtolerance="10"
     guidetolerance="10"
     inkscape:pageopacity="0"
     inkscape:pageshadow="2"
     inkscape:window-width="2560"
     inkscape:window-height="1537"
     id="namedview16"
     showgrid="false"
     inkscape:zoom="1.0738098"
     inkscape:cx="527.29992"
     inkscape:cy="67.621199"
     inkscape:window-x="1432"
     inkscape:window-y="757"
     inkscape:window-maximized="1"
     inkscape:current-layer="svg14" /><path
     d="M13.5806035,1.1261394 A1.1,1.1 1.3616519 0,1 11.381115,1.0789807 A0.4775263,0.4775263 12.2664525 0,0 10.9144906,0.5 L0.790952,0.5 0,-0 22.7875785,0 A7.7988357,7.7988357 120.4089131 0,0 29.1194226,0.6994301 A1.4,1.4 252.1980237 0,1 30.4387761,3.1119907 A15.8941385,15.8941385 50.4562551 0,1 28.8839128,4.2447468 L28.0618412,4.1608796 A15.3941385,15.3941385 59.805243 0,0 28.131022,4.1203825 A1.3818073,1.3818073 59.5068847 0,0 27.3306774,1.5514484 A8.2988357,8.2988357 85.8845451 0,1 22.6539514,0.5 L14.3713288,0.5 A0.8123567,0.8123567 270 0,0 13.5806035,1.1261394z"
     fill="rgb(0,0,0)"
     shaper:cutDepth="0"
     shaper:pathType="exterior"
     transform="matrix(1,0,0,-1,-0,4.2447468)"
     vector-effect="non-scaling-stroke"
     id="path2"
     style="fill:none;stroke:#000000;stroke-opacity:1" /><path
     d="M28.947442,2.0323965 a0.6,0.6 0 1,1 1.2,0 a0.6,0.6 0 1,1 -1.2,0z"
     fill="rgb(255,255,255)"
     shaper:cutDepth="0"
     shaper:pathType="interior"
     stroke="rgb(0,0,0)"
     stroke-width="2"
     transform="matrix(1,0,0,-1,-0,4.2447468)"
     vector-effect="non-scaling-stroke"
     id="path4"
     style="fill:none;stroke:#000000;stroke-opacity:1" /><path
     d="M11.8809141,1.1 a0.6,0.6 0 1,1 1.2,0 a0.6,0.6 0 1,1 -1.2,0z"
     fill="rgb(255,255,255)"
     shaper:cutDepth="0"
     shaper:pathType="interior"
     stroke="rgb(0,0,0)"
     stroke-width="2"
     transform="matrix(1,0,0,-1,-0,4.2447468)"
     vector-effect="non-scaling-stroke"
     id="path6"
     style="fill:none;stroke:#000000;stroke-opacity:1" /><path
     d="M20.6560074,0.3640429 L20.6552866,0.4140865 20.7053303,0.4148073 20.706051,0.3647636 20.6560074,0.3640429z"
     fill="rgb(255,255,255)"
     shaper:cutDepth="0"
     shaper:pathType="interior"
     stroke="rgb(0,0,0)"
     stroke-width="2"
     transform="matrix(1,0,0,-1,-0,4.2447468)"
     vector-effect="non-scaling-stroke"
     id="path8"
     style="fill:none;stroke:#ff0000;stroke-opacity:1" /><path
     d="M20.4760181,0.4176088 L20.4760181,0.4176088 20.5185977,0.4120286 20.5561155,0.3914158 20.5561155,0.3914158 20.5813161,0.3590168 20.5924344,0.3194216 20.5463528,0.3148513 20.5463528,0.3148513 20.5218221,0.3651624 20.5218221,0.3651624 20.4765384,0.3814798 20.4765384,0.3814798 20.4471543,0.3749955 20.4231776,0.356783 20.4231776,0.356783 20.4065185,0.3269854 20.4021213,0.2929966 20.4021213,0.2929966 20.4072137,0.2612135 20.4240916,0.2339807 20.4240916,0.2339807 20.4496493,0.2176786 20.4796967,0.2130508 20.4796967,0.2130508 20.5178839,0.2232453 20.5178839,0.2232453 20.5443762,0.2486539 20.585709,0.2438775 20.5536921,0.0595594 20.375732,0.0569964 20.3751273,0.0989842 20.5179347,0.101041 20.5358346,0.1975002 20.5358346,0.1975002 20.4685381,0.1740677 20.4685381,0.1740677 20.4254849,0.1814549 20.3889772,0.2053959 20.3889772,0.2053959 20.3637601,0.2434214 20.3555516,0.2884192 20.3555516,0.2884192 20.361722,0.3330099 20.3826595,0.3728027 20.3826595,0.3728027 20.4238723,0.4064499 20.4760181,0.4176088z"
     fill="rgb(255,255,255)"
     shaper:cutDepth="0"
     shaper:pathType="interior"
     stroke="rgb(0,0,0)"
     stroke-width="2"
     transform="matrix(1,0,0,-1,-0,4.2447468)"
     vector-effect="non-scaling-stroke"
     id="path10"
     style="fill:none;stroke:#ff0000;stroke-opacity:1" /><path
     d="M20.9350173,0.3520684 L20.9350173,0.3520684 20.9532273,0.3761368 20.7777084,0.373609 20.7771002,0.4158409 21.0136479,0.4192477 21.0136479,0.4192477 21.008961,0.3886595 21.008961,0.3886595 20.9807189,0.3406404 20.9807189,0.3406404 20.9240102,0.2856188 20.9240102,0.2856188 20.8462526,0.2086854 20.8462526,0.2086854 20.8265081,0.1555391 20.8265081,0.1555391 20.8458175,0.1117452 20.8458175,0.1117452 20.8947769,0.0945042 20.8947769,0.0945042 20.9452787,0.1142764 20.9452787,0.1142764 20.9638044,0.1672831 21.0090325,0.1632953 21.0090325,0.1632953 20.999733,0.1211053 20.9752333,0.0857742 20.9752333,0.0857742 20.9374318,0.0644808 20.8943243,0.0581169 20.8943243,0.0581169 20.8505504,0.0637511 20.8123785,0.0855041 20.8123785,0.0855041 20.7893151,0.1173472 20.7813327,0.1558651 20.7813327,0.1558651 20.7895126,0.1982237 20.7895126,0.1982237 20.8180551,0.2423404 20.8180551,0.2423404 20.88489,0.3062978 20.88489,0.3062978 20.9350173,0.3520684z"
     fill="rgb(255,255,255)"
     shaper:cutDepth="0"
     shaper:pathType="interior"
     stroke="rgb(0,0,0)"
     stroke-width="2"
     transform="matrix(1,0,0,-1,-0,4.2447468)"
     vector-effect="non-scaling-stroke"
     id="path12"
     style="fill:none;stroke:#ff0000;stroke-opacity:1" /></svg>