<?xml version="1.0" encoding="UTF-8" standalone="no"?>
<!-- Generator: Fusion 360, Shaper Origin Export Add-In, Version 1.4.1  -->

<svg
   xmlns:shaper="http://www.shapertools.com/namespaces/shaper"
   xmlns:dc="http://purl.org/dc/elements/1.1/"
   xmlns:cc="http://creativecommons.org/ns#"
   xmlns:rdf="http://www.w3.org/1999/02/22-rdf-syntax-ns#"
   xmlns:svg="http://www.w3.org/2000/svg"
   xmlns="http://www.w3.org/2000/svg"
   xmlns:sodipodi="http://sodipodi.sourceforge.net/DTD/sodipodi-0.dtd"
   xmlns:inkscape="http://www.inkscape.org/namespaces/inkscape"
   enable-background="new 0 0 22.221011 8.3239293"
   height="8.3239293cm"
   shaper:fusionaddin="version:1.4.1"
   version="1.1"
   viewBox="0 0 22.221011 8.3239293"
   width="22.221011cm"
   x="0cm"
   xml:space="preserve"
   y="0cm"
   id="svg6"
   sodipodi:docname="layer2_2.svg"
   inkscape:version="0.92.2 (5c3e80d, 2017-08-06)"><metadata
     id="metadata12"><rdf:RDF><cc:Work
         rdf:about=""><dc:format>image/svg+xml</dc:format><dc:type
           rdf:resource="http://purl.org/dc/dcmitype/StillImage" /></cc:Work></rdf:RDF></metadata><defs
     id="defs10" /><sodipodi:namedview
     pagecolor="#ffffff"
     bordercolor="#666666"
     borderopacity="1"
     objecttolerance="10"
     gridtolerance="10"
     guidetolerance="10"
     inkscape:pageopacity="0"
     inkscape:pageshadow="2"
     inkscape:window-width="2560"
     inkscape:window-height="1537"
     id="namedview8"
     showgrid="false"
     inkscape:zoom="1.4955066"
     inkscape:cx="271.95257"
     inkscape:cy="162.57822"
     inkscape:window-x="1432"
     inkscape:window-y="757"
     inkscape:window-maximized="1"
     inkscape:current-layer="svg6" /><path
     d="M-0.6539013,0.4358847 L0,0 3.2841613,0.335048 A11.322979,11.322979 16.2198947 0,1 1.1364865,4.3896706 A11.5044568,11.5044568 41.1492748 0,1 -13.5683698,6.6095925 A9.0418583,9.0418583 314.9337788 0,0 -17.4760274,4.3150095 L-18.9368496,3.5231046 A9.5418583,9.5418583 276.1225188 0,1 -13.2574844,6.2137313 A11.0044568,11.0044568 121.3860479 0,0 0.5125818,4.334374 A3.0811122,3.0811122 24.6691182 0,0 -0.6539013,0.4358847z"
     fill="rgb(0,0,0)"
     shaper:cutDepth="0"
     shaper:pathType="exterior"
     transform="matrix(1,0,0,-1,18.9368496,8.3239293)"
     vector-effect="non-scaling-stroke"
     id="path2"
     style="fill:none;stroke:#000000;stroke-opacity:1" /><path
     d="M0.7256385,1.4666105 a0.6,0.6 0 1,1 1.2,0 a0.6,0.6 0 1,1 -1.2,0z"
     fill="rgb(255,255,255)"
     shaper:cutDepth="0"
     shaper:pathType="interior"
     stroke="rgb(0,0,0)"
     stroke-width="2"
     transform="matrix(1,0,0,-1,18.9368496,8.3239293)"
     vector-effect="non-scaling-stroke"
     id="path4"
     style="fill:none;stroke:#000000;stroke-opacity:1" /></svg>