<?xml version="1.0" encoding="UTF-8" standalone="no"?>
<!-- Generator: Fusion 360, Shaper Origin Export Add-In, Version 1.4.1  -->

<svg
   xmlns:shaper="http://www.shapertools.com/namespaces/shaper"
   xmlns:dc="http://purl.org/dc/elements/1.1/"
   xmlns:cc="http://creativecommons.org/ns#"
   xmlns:rdf="http://www.w3.org/1999/02/22-rdf-syntax-ns#"
   xmlns:svg="http://www.w3.org/2000/svg"
   xmlns="http://www.w3.org/2000/svg"
   xmlns:sodipodi="http://sodipodi.sourceforge.net/DTD/sodipodi-0.dtd"
   xmlns:inkscape="http://www.inkscape.org/namespaces/inkscape"
   enable-background="new 0 0 36.2955849 4.2935754"
   height="4.2935754cm"
   shaper:fusionaddin="version:1.4.1"
   version="1.1"
   viewBox="0 0 36.2955849 4.2935754"
   width="36.2955849cm"
   x="0cm"
   xml:space="preserve"
   y="0cm"
   id="svg12"
   sodipodi:docname="layer3_1.svg"
   inkscape:version="0.92.2 (5c3e80d, 2017-08-06)"><metadata
     id="metadata18"><rdf:RDF><cc:Work
         rdf:about=""><dc:format>image/svg+xml</dc:format><dc:type
           rdf:resource="http://purl.org/dc/dcmitype/StillImage" /></cc:Work></rdf:RDF></metadata><defs
     id="defs16" /><sodipodi:namedview
     pagecolor="#ffffff"
     bordercolor="#666666"
     borderopacity="1"
     objecttolerance="10"
     gridtolerance="10"
     guidetolerance="10"
     inkscape:pageopacity="0"
     inkscape:pageshadow="2"
     inkscape:window-width="2560"
     inkscape:window-height="1537"
     id="namedview14"
     showgrid="false"
     inkscape:zoom="0.64741583"
     inkscape:cx="641.63215"
     inkscape:cy="221.21548"
     inkscape:window-x="1432"
     inkscape:window-y="757"
     inkscape:window-maximized="1"
     inkscape:current-layer="svg12" /><path
     d="M0.2216955,0.5 A5.2769293,5.2769293 43.4094808 0,1 -1.902415,1.8660504 L-2.7955849,1.5803366 A4.7769293,4.7769293 80.1619717 0,0 0,-0 L33.5,0 A11.322979,11.322979 10.3947708 0,1 31.935453,4.0047461 L31.1369476,4.2935754 A3.0811122,3.0811122 19.5056357 0,0 29.5925065,0.5 L0.2216955,0.5z"
     fill="rgb(0,0,0)"
     shaper:cutDepth="0"
     shaper:pathType="exterior"
     transform="matrix(1,0,0,-1,2.7955849,4.2935754)"
     vector-effect="non-scaling-stroke"
     id="path2"
     style="fill:none;stroke:#000000;stroke-opacity:1" /><path
     d="M3.2829141,0.1137101 L3.2778345,0.0639197 3.2280441,0.0689993 3.2331237,0.1187897 3.2829141,0.1137101z"
     fill="rgb(255,255,255)"
     shaper:cutDepth="0"
     shaper:pathType="interior"
     stroke="rgb(0,0,0)"
     stroke-width="2"
     transform="matrix(1,0,0,-1,2.7955849,4.2935754)"
     vector-effect="non-scaling-stroke"
     id="path4"
     style="fill:none;stroke:#ff0000;stroke-opacity:1" /><path
     d="M3.5146844,0.4009968 L3.5428584,0.3981225 3.5063845,0.0406032 3.4626662,0.0450633 3.491087,0.3236466 3.491087,0.3236466 3.4466035,0.2977542 3.4466035,0.2977542 3.3982733,0.2798619 3.4025848,0.322123 3.4025848,0.322123 3.470967,0.3573569 3.470967,0.3573569 3.5146844,0.4009968z"
     fill="rgb(255,255,255)"
     shaper:cutDepth="0"
     shaper:pathType="interior"
     stroke="rgb(0,0,0)"
     stroke-width="2"
     transform="matrix(1,0,0,-1,2.7955849,4.2935754)"
     vector-effect="non-scaling-stroke"
     id="path6"
     style="fill:none;stroke:#ff0000;stroke-opacity:1" /><path
     d="M3.0396537,0.0818382 L3.0396537,0.0818382 2.9986771,0.092614 2.9646602,0.1177109 2.9646602,0.1177109 2.9433459,0.1529727 2.9367051,0.1936943 2.9810182,0.1950633 2.9810182,0.1950633 3.0011784,0.1388942 3.0011784,0.1388942 3.0435885,0.1180025 3.0435885,0.1180025 3.0978668,0.134061 3.0978668,0.134061 3.1245205,0.1848407 3.1245205,0.1848407 3.1099144,0.2365167 3.1099144,0.2365167 3.0618758,0.2611729 3.0618758,0.2611729 3.0305345,0.2594621 3.0393071,0.2973416 3.0393071,0.2973416 3.046301,0.2961373 3.046301,0.2961373 3.0980639,0.3055809 3.0980639,0.3055809 3.11724,0.3232171 3.1249929,0.3482341 3.1249929,0.3482341 3.1127836,0.3897266 3.1127836,0.3897266 3.0723759,0.4098004 3.0723759,0.4098004 3.0282366,0.3981066 3.0282366,0.3981066 3.0014712,0.3522464 2.9585458,0.3644787 2.9585458,0.3644787 2.9745677,0.4005748 3.0019281,0.4288898 3.0019281,0.4288898 3.0369051,0.4440565 3.0750716,0.4458458 3.0750716,0.4458458 3.127472,0.4278614 3.127472,0.4278614 3.1615156,0.3899085 3.1615156,0.3899085 3.1698265,0.3426786 3.1698265,0.3426786 3.153153,0.301924 3.153153,0.301924 3.1134056,0.2755485 3.1134056,0.2755485 3.1593824,0.2403047 3.1593824,0.2403047 3.1710097,0.1810795 3.1710097,0.1810795 3.1580691,0.1387856 3.1289411,0.1054911 3.1289411,0.1054911 3.0867089,0.0847638 3.0396537,0.0818382z"
     fill="rgb(255,255,255)"
     shaper:cutDepth="0"
     shaper:pathType="interior"
     stroke="rgb(0,0,0)"
     stroke-width="2"
     transform="matrix(1,0,0,-1,2.7955849,4.2935754)"
     vector-effect="non-scaling-stroke"
     id="path8"
     style="fill:none;stroke:#ff0000;stroke-opacity:1" /><path
     d="M31.4164356,1.324495 a0.25,0.25 0 1,1 0.5,0 a0.25,0.25 0 1,1 -0.5,0z"
     fill="rgb(255,255,255)"
     shaper:cutDepth="0"
     shaper:pathType="interior"
     stroke="rgb(0,0,0)"
     stroke-width="2"
     transform="matrix(1,0,0,-1,2.7955849,4.2935754)"
     vector-effect="non-scaling-stroke"
     id="path10"
     style="fill:none;stroke:#000000;stroke-opacity:1" /></svg>