<?xml version="1.0" encoding="UTF-8" standalone="no"?>
<!-- Generator: Fusion 360, Shaper Origin Export Add-In, Version 1.4.1  -->

<svg
   xmlns:shaper="http://www.shapertools.com/namespaces/shaper"
   xmlns:dc="http://purl.org/dc/elements/1.1/"
   xmlns:cc="http://creativecommons.org/ns#"
   xmlns:rdf="http://www.w3.org/1999/02/22-rdf-syntax-ns#"
   xmlns:svg="http://www.w3.org/2000/svg"
   xmlns="http://www.w3.org/2000/svg"
   xmlns:sodipodi="http://sodipodi.sourceforge.net/DTD/sodipodi-0.dtd"
   xmlns:inkscape="http://www.inkscape.org/namespaces/inkscape"
   enable-background="new 0 0 21.5873906 8.3239293"
   height="8.3239293cm"
   shaper:fusionaddin="version:1.4.1"
   version="1.1"
   viewBox="0 0 21.5873906 8.3239293"
   width="21.5873906cm"
   x="0cm"
   xml:space="preserve"
   y="0cm"
   id="svg4"
   sodipodi:docname="layer8_2.svg"
   inkscape:version="0.92.2 (5c3e80d, 2017-08-06)"><metadata
     id="metadata10"><rdf:RDF><cc:Work
         rdf:about=""><dc:format>image/svg+xml</dc:format><dc:type
           rdf:resource="http://purl.org/dc/dcmitype/StillImage" /></cc:Work></rdf:RDF></metadata><defs
     id="defs8" /><sodipodi:namedview
     pagecolor="#ffffff"
     bordercolor="#666666"
     borderopacity="1"
     objecttolerance="10"
     gridtolerance="10"
     guidetolerance="10"
     inkscape:pageopacity="0"
     inkscape:pageshadow="2"
     inkscape:window-width="2560"
     inkscape:window-height="1537"
     id="namedview6"
     showgrid="false"
     inkscape:zoom="1.5394017"
     inkscape:cx="346.60225"
     inkscape:cy="120.68467"
     inkscape:window-x="1432"
     inkscape:window-y="757"
     inkscape:window-maximized="1"
     inkscape:current-layer="svg4" /><path
     d="M-17.4760274,4.3150095 L-18.3032293,3.8665872 A9.2918583,9.2918583 280.2367146 0,1 -13.412643,6.4118799 A11.2544568,11.2544568 121.5350052 0,0 0.946011,4.2277114 A11.072979,11.072979 39.5816472 0,0 2.9561734,0.5528845 L-0.3269506,0.2179423 0,0 3.2841613,0.335048 A11.322979,11.322979 16.2198947 0,1 1.1364865,4.3896706 A11.5044568,11.5044568 41.1492748 0,1 -13.5683698,6.6095925 A9.0418583,9.0418583 314.9337788 0,0 -17.4760274,4.3150095z"
     fill="rgb(0,0,0)"
     shaper:cutDepth="0"
     shaper:pathType="exterior"
     transform="matrix(1,0,0,-1,18.3032293,8.3239293)"
     vector-effect="non-scaling-stroke"
     id="path2"
     style="fill:none;stroke:#000000;stroke-opacity:1" /></svg>