<?xml version="1.0" encoding="UTF-8" standalone="no"?>
<!-- Generator: Fusion 360, Shaper Origin Export Add-In, Version 1.4.1  -->

<svg
   xmlns:shaper="http://www.shapertools.com/namespaces/shaper"
   xmlns:dc="http://purl.org/dc/elements/1.1/"
   xmlns:cc="http://creativecommons.org/ns#"
   xmlns:rdf="http://www.w3.org/1999/02/22-rdf-syntax-ns#"
   xmlns:svg="http://www.w3.org/2000/svg"
   xmlns="http://www.w3.org/2000/svg"
   xmlns:sodipodi="http://sodipodi.sourceforge.net/DTD/sodipodi-0.dtd"
   xmlns:inkscape="http://www.inkscape.org/namespaces/inkscape"
   enable-background="new 0 0 28.8212938 2.2"
   height="2.2cm"
   shaper:fusionaddin="version:1.4.1"
   version="1.1"
   viewBox="0 0 28.8212938 2.2"
   width="28.8212938cm"
   x="0cm"
   xml:space="preserve"
   y="0cm"
   id="svg12"
   sodipodi:docname="layer5_5.svg"
   inkscape:version="0.92.2 (5c3e80d, 2017-08-06)"><metadata
     id="metadata18"><rdf:RDF><cc:Work
         rdf:about=""><dc:format>image/svg+xml</dc:format><dc:type
           rdf:resource="http://purl.org/dc/dcmitype/StillImage" /></cc:Work></rdf:RDF></metadata><defs
     id="defs16" /><sodipodi:namedview
     pagecolor="#ffffff"
     bordercolor="#666666"
     borderopacity="1"
     objecttolerance="10"
     gridtolerance="10"
     guidetolerance="10"
     inkscape:pageopacity="0"
     inkscape:pageshadow="2"
     inkscape:window-width="2560"
     inkscape:window-height="1537"
     id="namedview14"
     showgrid="false"
     inkscape:zoom="1.1530248"
     inkscape:cx="389.95738"
     inkscape:cy="150.08678"
     inkscape:window-x="1432"
     inkscape:window-y="757"
     inkscape:window-maximized="1"
     inkscape:current-layer="svg12" /><path
     d="M14.7458099,1.1261394 A1.1,1.1 1.3616519 0,1 12.5463214,1.0789807 A0.4775263,0.4775263 12.2664525 0,0 12.079697,0.5 L0.790952,0.5 -0,-0 23.9527849,-0 A7.7988357,7.7988357 120.4089131 0,0 28.8212938,1.0182752 L28.3890907,1.5584406 A8.2988357,8.2988357 86.6234357 0,1 23.8191578,0.5 L15.5365352,0.5 A0.8123567,0.8123567 270 0,0 14.7458099,1.1261394z"
     fill="rgb(0,0,0)"
     shaper:cutDepth="0"
     shaper:pathType="exterior"
     transform="matrix(1,0,0,-1,0,2.2)"
     vector-effect="non-scaling-stroke"
     id="path2"
     style="fill:none;stroke:#000000;stroke-opacity:1" /><path
     d="M22.0687418,0.4297691 L22.0687418,0.4297691 22.1113214,0.4241889 22.1488392,0.4035761 22.1488392,0.4035761 22.1740397,0.371177 22.185158,0.3315819 22.1390765,0.3270115 22.1390765,0.3270115 22.1145457,0.3773227 22.1145457,0.3773227 22.0692621,0.39364 22.0692621,0.39364 22.0398779,0.3871558 22.0159013,0.3689433 22.0159013,0.3689433 21.9992422,0.3391456 21.994845,0.3051569 21.994845,0.3051569 21.9999373,0.2733738 22.0168153,0.246141 22.0168153,0.246141 22.0423729,0.2298389 22.0724203,0.225211 22.0724203,0.225211 22.1106076,0.2354056 22.1106076,0.2354056 22.1370999,0.2608141 22.1784327,0.2560377 22.1464157,0.0717197 21.9684556,0.0691567 21.9678509,0.1111445 22.1106584,0.1132012 22.1285583,0.2096604 22.1285583,0.2096604 22.0612618,0.1862279 22.0612618,0.1862279 22.0182085,0.1936151 21.9817008,0.2175562 21.9817008,0.2175562 21.9564837,0.2555817 21.9482752,0.3005795 21.9482752,0.3005795 21.9544456,0.3451701 21.9753832,0.384963 21.9753832,0.384963 22.0165959,0.4186101 22.0687418,0.4297691z"
     fill="rgb(255,255,255)"
     shaper:cutDepth="0"
     shaper:pathType="interior"
     stroke="rgb(0,0,0)"
     stroke-width="2"
     transform="matrix(1,0,0,-1,0,2.2)"
     vector-effect="non-scaling-stroke"
     id="path4"
     style="fill:none;stroke:#ff0000;stroke-opacity:1" /><path
     d="M21.6517928,0.4237642 L21.6517928,0.4237642 21.6943724,0.4181839 21.7318902,0.3975711 21.7318902,0.3975711 21.7570908,0.3651721 21.7682091,0.3255769 21.7221275,0.3210066 21.7221275,0.3210066 21.6975968,0.3713177 21.6975968,0.3713177 21.6523131,0.3876351 21.6523131,0.3876351 21.622929,0.3811509 21.5989523,0.3629383 21.5989523,0.3629383 21.5822932,0.3331407 21.577896,0.2991519 21.577896,0.2991519 21.5829884,0.2673688 21.5998664,0.240136 21.5998664,0.240136 21.625424,0.2238339 21.6554714,0.2192061 21.6554714,0.2192061 21.6936586,0.2294006 21.6936586,0.2294006 21.7201509,0.2548092 21.7614838,0.2500328 21.7294668,0.0657147 21.5515067,0.0631517 21.550902,0.1051395 21.6937094,0.1071963 21.7116093,0.2036555 21.7116093,0.2036555 21.6443128,0.180223 21.6443128,0.180223 21.6012596,0.1876102 21.5647519,0.2115512 21.5647519,0.2115512 21.5395348,0.2495767 21.5313263,0.2945746 21.5313263,0.2945746 21.5374967,0.3391652 21.5584342,0.3789581 21.5584342,0.3789581 21.599647,0.4126052 21.6517928,0.4237642z"
     fill="rgb(255,255,255)"
     shaper:cutDepth="0"
     shaper:pathType="interior"
     stroke="rgb(0,0,0)"
     stroke-width="2"
     transform="matrix(1,0,0,-1,0,2.2)"
     vector-effect="non-scaling-stroke"
     id="path6"
     style="fill:none;stroke:#ff0000;stroke-opacity:1" /><path
     d="M21.8317821,0.3701982 L21.8310613,0.4202419 21.881105,0.4209626 21.8818257,0.3709189 21.8317821,0.3701982z"
     fill="rgb(255,255,255)"
     shaper:cutDepth="0"
     shaper:pathType="interior"
     stroke="rgb(0,0,0)"
     stroke-width="2"
     transform="matrix(1,0,0,-1,0,2.2)"
     vector-effect="non-scaling-stroke"
     id="path8"
     style="fill:none;stroke:#ff0000;stroke-opacity:1" /><path
     d="M13.3961205,1.1 a0.25,0.25 0 1,1 0.5,0 a0.25,0.25 0 1,1 -0.5,0z"
     fill="rgb(255,255,255)"
     shaper:cutDepth="0"
     shaper:pathType="interior"
     stroke="rgb(0,0,0)"
     stroke-width="2"
     transform="matrix(1,0,0,-1,0,2.2)"
     vector-effect="non-scaling-stroke"
     id="path10"
     style="fill:none;stroke:#000000;stroke-opacity:1" /></svg>