<?xml version="1.0" encoding="UTF-8" standalone="no"?>
<!-- Generator: Fusion 360, Shaper Origin Export Add-In, Version 1.4.1  -->

<svg
   xmlns:shaper="http://www.shapertools.com/namespaces/shaper"
   xmlns:dc="http://purl.org/dc/elements/1.1/"
   xmlns:cc="http://creativecommons.org/ns#"
   xmlns:rdf="http://www.w3.org/1999/02/22-rdf-syntax-ns#"
   xmlns:svg="http://www.w3.org/2000/svg"
   xmlns="http://www.w3.org/2000/svg"
   xmlns:sodipodi="http://sodipodi.sourceforge.net/DTD/sodipodi-0.dtd"
   xmlns:inkscape="http://www.inkscape.org/namespaces/inkscape"
   enable-background="new 0 0 21.1024469 3.5706967"
   height="3.5706967cm"
   shaper:fusionaddin="version:1.4.1"
   version="1.1"
   viewBox="0 0 21.1024469 3.5706967"
   width="21.1024469cm"
   x="0cm"
   xml:space="preserve"
   y="0cm"
   id="svg4"
   sodipodi:docname="layer8_6.svg"
   inkscape:version="0.92.2 (5c3e80d, 2017-08-06)"><metadata
     id="metadata10"><rdf:RDF><cc:Work
         rdf:about=""><dc:format>image/svg+xml</dc:format><dc:type
           rdf:resource="http://purl.org/dc/dcmitype/StillImage" /></cc:Work></rdf:RDF></metadata><defs
     id="defs8" /><sodipodi:namedview
     pagecolor="#ffffff"
     bordercolor="#666666"
     borderopacity="1"
     objecttolerance="10"
     gridtolerance="10"
     guidetolerance="10"
     inkscape:pageopacity="0"
     inkscape:pageshadow="2"
     inkscape:window-width="2560"
     inkscape:window-height="1537"
     id="namedview6"
     showgrid="false"
     inkscape:zoom="1.5747778"
     inkscape:cx="342.90336"
     inkscape:cy="33.24862"
     inkscape:window-x="1432"
     inkscape:window-y="757"
     inkscape:window-maximized="1"
     inkscape:current-layer="svg4" /><path
     d="M4.2749836,0.0380032 A19.0734518,19.0734518 105.3957246 0,0 12.0048664,0.5351843 A15.8941385,15.8941385 85.031278 0,0 20.5073518,-2.8482469 L20.0998965,-2.8482469 A15.6441385,15.6441385 52.7391927 0,1 11.7852595,0.3020683 A18.8128351,18.8128351 82.5276194 0,1 4.6209042,-0.1393209 A8.7603785,8.7603785 284.3239762 0,0 3.080694,-0.3891838 A13.2506074,13.2506074 274.1565819 0,0 -0.5950951,-0.1428342 L0,0 A13.0006853,13.0006853 260.6127641 0,1 3.4928006,-0.1014674 A4.4822508,4.4822508 275.0253448 0,1 4.2749836,0.0380032z"
     fill="rgb(0,0,0)"
     shaper:cutDepth="0"
     shaper:pathType="exterior"
     transform="matrix(1,0,0,-1,0.5950951,0.7224498)"
     vector-effect="non-scaling-stroke"
     id="path2"
     style="fill:none;stroke:#000000;stroke-opacity:1" /></svg>