<?xml version="1.0" encoding="UTF-8" standalone="no"?>
<!-- Generator: Fusion 360, Shaper Origin Export Add-In, Version 1.4.1  -->

<svg
   xmlns:shaper="http://www.shapertools.com/namespaces/shaper"
   xmlns:dc="http://purl.org/dc/elements/1.1/"
   xmlns:cc="http://creativecommons.org/ns#"
   xmlns:rdf="http://www.w3.org/1999/02/22-rdf-syntax-ns#"
   xmlns:svg="http://www.w3.org/2000/svg"
   xmlns="http://www.w3.org/2000/svg"
   xmlns:sodipodi="http://sodipodi.sourceforge.net/DTD/sodipodi-0.dtd"
   xmlns:inkscape="http://www.inkscape.org/namespaces/inkscape"
   enable-background="new 0 0 21.741995 7.6815659"
   height="7.6815659cm"
   shaper:fusionaddin="version:1.4.1"
   version="1.1"
   viewBox="0 0 21.741995 7.6815659"
   width="21.741995cm"
   x="0cm"
   xml:space="preserve"
   y="0cm"
   id="svg6"
   sodipodi:docname="layer5_3.svg"
   inkscape:version="0.92.2 (5c3e80d, 2017-08-06)"><metadata
     id="metadata12"><rdf:RDF><cc:Work
         rdf:about=""><dc:format>image/svg+xml</dc:format><dc:type
           rdf:resource="http://purl.org/dc/dcmitype/StillImage" /></cc:Work></rdf:RDF></metadata><defs
     id="defs10" /><sodipodi:namedview
     pagecolor="#ffffff"
     bordercolor="#666666"
     borderopacity="1"
     objecttolerance="10"
     gridtolerance="10"
     guidetolerance="10"
     inkscape:pageopacity="0"
     inkscape:pageshadow="2"
     inkscape:window-width="2560"
     inkscape:window-height="1537"
     id="namedview8"
     showgrid="false"
     inkscape:zoom="1.0807811"
     inkscape:cx="567.11196"
     inkscape:cy="165.91982"
     inkscape:window-x="1432"
     inkscape:window-y="757"
     inkscape:window-maximized="1"
     inkscape:current-layer="svg6" /><path
     d="M8.3156601,1.726279 A9.5418583,9.5418583 71.5709812 0,1 1.1025359,1.2431933 L0,0 A9.0418583,9.0418583 125.8788876 0,0 8.1959997,1.2390283 A15.5350318,15.5350318 260.8826667 0,1 21.3011799,5.2617795 A1.4,1.4 313.2459982 0,1 19.961531,7.628877 A4.7769293,4.7769293 285.7690237 0,0 18.3290577,7.4608091 L17.4694977,7.0859205 A2.4902952,2.4902952 50.5109631 0,0 17.1339276,3.009084 A15.0350318,15.0350318 295.5149844 0,0 8.3156601,1.726279z"
     fill="rgb(0,0,0)"
     shaper:cutDepth="0"
     shaper:pathType="exterior"
     transform="matrix(1,0,0,-1,0,7.6815659)"
     vector-effect="non-scaling-stroke"
     id="path2"
     style="fill:none;stroke:#000000;stroke-opacity:1" /><path
     d="M20.091995,6.2815659 a0.25,0.25 0 1,1 0.5,0 a0.25,0.25 0 1,1 -0.5,0z"
     fill="rgb(255,255,255)"
     shaper:cutDepth="0"
     shaper:pathType="interior"
     stroke="rgb(0,0,0)"
     stroke-width="2"
     transform="matrix(1,0,0,-1,0,7.6815659)"
     vector-effect="non-scaling-stroke"
     id="path4"
     style="fill:none;stroke:#000000;stroke-opacity:1" /></svg>