<?xml version="1.0" encoding="UTF-8" standalone="no"?>
<!-- Generator: Fusion 360, Shaper Origin Export Add-In, Version 1.4.1  -->

<svg
   xmlns:shaper="http://www.shapertools.com/namespaces/shaper"
   xmlns:dc="http://purl.org/dc/elements/1.1/"
   xmlns:cc="http://creativecommons.org/ns#"
   xmlns:rdf="http://www.w3.org/1999/02/22-rdf-syntax-ns#"
   xmlns:svg="http://www.w3.org/2000/svg"
   xmlns="http://www.w3.org/2000/svg"
   xmlns:sodipodi="http://sodipodi.sourceforge.net/DTD/sodipodi-0.dtd"
   xmlns:inkscape="http://www.inkscape.org/namespaces/inkscape"
   enable-background="new 0 0 28.8212938 2.2"
   height="2.2cm"
   shaper:fusionaddin="version:1.4.1"
   version="1.1"
   viewBox="0 0 28.8212938 2.2"
   width="28.8212938cm"
   x="0cm"
   xml:space="preserve"
   y="0cm"
   id="svg12"
   sodipodi:docname="layer3_5.svg"
   inkscape:version="0.92.2 (5c3e80d, 2017-08-06)"><metadata
     id="metadata18"><rdf:RDF><cc:Work
         rdf:about=""><dc:format>image/svg+xml</dc:format><dc:type
           rdf:resource="http://purl.org/dc/dcmitype/StillImage" /></cc:Work></rdf:RDF></metadata><defs
     id="defs16" /><sodipodi:namedview
     pagecolor="#ffffff"
     bordercolor="#666666"
     borderopacity="1"
     objecttolerance="10"
     gridtolerance="10"
     guidetolerance="10"
     inkscape:pageopacity="0"
     inkscape:pageshadow="2"
     inkscape:window-width="2560"
     inkscape:window-height="1537"
     id="namedview14"
     showgrid="false"
     inkscape:zoom="1.1530248"
     inkscape:cx="537.68354"
     inkscape:cy="96.252251"
     inkscape:window-x="1432"
     inkscape:window-y="757"
     inkscape:window-maximized="1"
     inkscape:current-layer="svg12" /><path
     d="M14.7458099,1.1261394 A1.1,1.1 1.3616519 0,1 12.5463214,1.0789807 A0.4775263,0.4775263 12.2664525 0,0 12.079697,0.5 L0.790952,0.5 0,0 23.9527849,0 A7.7988357,7.7988357 120.4089131 0,0 28.8212938,1.0182752 L28.3890907,1.5584406 A8.2988357,8.2988357 86.6234357 0,1 23.8191578,0.5 L15.5365352,0.5 A0.8123567,0.8123567 270 0,0 14.7458099,1.1261394z"
     fill="rgb(0,0,0)"
     shaper:cutDepth="0"
     shaper:pathType="exterior"
     transform="matrix(1,0,0,-1,-0,2.2)"
     vector-effect="non-scaling-stroke"
     id="path2"
     style="fill:none;stroke:#000000;stroke-opacity:1" /><path
     d="M21.8321293,0.375046 L21.8314086,0.4250897 21.8814522,0.4258104 21.882173,0.3757668 21.8321293,0.375046z"
     fill="rgb(255,255,255)"
     shaper:cutDepth="0"
     shaper:pathType="interior"
     stroke="rgb(0,0,0)"
     stroke-width="2"
     transform="matrix(1,0,0,-1,-0,2.2)"
     vector-effect="non-scaling-stroke"
     id="path4"
     style="fill:none;stroke:#ff0000;stroke-opacity:1" /><path
     d="M21.6521401,0.428612 L21.6521401,0.428612 21.6947197,0.4230317 21.7322375,0.402419 21.7322375,0.402419 21.757438,0.3700199 21.7685563,0.3304247 21.7224748,0.3258544 21.7224748,0.3258544 21.697944,0.3761656 21.697944,0.3761656 21.6526604,0.3924829 21.6526604,0.3924829 21.6232762,0.3859987 21.5992996,0.3677861 21.5992996,0.3677861 21.5826405,0.3379885 21.5782433,0.3039997 21.5782433,0.3039997 21.5833356,0.2722167 21.6002136,0.2449838 21.6002136,0.2449838 21.6257713,0.2286817 21.6558186,0.2240539 21.6558186,0.2240539 21.6940059,0.2342484 21.6940059,0.2342484 21.7204982,0.259657 21.761831,0.2548806 21.729814,0.0705625 21.551854,0.0679995 21.5512492,0.1099874 21.6940567,0.1120441 21.7119566,0.2085033 21.7119566,0.2085033 21.6446601,0.1850708 21.6446601,0.1850708 21.6016069,0.192458 21.5650991,0.216399 21.5650991,0.216399 21.539882,0.2544245 21.5316735,0.2994224 21.5316735,0.2994224 21.5378439,0.344013 21.5587815,0.3838059 21.5587815,0.3838059 21.5999942,0.417453 21.6521401,0.428612z"
     fill="rgb(255,255,255)"
     shaper:cutDepth="0"
     shaper:pathType="interior"
     stroke="rgb(0,0,0)"
     stroke-width="2"
     transform="matrix(1,0,0,-1,-0,2.2)"
     vector-effect="non-scaling-stroke"
     id="path6"
     style="fill:none;stroke:#ff0000;stroke-opacity:1" /><path
     d="M22.070062,0.4348751 L22.070062,0.4348751 22.1120107,0.4289172 22.1487052,0.4079286 22.1487052,0.4079286 22.1739597,0.3753724 22.1852717,0.3356938 22.1414153,0.3292022 22.1414153,0.3292022 22.1148859,0.3826587 22.1148859,0.3826587 22.0703417,0.3984984 22.0703417,0.3984984 22.0182883,0.3762621 22.0182883,0.3762621 21.9976947,0.3227374 21.9976947,0.3227374 22.018187,0.2731006 22.018187,0.2731006 22.0687578,0.2541735 22.0687578,0.2541735 22.0996901,0.2595023 22.0953633,0.2208618 22.0953633,0.2208618 22.0882769,0.2212481 22.0882769,0.2212481 22.037956,0.2058734 22.037956,0.2058734 22.0209514,0.1861351 22.0161478,0.1603886 22.0161478,0.1603886 22.0330801,0.1205892 22.0330801,0.1205892 22.0755406,0.10533 22.0755406,0.10533 22.1180287,0.1220569 22.1180287,0.1220569 22.139303,0.1707081 22.1833563,0.1635293 22.1833563,0.1635293 22.1716223,0.1258205 22.1477251,0.0945275 22.1477251,0.0945275 22.11474,0.0754122 22.0770374,0.069215 22.0770374,0.069215 22.0229069,0.0810099 22.0229069,0.0810099 21.9846971,0.1147649 21.9846971,0.1147649 21.9709724,0.1607146 21.9709724,0.1607146 21.9828141,0.2031259 21.9828141,0.2031259 22.0192395,0.2339271 22.0192395,0.2339271 21.9694905,0.2636092 21.9694905,0.2636092 21.9510827,0.3210894 21.9510827,0.3210894 21.9590382,0.3645974 21.9841145,0.4010411 21.9841145,0.4010411 22.0236622,0.4265198 22.070062,0.4348751z"
     fill="rgb(255,255,255)"
     shaper:cutDepth="0"
     shaper:pathType="interior"
     stroke="rgb(0,0,0)"
     stroke-width="2"
     transform="matrix(1,0,0,-1,-0,2.2)"
     vector-effect="non-scaling-stroke"
     id="path8"
     style="fill:none;stroke:#ff0000;stroke-opacity:1" /><path
     d="M13.3961205,1.1 a0.25,0.25 0 1,1 0.5,0 a0.25,0.25 0 1,1 -0.5,0z"
     fill="rgb(255,255,255)"
     shaper:cutDepth="0"
     shaper:pathType="interior"
     stroke="rgb(0,0,0)"
     stroke-width="2"
     transform="matrix(1,0,0,-1,-0,2.2)"
     vector-effect="non-scaling-stroke"
     id="path10"
     style="fill:none;stroke:#000000;stroke-opacity:1" /></svg>