<?xml version="1.0" encoding="UTF-8" standalone="no"?>
<!-- Generator: Fusion 360, Shaper Origin Export Add-In, Version 1.4.1  -->

<svg
   xmlns:shaper="http://www.shapertools.com/namespaces/shaper"
   xmlns:dc="http://purl.org/dc/elements/1.1/"
   xmlns:cc="http://creativecommons.org/ns#"
   xmlns:rdf="http://www.w3.org/1999/02/22-rdf-syntax-ns#"
   xmlns:svg="http://www.w3.org/2000/svg"
   xmlns="http://www.w3.org/2000/svg"
   xmlns:sodipodi="http://sodipodi.sourceforge.net/DTD/sodipodi-0.dtd"
   xmlns:inkscape="http://www.inkscape.org/namespaces/inkscape"
   enable-background="new 0 0 18.9058005 7.6228698"
   height="7.6228698cm"
   shaper:fusionaddin="version:1.4.1"
   version="1.1"
   viewBox="0 0 18.9058005 7.6228698"
   width="18.9058005cm"
   x="0cm"
   xml:space="preserve"
   y="0cm"
   id="svg14"
   sodipodi:docname="layer6_4.svg"
   inkscape:version="0.92.2 (5c3e80d, 2017-08-06)"><metadata
     id="metadata20"><rdf:RDF><cc:Work
         rdf:about=""><dc:format>image/svg+xml</dc:format><dc:type
           rdf:resource="http://purl.org/dc/dcmitype/StillImage" /></cc:Work></rdf:RDF></metadata><defs
     id="defs18" /><sodipodi:namedview
     pagecolor="#ffffff"
     bordercolor="#666666"
     borderopacity="1"
     objecttolerance="10"
     gridtolerance="10"
     guidetolerance="10"
     inkscape:pageopacity="0"
     inkscape:pageshadow="2"
     inkscape:window-width="2560"
     inkscape:window-height="1537"
     id="namedview16"
     showgrid="false"
     inkscape:zoom="1.7577498"
     inkscape:cx="342.751"
     inkscape:cy="108.1206"
     inkscape:window-x="1432"
     inkscape:window-y="757"
     inkscape:window-maximized="1"
     inkscape:current-layer="svg14" /><path
     d="M11.5033735,0.5 L9.3483308,0.5 A0.4713873,0.4713873 270 0,0 8.971298,1.2543223 A8.816641,8.816641 143.1145048 0,0 17.4810816,4.6576839 A13.5006074,13.5006074 260.4828553 0,1 17.7977847,4.6084461 L18.9058005,4.996943 A13.0006853,13.0006853 266.437888 0,0 15.0724253,5.8284647 A5.6140258,5.6140258 249.0845433 0,0 14.1269614,6.2958519 A9.35932,9.35932 58.3047541 0,1 10.3429705,7.6228698 A13.005069,13.005069 115.8993153 0,1 9.0039509,6.8719678 A23.5836259,23.5836259 302.6667849 0,0 1.5738237,3.7446694 A9.35932,9.35932 144.6708574 0,1 0,0 L10.7124215,0 11.5033735,0.5z"
     fill="rgb(0,0,0)"
     shaper:cutDepth="0"
     shaper:pathType="exterior"
     transform="matrix(1,0,0,-1,-0,7.6228698)"
     vector-effect="non-scaling-stroke"
     id="path2"
     style="fill:none;stroke:#000000;stroke-opacity:1" /><path
     d="M7.4786822,1.3293951 L7.4786822,1.3293951 7.452301,1.3775032 7.452301,1.3775032 7.424936,1.3908034 7.3944539,1.3924613 7.3944539,1.3924613 7.3522,1.378457 7.3522,1.378457 7.3234851,1.3484099 7.3234851,1.3484099 7.3163689,1.3111182 7.3163689,1.3111182 7.3435705,1.2657933 7.3435705,1.2657933 7.3735836,1.2530621 7.4063223,1.2520718 7.4063223,1.2520718 7.462485,1.2776795 7.462485,1.2776795 7.4786822,1.3293951z"
     fill="rgb(0,0,0)"
     shaper:cutDepth="0"
     shaper:pathType="exterior"
     transform="matrix(1,0,0,-1,-0,7.6228698)"
     vector-effect="non-scaling-stroke"
     id="path4"
     style="fill:none;stroke:#ff0000;stroke-opacity:1" /><path
     d="M7.6166435,0.9032082 L7.4447266,0.9983115 7.4560999,0.8868296 7.6166435,0.9032082z"
     fill="rgb(0,0,0)"
     shaper:cutDepth="0"
     shaper:pathType="exterior"
     transform="matrix(1,0,0,-1,-0,7.6228698)"
     vector-effect="non-scaling-stroke"
     id="path6"
     style="fill:none;stroke:#ff0000;stroke-opacity:1" /><path
     d="M7.4204848,0.8390228 L7.3352339,0.8303255 7.3307738,0.8740439 7.4160247,0.8827412 7.4002656,1.0372128 7.4403408,1.0413013 7.6876535,0.9023541 7.6912959,0.8666508 7.46056,0.8431112 7.4654661,0.795021 7.4253909,0.7909326 7.4204848,0.8390228z"
     fill="rgb(255,255,255)"
     shaper:cutDepth="0"
     shaper:pathType="interior"
     stroke="rgb(0,0,0)"
     stroke-width="2"
     transform="matrix(1,0,0,-1,-0,7.6228698)"
     vector-effect="non-scaling-stroke"
     id="path8"
     style="fill:none;stroke:#ff0000;stroke-opacity:1" /><path
     d="M7.3597503,1.0831427 L7.3099599,1.0780631 7.3048803,1.1278535 7.3546707,1.1329331 7.3597503,1.0831427z"
     fill="rgb(255,255,255)"
     shaper:cutDepth="0"
     shaper:pathType="interior"
     stroke="rgb(0,0,0)"
     stroke-width="2"
     transform="matrix(1,0,0,-1,-0,7.6228698)"
     vector-effect="non-scaling-stroke"
     id="path10"
     style="fill:none;stroke:#ff0000;stroke-opacity:1" /><path
     d="M7.6445096,1.3396867 L7.6445096,1.3396867 7.6428958,1.302454 7.6279749,1.2684267 7.6279749,1.2684267 7.6007621,1.2432443 7.5661662,1.2296045 7.5583306,1.2727331 7.5583306,1.2727331 7.5940491,1.2930648 7.5940491,1.2930648 7.6082908,1.3386912 7.6082908,1.3386912 7.592891,1.3741767 7.592891,1.3741767 7.5456094,1.4022377 7.5456094,1.4022377 7.4620094,1.4062247 7.4620094,1.4062247 7.5016525,1.3712492 7.5016525,1.3712492 7.5181921,1.3245912 7.5181921,1.3245912 7.5142145,1.2831075 7.4936051,1.2468654 7.4936051,1.2468654 7.4575495,1.2193074 7.4135532,1.2076544 7.4135532,1.2076544 7.3497802,1.2157501 7.3497802,1.2157501 7.3016462,1.2509637 7.3016462,1.2509637 7.280497,1.3067223 7.280497,1.3067223 7.2853448,1.3569364 7.3116,1.3999601 7.3116,1.3999601 7.3716731,1.4349468 7.4405725,1.4479657 7.4405725,1.4479657 7.5197661,1.4492936 7.5945625,1.4251466 7.5945625,1.4251466 7.6296418,1.3883864 7.6445096,1.3396867z"
     fill="rgb(255,255,255)"
     shaper:cutDepth="0"
     shaper:pathType="interior"
     stroke="rgb(0,0,0)"
     stroke-width="2"
     transform="matrix(1,0,0,-1,-0,7.6228698)"
     vector-effect="non-scaling-stroke"
     id="path12"
     style="fill:none;stroke:#ff0000;stroke-opacity:1" /></svg>