<?xml version="1.0" encoding="UTF-8" standalone="no"?>
<!-- Generator: Fusion 360, Shaper Origin Export Add-In, Version 1.4.1  -->

<svg
   xmlns:shaper="http://www.shapertools.com/namespaces/shaper"
   xmlns:dc="http://purl.org/dc/elements/1.1/"
   xmlns:cc="http://creativecommons.org/ns#"
   xmlns:rdf="http://www.w3.org/1999/02/22-rdf-syntax-ns#"
   xmlns:svg="http://www.w3.org/2000/svg"
   xmlns="http://www.w3.org/2000/svg"
   xmlns:sodipodi="http://sodipodi.sourceforge.net/DTD/sodipodi-0.dtd"
   xmlns:inkscape="http://www.inkscape.org/namespaces/inkscape"
   enable-background="new 0 0 18.9058005 7.6917505"
   height="7.6917505cm"
   shaper:fusionaddin="version:1.4.1"
   version="1.1"
   viewBox="0 0 18.9058005 7.6917505"
   width="18.9058005cm"
   x="0cm"
   xml:space="preserve"
   y="0cm"
   id="svg12"
   sodipodi:docname="layer2_4.svg"
   inkscape:version="0.92.2 (5c3e80d, 2017-08-06)"><metadata
     id="metadata18"><rdf:RDF><cc:Work
         rdf:about=""><dc:format>image/svg+xml</dc:format><dc:type
           rdf:resource="http://purl.org/dc/dcmitype/StillImage" /></cc:Work></rdf:RDF></metadata><defs
     id="defs16" /><sodipodi:namedview
     pagecolor="#ffffff"
     bordercolor="#666666"
     borderopacity="1"
     objecttolerance="10"
     gridtolerance="10"
     guidetolerance="10"
     inkscape:pageopacity="0"
     inkscape:pageshadow="2"
     inkscape:window-width="2560"
     inkscape:window-height="1537"
     id="namedview14"
     showgrid="false"
     inkscape:zoom="0.62145842"
     inkscape:cx="-84.965389"
     inkscape:cy="437.02606"
     inkscape:window-x="1432"
     inkscape:window-y="757"
     inkscape:window-maximized="1"
     inkscape:current-layer="svg12" /><path
     d="M14.1269614,6.2958519 A9.35932,9.35932 58.3047541 0,1 -0,0 L10.7124215,0 11.5033735,0.5 9.3483308,0.5 A0.4713873,0.4713873 270 0,0 8.971298,1.2543223 A8.816641,8.816641 143.1145048 0,0 17.4810816,4.6576839 A13.5006074,13.5006074 260.4828553 0,1 17.7977847,4.6084461 L18.9058005,4.996943 A13.0006853,13.0006853 266.437888 0,0 15.0724253,5.8284647 A5.6140258,5.6140258 249.0845433 0,0 14.1269614,6.2958519z"
     fill="rgb(0,0,0)"
     shaper:cutDepth="0"
     shaper:pathType="exterior"
     transform="matrix(1,0,0,-1,0,7.6917505)"
     vector-effect="non-scaling-stroke"
     id="path2"
     style="fill:none;stroke:#000000;stroke-opacity:1" /><path
     d="M7.614223,0.8959528 L7.442306,0.9910561 7.4536793,0.8795742 7.614223,0.8959528z"
     fill="rgb(0,0,0)"
     shaper:cutDepth="0"
     shaper:pathType="exterior"
     transform="matrix(1,0,0,-1,0,7.6917505)"
     vector-effect="non-scaling-stroke"
     id="path4"
     style="fill:none;stroke:#ff0000;stroke-opacity:1" /><path
     d="M7.4180643,0.8317674 L7.3328134,0.8230701 7.3283533,0.8667885 7.4136041,0.8754858 7.397845,1.0299574 7.4379202,1.0340459 7.685233,0.8950987 7.6888754,0.8593954 7.4581394,0.8358558 7.4630456,0.7877656 7.4229704,0.7836772 7.4180643,0.8317674z"
     fill="rgb(255,255,255)"
     shaper:cutDepth="0"
     shaper:pathType="interior"
     stroke="rgb(0,0,0)"
     stroke-width="2"
     transform="matrix(1,0,0,-1,0,7.6917505)"
     vector-effect="non-scaling-stroke"
     id="path6"
     style="fill:none;stroke:#ff0000;stroke-opacity:1" /><path
     d="M7.3573298,1.0758873 L7.3075394,1.0708077 7.3024598,1.1205981 7.3522502,1.1256777 7.3573298,1.0758873z"
     fill="rgb(255,255,255)"
     shaper:cutDepth="0"
     shaper:pathType="interior"
     stroke="rgb(0,0,0)"
     stroke-width="2"
     transform="matrix(1,0,0,-1,0,7.6917505)"
     vector-effect="non-scaling-stroke"
     id="path8"
     style="fill:none;stroke:#ff0000;stroke-opacity:1" /><path
     d="M7.3449414,1.3548792 L7.3449414,1.3548792 7.3193774,1.3709222 7.3371932,1.1962915 7.2951749,1.1920048 7.2711646,1.4273555 7.2711646,1.4273555 7.3020449,1.4253523 7.3020449,1.4253523 7.3523428,1.4014028 7.3523428,1.4014028 7.4120975,1.3497054 7.4120975,1.3497054 7.4955151,1.2789489 7.4955151,1.2789489 7.55018,1.2639115 7.55018,1.2639115 7.5921243,1.2869643 7.5921243,1.2869643 7.6050327,1.3372401 7.6050327,1.3372401 7.5809341,1.3858264 7.5809341,1.3858264 7.5265146,1.3996618 7.5265453,1.4450654 7.5265453,1.4450654 7.5693852,1.4394784 7.6067172,1.4181511 7.6067172,1.4181511 7.6312242,1.3823493 7.6413209,1.3399606 7.6413209,1.3399606 7.6395234,1.2958622 7.62118,1.2559396 7.62118,1.2559396 7.5914682,1.2301887 7.5537925,1.2188796 7.5537925,1.2188796 7.5108823,1.2233366 7.5108823,1.2233366 7.4644457,1.2479254 7.4644457,1.2479254 7.3949067,1.3089318 7.3949067,1.3089318 7.3449414,1.3548792z"
     fill="rgb(255,255,255)"
     shaper:cutDepth="0"
     shaper:pathType="interior"
     stroke="rgb(0,0,0)"
     stroke-width="2"
     transform="matrix(1,0,0,-1,0,7.6917505)"
     vector-effect="non-scaling-stroke"
     id="path10"
     style="fill:none;stroke:#ff0000;stroke-opacity:1" /></svg>