<?xml version="1.0" encoding="UTF-8" standalone="no"?>
<!-- Generator: Fusion 360, Shaper Origin Export Add-In, Version 1.4.1  -->

<svg
   xmlns:shaper="http://www.shapertools.com/namespaces/shaper"
   xmlns:dc="http://purl.org/dc/elements/1.1/"
   xmlns:cc="http://creativecommons.org/ns#"
   xmlns:rdf="http://www.w3.org/1999/02/22-rdf-syntax-ns#"
   xmlns:svg="http://www.w3.org/2000/svg"
   xmlns="http://www.w3.org/2000/svg"
   xmlns:sodipodi="http://sodipodi.sourceforge.net/DTD/sodipodi-0.dtd"
   xmlns:inkscape="http://www.inkscape.org/namespaces/inkscape"
   enable-background="new 0 0 39.5784435 9.1042204"
   height="9.1042204cm"
   shaper:fusionaddin="version:1.4.1"
   version="1.1"
   viewBox="0 0 39.5784435 9.1042204"
   width="39.5784435cm"
   x="0cm"
   xml:space="preserve"
   y="0cm"
   id="svg861"
   sodipodi:docname="layer1_1.svg"
   inkscape:version="0.92.2 (5c3e80d, 2017-08-06)"><metadata
     id="metadata867"><rdf:RDF><cc:Work
         rdf:about=""><dc:format>image/svg+xml</dc:format><dc:type
           rdf:resource="http://purl.org/dc/dcmitype/StillImage" /></cc:Work></rdf:RDF></metadata><defs
     id="defs865" /><sodipodi:namedview
     pagecolor="#ffffff"
     bordercolor="#666666"
     borderopacity="1"
     objecttolerance="10"
     gridtolerance="10"
     guidetolerance="10"
     inkscape:pageopacity="0"
     inkscape:pageshadow="2"
     inkscape:window-width="2560"
     inkscape:window-height="1537"
     id="namedview863"
     showgrid="false"
     inkscape:zoom="0.59371557"
     inkscape:cx="-103.75247"
     inkscape:cy="-36.615434"
     inkscape:window-x="1432"
     inkscape:window-y="757"
     inkscape:window-maximized="1"
     inkscape:current-layer="svg861" /><path
     d="M33.5,-0 A11.322979,11.322979 10.3947708 0,1 31.7749291,4.2516587 A11.5044568,11.5044568 35.324151 0,1 17.3713098,7.9525508 A9.0418583,9.0418583 309.1086549 0,0 7.9166134,6.7415602 A15.5350318,15.5350318 75.0575428 0,1 -5.5291749,4.0696592 A1.4,1.4 127.4208743 0,1 -4.4366862,1.5788203 A4.7769293,4.7769293 99.9438998 0,0 0,-0 L33.5,0z"
     fill="rgb(0,0,0)"
     shaper:cutDepth="0"
     shaper:pathType="exterior"
     transform="matrix(1,0,0,-1,6.0784435,9.1042204)"
     vector-effect="non-scaling-stroke"
     id="path853"
     style="fill:none;stroke:#000000;stroke-opacity:1" /><path
     d="M-4.2894535,3.8735709 L-4.2396631,3.8684913 -4.2447427,3.8187009 -4.2945331,3.8237805 -4.2894535,3.8735709z"
     fill="rgb(255,255,255)"
     shaper:cutDepth="0"
     shaper:pathType="interior"
     stroke="rgb(0,0,0)"
     stroke-width="2"
     transform="matrix(1,0,0,-1,6.0784435,9.1042204)"
     vector-effect="non-scaling-stroke"
     id="path855"
     style="fill:none;stroke:#ff0000;stroke-opacity:1" /><path
     d="M-4.5767402,4.1053412 L-4.5738659,4.1335152 -4.2163466,4.0970414 -4.2208067,4.053323 -4.49939,4.0817438 -4.49939,4.0817438 -4.4734976,4.0372603 -4.4734976,4.0372603 -4.4556053,3.9889301 -4.4978664,3.9932416 -4.4978664,3.9932416 -4.5331002,4.0616238 -4.5331002,4.0616238 -4.5767402,4.1053412z"
     fill="rgb(255,255,255)"
     shaper:cutDepth="0"
     shaper:pathType="interior"
     stroke="rgb(0,0,0)"
     stroke-width="2"
     transform="matrix(1,0,0,-1,6.0784435,9.1042204)"
     vector-effect="non-scaling-stroke"
     id="path857"
     style="fill:none;stroke:#ff0000;stroke-opacity:1" /><path
     d="M-4.6190618,3.6905022 L-4.6161875,3.7186763 -4.2586682,3.6822024 -4.2631283,3.638484 -4.5417116,3.6669049 -4.5417116,3.6669049 -4.5158192,3.6224213 -4.5158192,3.6224213 -4.4979269,3.5740912 -4.540188,3.5784026 -4.540188,3.5784026 -4.5754218,3.6467848 -4.5754218,3.6467848 -4.6190618,3.6905022z"
     fill="rgb(255,255,255)"
     shaper:cutDepth="0"
     shaper:pathType="interior"
     stroke="rgb(0,0,0)"
     stroke-width="2"
     transform="matrix(1,0,0,-1,6.0784435,9.1042204)"
     vector-effect="non-scaling-stroke"
     id="path859"
     style="fill:none;stroke:#ff0000;stroke-opacity:1" /></svg>