<?xml version="1.0" encoding="UTF-8" standalone="no"?>
<!-- Generator: Fusion 360, Shaper Origin Export Add-In, Version 1.4.1  -->

<svg
   xmlns:shaper="http://www.shapertools.com/namespaces/shaper"
   xmlns:dc="http://purl.org/dc/elements/1.1/"
   xmlns:cc="http://creativecommons.org/ns#"
   xmlns:rdf="http://www.w3.org/1999/02/22-rdf-syntax-ns#"
   xmlns:svg="http://www.w3.org/2000/svg"
   xmlns="http://www.w3.org/2000/svg"
   xmlns:sodipodi="http://sodipodi.sourceforge.net/DTD/sodipodi-0.dtd"
   xmlns:inkscape="http://www.inkscape.org/namespaces/inkscape"
   enable-background="new 0 0 36.2772358 5.6376089"
   height="5.6376089cm"
   shaper:fusionaddin="version:1.4.1"
   version="1.1"
   viewBox="0 0 36.2772358 5.6376089"
   width="36.2772358cm"
   x="0cm"
   xml:space="preserve"
   y="0cm"
   id="svg4"
   sodipodi:docname="layer8_1.svg"
   inkscape:version="0.92.2 (5c3e80d, 2017-08-06)"><metadata
     id="metadata10"><rdf:RDF><cc:Work
         rdf:about=""><dc:format>image/svg+xml</dc:format><dc:type
           rdf:resource="http://purl.org/dc/dcmitype/StillImage" /></cc:Work></rdf:RDF></metadata><defs
     id="defs8" /><sodipodi:namedview
     pagecolor="#ffffff"
     bordercolor="#666666"
     borderopacity="1"
     objecttolerance="10"
     gridtolerance="10"
     guidetolerance="10"
     inkscape:pageopacity="0"
     inkscape:pageshadow="2"
     inkscape:window-width="2560"
     inkscape:window-height="1537"
     id="namedview6"
     showgrid="false"
     inkscape:zoom="0.91604735"
     inkscape:cx="627.94743"
     inkscape:cy="134.81293"
     inkscape:window-x="1432"
     inkscape:window-y="757"
     inkscape:window-maximized="1"
     inkscape:current-layer="svg4" /><path
     d="M-3.3710509,5.4544524 A15.5350318,15.5350318 117.9528884 0,1 -5.5291749,4.0696592 A1.4,1.4 127.4208743 0,1 -4.4366862,1.5788203 A4.7769293,4.7769293 99.9438998 0,0 -0,0 L30.1987922,0 29.8956494,0.25 0.1124977,0.25 A5.0269293,5.0269293 42.1946873 0,1 -4.4798571,1.8250647 A1.15,1.15 279.9438998 0,0 -5.3772586,3.8711109 A15.2850318,15.2850318 127.4208743 0,0 -2.4342966,5.6376089 L-3.3710509,5.4544524z"
     fill="rgb(0,0,0)"
     shaper:cutDepth="0"
     shaper:pathType="exterior"
     transform="matrix(1,0,0,-1,6.0784435,5.6376089)"
     vector-effect="non-scaling-stroke"
     id="path2"
     style="fill:none;stroke:#000000;stroke-opacity:1" /></svg>