<?xml version="1.0" encoding="UTF-8" standalone="no"?>
<!-- Generator: Fusion 360, Shaper Origin Export Add-In, Version 1.4.1  -->

<svg
   xmlns:shaper="http://www.shapertools.com/namespaces/shaper"
   xmlns:dc="http://purl.org/dc/elements/1.1/"
   xmlns:cc="http://creativecommons.org/ns#"
   xmlns:rdf="http://www.w3.org/1999/02/22-rdf-syntax-ns#"
   xmlns:svg="http://www.w3.org/2000/svg"
   xmlns="http://www.w3.org/2000/svg"
   xmlns:sodipodi="http://sodipodi.sourceforge.net/DTD/sodipodi-0.dtd"
   xmlns:inkscape="http://www.inkscape.org/namespaces/inkscape"
   enable-background="new 0 0 20.319441 7.6917505"
   height="7.6917505cm"
   shaper:fusionaddin="version:1.4.1"
   version="1.1"
   viewBox="0 0 20.319441 7.6917505"
   width="20.319441cm"
   x="0cm"
   xml:space="preserve"
   y="0cm"
   id="svg12"
   sodipodi:docname="layer3_4.svg"
   inkscape:version="0.92.2 (5c3e80d, 2017-08-06)"><metadata
     id="metadata18"><rdf:RDF><cc:Work
         rdf:about=""><dc:format>image/svg+xml</dc:format><dc:type
           rdf:resource="http://purl.org/dc/dcmitype/StillImage" /></cc:Work></rdf:RDF></metadata><defs
     id="defs16" /><sodipodi:namedview
     pagecolor="#ffffff"
     bordercolor="#666666"
     borderopacity="1"
     objecttolerance="10"
     gridtolerance="10"
     guidetolerance="10"
     inkscape:pageopacity="0"
     inkscape:pageshadow="2"
     inkscape:window-width="2560"
     inkscape:window-height="1537"
     id="namedview14"
     showgrid="false"
     inkscape:zoom="1.6354617"
     inkscape:cx="385.95255"
     inkscape:cy="246.2999"
     inkscape:window-x="1432"
     inkscape:window-y="757"
     inkscape:window-maximized="1"
     inkscape:current-layer="svg12" /><path
     d="M14.1269614,6.2958519 A9.35932,9.35932 58.3047541 0,1 0,0 L9.5472151,-0 10.3381671,0.5 9.3483308,0.5 A0.4713873,0.4713873 270 0,0 8.971298,1.2543223 A8.816641,8.816641 143.1145048 0,0 17.4810816,4.6576839 A13.5006074,13.5006074 260.4828553 0,1 18.9197961,4.4952038 L20.319441,4.9859529 A13.0006853,13.0006853 272.6712549 0,0 15.0724253,5.8284647 A5.6140258,5.6140258 249.0845433 0,0 14.1269614,6.2958519z"
     fill="rgb(0,0,0)"
     shaper:cutDepth="0"
     shaper:pathType="exterior"
     transform="matrix(1,0,0,-1,-0,7.6917505)"
     vector-effect="non-scaling-stroke"
     id="path2"
     style="fill:none;stroke:#000000;stroke-opacity:1" /><path
     d="M7.6141999,0.8990436 L7.4422829,0.994147 7.4536562,0.8826651 7.6141999,0.8990436z"
     fill="rgb(0,0,0)"
     shaper:cutDepth="0"
     shaper:pathType="exterior"
     transform="matrix(1,0,0,-1,-0,7.6917505)"
     vector-effect="non-scaling-stroke"
     id="path4"
     style="fill:none;stroke:#ff0000;stroke-opacity:1" /><path
     d="M7.2769681,1.3107909 L7.2769681,1.3107909 7.2792473,1.3530994 7.2969578,1.3914835 7.2969578,1.3914835 7.327189,1.4194793 7.3657308,1.4342065 7.37602,1.3910828 7.37602,1.3910828 7.3250791,1.3599953 7.3250791,1.3599953 7.313182,1.31424 7.313182,1.31424 7.3398704,1.2643228 7.3398704,1.2643228 7.3949863,1.2484725 7.3949863,1.2484725 7.4426482,1.273213 7.4426482,1.273213 7.4570957,1.3252409 7.4570957,1.3252409 7.4490912,1.3555911 7.4879619,1.3546485 7.4879619,1.3546485 7.4881947,1.3475554 7.4881947,1.3475554 7.5078966,1.298766 7.5078966,1.298766 7.5290418,1.2835463 7.555109,1.281005 7.555109,1.281005 7.5932812,1.3013416 7.5932812,1.3013416 7.6047817,1.3449705 7.6047817,1.3449705 7.5844154,1.3858391 7.5844154,1.3858391 7.5340951,1.4027921 7.5374071,1.4473034 7.5374071,1.4473034 7.5759951,1.4389007 7.6092517,1.4178218 7.6092517,1.4178218 7.6311692,1.3866282 7.6406288,1.3496092 7.6406288,1.3496092 7.6335965,1.2946566 7.6335965,1.2946566 7.6033002,1.2536503 7.6033002,1.2536503 7.5587215,1.2359731 7.5587215,1.2359731 7.5154396,1.2440733 7.5154396,1.2440733 7.4815809,1.2776757 7.4815809,1.2776757 7.4563476,1.225529 7.4563476,1.225529 7.4006905,1.2021815 7.4006905,1.2021815 7.3566547,1.2063148 7.3181641,1.2281193 7.3181641,1.2281193 7.2893356,1.2652959 7.2769681,1.3107909z"
     fill="rgb(255,255,255)"
     shaper:cutDepth="0"
     shaper:pathType="interior"
     stroke="rgb(0,0,0)"
     stroke-width="2"
     transform="matrix(1,0,0,-1,-0,7.6917505)"
     vector-effect="non-scaling-stroke"
     id="path6"
     style="fill:none;stroke:#ff0000;stroke-opacity:1" /><path
     d="M7.3573067,1.0789781 L7.3075163,1.0738986 7.3024367,1.123689 7.3522271,1.1287685 7.3573067,1.0789781z"
     fill="rgb(255,255,255)"
     shaper:cutDepth="0"
     shaper:pathType="interior"
     stroke="rgb(0,0,0)"
     stroke-width="2"
     transform="matrix(1,0,0,-1,-0,7.6917505)"
     vector-effect="non-scaling-stroke"
     id="path8"
     style="fill:none;stroke:#ff0000;stroke-opacity:1" /><path
     d="M7.4180412,0.8348582 L7.3327903,0.826161 7.3283302,0.8698794 7.4135811,0.8785766 7.397822,1.0330483 7.4378972,1.0371367 7.6852099,0.8981896 7.6888523,0.8624862 7.4581164,0.8389467 7.4630225,0.7908565 7.4229473,0.786768 7.4180412,0.8348582z"
     fill="rgb(255,255,255)"
     shaper:cutDepth="0"
     shaper:pathType="interior"
     stroke="rgb(0,0,0)"
     stroke-width="2"
     transform="matrix(1,0,0,-1,-0,7.6917505)"
     vector-effect="non-scaling-stroke"
     id="path10"
     style="fill:none;stroke:#ff0000;stroke-opacity:1" /></svg>