<?xml version="1.0" encoding="UTF-8" standalone="no"?>
<!-- Generator: Fusion 360, Shaper Origin Export Add-In, Version 1.4.1  -->

<svg
   xmlns:shaper="http://www.shapertools.com/namespaces/shaper"
   xmlns:dc="http://purl.org/dc/elements/1.1/"
   xmlns:cc="http://creativecommons.org/ns#"
   xmlns:rdf="http://www.w3.org/1999/02/22-rdf-syntax-ns#"
   xmlns:svg="http://www.w3.org/2000/svg"
   xmlns="http://www.w3.org/2000/svg"
   xmlns:sodipodi="http://sodipodi.sourceforge.net/DTD/sodipodi-0.dtd"
   xmlns:inkscape="http://www.inkscape.org/namespaces/inkscape"
   enable-background="new 0 0 20.319441 7.3472552"
   height="7.3472552cm"
   shaper:fusionaddin="version:1.4.1"
   version="1.1"
   viewBox="0 0 20.319441 7.3472552"
   width="20.319441cm"
   x="0cm"
   xml:space="preserve"
   y="0cm"
   id="svg10"
   sodipodi:docname="layer7_4.svg"
   inkscape:version="0.92.2 (5c3e80d, 2017-08-06)"><metadata
     id="metadata16"><rdf:RDF><cc:Work
         rdf:about=""><dc:format>image/svg+xml</dc:format><dc:type
           rdf:resource="http://purl.org/dc/dcmitype/StillImage" /></cc:Work></rdf:RDF></metadata><defs
     id="defs14" /><sodipodi:namedview
     pagecolor="#ffffff"
     bordercolor="#666666"
     borderopacity="1"
     objecttolerance="10"
     gridtolerance="10"
     guidetolerance="10"
     inkscape:pageopacity="0"
     inkscape:pageshadow="2"
     inkscape:window-width="2560"
     inkscape:window-height="1537"
     id="namedview12"
     showgrid="false"
     inkscape:zoom="1.6354617"
     inkscape:cx="272.73643"
     inkscape:cy="162.05312"
     inkscape:window-x="1432"
     inkscape:window-y="757"
     inkscape:window-maximized="1"
     inkscape:current-layer="svg10" /><path
     d="M10.3381671,0.5 L9.3483308,0.5 A0.4713873,0.4713873 270 0,0 8.971298,1.2543223 A8.816641,8.816641 143.1145048 0,0 17.4810816,4.6576839 A13.5006074,13.5006074 260.4828553 0,1 18.9197961,4.4952038 L20.319441,4.9859529 A13.0006853,13.0006853 272.6712549 0,0 15.0724253,5.8284647 A5.6140258,5.6140258 249.0845433 0,0 14.1269614,6.2958519 A9.35932,9.35932 58.3047541 0,1 11.7254753,7.3472552 A12.205069,12.205069 110.6187634 0,1 9.4357528,6.1985088 A24.3836259,24.3836259 302.6667849 0,0 0.985937,2.8010787 A9.35932,9.35932 151.4807252 0,1 0,-0 L9.5472151,0 10.3381671,0.5z"
     fill="rgb(0,0,0)"
     shaper:cutDepth="0"
     shaper:pathType="exterior"
     transform="matrix(1,0,0,-1,-0,7.3472552)"
     vector-effect="non-scaling-stroke"
     id="path2"
     style="fill:none;stroke:#000000;stroke-opacity:1" /><path
     d="M7.498201,1.3425018 L7.498201,1.3425018 7.5977507,1.2892199 7.5799598,1.4636077 7.621978,1.4678944 7.6454927,1.2374013 7.6114895,1.2339323 7.6114895,1.2339323 7.5084331,1.2915192 7.5084331,1.2915192 7.3797846,1.3305438 7.3797846,1.3305438 7.2801943,1.3373168 7.2756103,1.3822496 7.2756103,1.3822496 7.378819,1.3760911 7.378819,1.3760911 7.498201,1.3425018z"
     fill="rgb(255,255,255)"
     shaper:cutDepth="0"
     shaper:pathType="interior"
     stroke="rgb(0,0,0)"
     stroke-width="2"
     transform="matrix(1,0,0,-1,-0,7.3472552)"
     vector-effect="non-scaling-stroke"
     id="path4"
     style="fill:none;stroke:#ff0000;stroke-opacity:1" /><path
     d="M7.3558286,1.0890726 L7.3060382,1.083993 7.3009586,1.1337834 7.350749,1.138863 7.3558286,1.0890726z"
     fill="rgb(255,255,255)"
     shaper:cutDepth="0"
     shaper:pathType="interior"
     stroke="rgb(0,0,0)"
     stroke-width="2"
     transform="matrix(1,0,0,-1,-0,7.3472552)"
     vector-effect="non-scaling-stroke"
     id="path6"
     style="fill:none;stroke:#ff0000;stroke-opacity:1" /><path
     d="M7.4165631,0.8449527 L7.3313122,0.8362554 7.3268521,0.8799738 7.412103,0.8886711 7.3963439,1.0431427 7.4364191,1.0472312 7.6837318,0.908284 7.6873742,0.8725806 7.4566383,0.8490411 7.4615444,0.8009509 7.4214692,0.7968624 7.4165631,0.8449527z"
     fill="rgb(255,255,255)"
     shaper:cutDepth="0"
     shaper:pathType="interior"
     stroke="rgb(0,0,0)"
     stroke-width="2"
     transform="matrix(1,0,0,-1,-0,7.3472552)"
     vector-effect="non-scaling-stroke"
     id="path8"
     style="fill:none;stroke:#ff0000;stroke-opacity:1" /></svg>