<?xml version="1.0" encoding="UTF-8" standalone="no"?>
<!-- Generator: Fusion 360, Shaper Origin Export Add-In, Version 1.4.1  -->

<svg
   xmlns:shaper="http://www.shapertools.com/namespaces/shaper"
   xmlns:dc="http://purl.org/dc/elements/1.1/"
   xmlns:cc="http://creativecommons.org/ns#"
   xmlns:rdf="http://www.w3.org/1999/02/22-rdf-syntax-ns#"
   xmlns:svg="http://www.w3.org/2000/svg"
   xmlns="http://www.w3.org/2000/svg"
   xmlns:sodipodi="http://sodipodi.sourceforge.net/DTD/sodipodi-0.dtd"
   xmlns:inkscape="http://www.inkscape.org/namespaces/inkscape"
   enable-background="new 0 0 21.6490757 3.5706967"
   height="3.5706967cm"
   shaper:fusionaddin="version:1.4.1"
   version="1.1"
   viewBox="0 0 21.6490757 3.5706967"
   width="21.6490757cm"
   x="0cm"
   xml:space="preserve"
   y="0cm"
   id="svg12"
   sodipodi:docname="layer2_6.svg"
   inkscape:version="0.92.2 (5c3e80d, 2017-08-06)"><metadata
     id="metadata18"><rdf:RDF><cc:Work
         rdf:about=""><dc:format>image/svg+xml</dc:format><dc:type
           rdf:resource="http://purl.org/dc/dcmitype/StillImage" /></cc:Work></rdf:RDF></metadata><defs
     id="defs16" /><sodipodi:namedview
     pagecolor="#ffffff"
     bordercolor="#666666"
     borderopacity="1"
     objecttolerance="10"
     gridtolerance="10"
     guidetolerance="10"
     inkscape:pageopacity="0"
     inkscape:pageshadow="2"
     inkscape:window-width="2560"
     inkscape:window-height="1537"
     id="namedview14"
     showgrid="false"
     inkscape:zoom="1.0854198"
     inkscape:cx="444.59466"
     inkscape:cy="-118.48578"
     inkscape:window-x="1432"
     inkscape:window-y="757"
     inkscape:window-maximized="1"
     inkscape:current-layer="svg12" /><path
     d="M4.6345245,0.1725682 A13.0006853,13.0006853 276.0592375 0,0 1.1417239,0.2740355 L0,0 A13.5006074,13.5006074 256.0179795 0,1 4.240427,-0.3644988 A9.0103785,9.0103785 274.1059727 0,1 5.824905,-0.1074047 A18.5628351,18.5628351 104.5246753 0,0 12.9014669,0.327308 A15.3941385,15.3941385 85.7848509 0,0 20.8227371,-2.5742113 L21.6490757,-2.5742113 A15.8941385,15.8941385 51.5701036 0,1 13.1465903,0.8092198 A19.0734518,19.0734518 81.9645924 0,1 5.4167074,0.3120387 A4.4822508,4.4822508 285.1948914 0,0 4.6345245,0.1725682z"
     fill="rgb(0,0,0)"
     shaper:cutDepth="0"
     shaper:pathType="exterior"
     transform="matrix(1,0,0,-1,-0,0.9964854)"
     vector-effect="non-scaling-stroke"
     id="path2"
     style="fill:none;stroke:#000000;stroke-opacity:1" /><path
     d="M9.4203292,0.6956483 L9.4203292,0.6956483 9.4704858,0.7178893 9.4704858,0.7178893 9.4860407,0.7440387 9.4902567,0.7742732 9.4902567,0.7742732 9.4798562,0.8175553 9.4798562,0.8175553 9.452331,0.8486959 9.452331,0.8486959 9.41577,0.8589236 9.41577,0.8589236 9.3683177,0.835631 9.3683177,0.835631 9.3531071,0.8067951 9.3493664,0.7742558 9.3493664,0.7742558 9.3701593,0.7161381 9.3701593,0.7161381 9.4203292,0.6956483z"
     fill="rgb(0,0,0)"
     shaper:cutDepth="0"
     shaper:pathType="exterior"
     transform="matrix(1,0,0,-1,-0,0.9964854)"
     vector-effect="non-scaling-stroke"
     id="path4"
     style="fill:none;stroke:#ff0000;stroke-opacity:1" /><path
     d="M9.4166358,0.5295429 L9.4166358,0.5295429 9.3796708,0.5342827 9.3470192,0.552013 9.3470192,0.552013 9.324215,0.5812475 9.3135336,0.6168681 9.3571684,0.6210483 9.3571684,0.6210483 9.3744236,0.5837461 9.3744236,0.5837461 9.4186903,0.5657171 9.4186903,0.5657171 9.4553454,0.5780774 9.4553454,0.5780774 9.4872841,0.6228311 9.4872841,0.6228311 9.4982889,0.7057995 9.4982889,0.7057995 9.4601028,0.6692388 9.4601028,0.6692388 9.412219,0.6566824 9.412219,0.6566824 9.3712168,0.6641354 9.3368367,0.6877202 9.3368367,0.6877202 9.3124092,0.725966 9.3044983,0.7707866 9.3044983,0.7707866 9.3179295,0.8336527 9.3179295,0.8336527 9.3570671,0.8786541 9.3570671,0.8786541 9.4144071,0.8950382 9.4144071,0.8950382 9.4640355,0.8859838 9.5046982,0.8562028 9.5046982,0.8562028 9.5345078,0.7933997 9.5416852,0.7236494 9.5416852,0.7236494 9.536347,0.6446247 9.5059941,0.5721245 9.5059941,0.5721245 9.4664135,0.5402617 9.4166358,0.5295429z"
     fill="rgb(255,255,255)"
     shaper:cutDepth="0"
     shaper:pathType="interior"
     stroke="rgb(0,0,0)"
     stroke-width="2"
     transform="matrix(1,0,0,-1,-0,0.9964854)"
     vector-effect="non-scaling-stroke"
     id="path6"
     style="fill:none;stroke:#ff0000;stroke-opacity:1" /><path
     d="M9.6018821,0.8421497 L9.6010086,0.8921909 9.6510498,0.8930643 9.6519233,0.8430231 9.6018821,0.8421497z"
     fill="rgb(255,255,255)"
     shaper:cutDepth="0"
     shaper:pathType="interior"
     stroke="rgb(0,0,0)"
     stroke-width="2"
     transform="matrix(1,0,0,-1,-0,0.9964854)"
     vector-effect="non-scaling-stroke"
     id="path8"
     style="fill:none;stroke:#ff0000;stroke-opacity:1" /><path
     d="M9.8809273,0.8310268 L9.8809273,0.8310268 9.8990637,0.8551507 9.7235534,0.8520871 9.7228162,0.894317 9.9593525,0.8984458 9.9593525,0.8984458 9.9547589,0.8678434 9.9547589,0.8678434 9.9266635,0.8197383 9.9266635,0.8197383 9.8701231,0.7645439 9.8701231,0.7645439 9.7926006,0.6873735 9.7926006,0.6873735 9.7730184,0.6341672 9.7730184,0.6341672 9.7924614,0.5904325 9.7924614,0.5904325 9.8414732,0.5733409 9.8414732,0.5733409 9.8919144,0.5932673 9.8919144,0.5932673 9.9102782,0.6463302 9.9555183,0.6424805 9.9555183,0.6424805 9.9463476,0.6002623 9.9219558,0.5648566 9.9219558,0.5648566 9.8842195,0.5434479 9.8411317,0.5369525 9.8411317,0.5369525 9.7973408,0.542453 9.7591026,0.5640895 9.7591026,0.5640895 9.7359421,0.5958619 9.7278422,0.6343554 9.7278422,0.6343554 9.7358928,0.6767387 9.7358928,0.6767387 9.7643005,0.7209424 9.7643005,0.7209424 9.8309399,0.7851034 9.8309399,0.7851034 9.8809273,0.8310268z"
     fill="rgb(255,255,255)"
     shaper:cutDepth="0"
     shaper:pathType="interior"
     stroke="rgb(0,0,0)"
     stroke-width="2"
     transform="matrix(1,0,0,-1,-0,0.9964854)"
     vector-effect="non-scaling-stroke"
     id="path10"
     style="fill:none;stroke:#ff0000;stroke-opacity:1" /></svg>