<?xml version="1.0" encoding="UTF-8" standalone="no"?>
<!-- Generator: Fusion 360, Shaper Origin Export Add-In, Version 1.4.1  -->

<svg
   xmlns:shaper="http://www.shapertools.com/namespaces/shaper"
   xmlns:dc="http://purl.org/dc/elements/1.1/"
   xmlns:cc="http://creativecommons.org/ns#"
   xmlns:rdf="http://www.w3.org/1999/02/22-rdf-syntax-ns#"
   xmlns:svg="http://www.w3.org/2000/svg"
   xmlns="http://www.w3.org/2000/svg"
   xmlns:sodipodi="http://sodipodi.sourceforge.net/DTD/sodipodi-0.dtd"
   xmlns:inkscape="http://www.inkscape.org/namespaces/inkscape"
   enable-background="new 0 0 38.9123901 8.5042204"
   height="8.5042204cm"
   shaper:fusionaddin="version:1.4.1"
   version="1.1"
   viewBox="0 0 38.9123901 8.5042204"
   width="38.9123901cm"
   x="0cm"
   xml:space="preserve"
   y="0cm"
   id="svg10"
   sodipodi:docname="Top1.svg"
   inkscape:version="0.92.2 (5c3e80d, 2017-08-06)"><metadata
     id="metadata16"><rdf:RDF><cc:Work
         rdf:about=""><dc:format>image/svg+xml</dc:format><dc:type
           rdf:resource="http://purl.org/dc/dcmitype/StillImage" /></cc:Work></rdf:RDF></metadata><defs
     id="defs14" /><sodipodi:namedview
     pagecolor="#ffffff"
     bordercolor="#666666"
     borderopacity="1"
     objecttolerance="10"
     gridtolerance="10"
     guidetolerance="10"
     inkscape:pageopacity="0"
     inkscape:pageshadow="2"
     inkscape:window-width="2560"
     inkscape:window-height="1537"
     id="namedview12"
     showgrid="false"
     inkscape:zoom="0.85401244"
     inkscape:cx="530.11273"
     inkscape:cy="174.54931"
     inkscape:window-x="1432"
     inkscape:window-y="757"
     inkscape:window-maximized="1"
     inkscape:current-layer="svg10" /><path
     d="M-5.4814672,3.5314012 A1.1,1.1 127.4208743 0,1 -4.6230832,1.5743135 A5.0769293,5.0769293 99.9438998 0,0 -0,-0 L32.9993547,0 A11.022979,11.022979 12.2721704 0,1 31.3932215,3.7815095 A11.2044568,11.2044568 35.3449069 0,1 17.3984722,7.3975095 A9.3418583,9.3418583 308.8917537 0,0 7.6807191,6.1580748 A15.2350318,15.2350318 75.1507372 0,1 -5.4814672,3.5314012z"
     fill="rgb(0,0,0)"
     shaper:cutDepth="0"
     shaper:pathType="exterior"
     transform="matrix(1,0,0,-1,5.9130354,8.5042204)"
     vector-effect="non-scaling-stroke"
     id="path2"
     style="fill:none;stroke:#000000;stroke-opacity:1" /><path
     d="M0.6349432,0.4889001 L0.6212085,4.9888792 29.6708474,5.0775437 29.6845821,0.5775647 0.6349432,0.4889001z"
     fill="rgb(255,255,255)"
     shaper:cutDepth="0"
     shaper:pathType="interior"
     stroke="rgb(0,0,0)"
     stroke-width="2"
     transform="matrix(1,0,0,-1,5.9130354,8.5042204)"
     vector-effect="non-scaling-stroke"
     id="path4"
     style="fill:none;stroke:#00ff00;stroke-opacity:1" /><path
     d="M-5.0630354,2.6577886 a0.25,0.25 0 1,1 0.5,0 a0.25,0.25 0 1,1 -0.5,0z"
     fill="rgb(255,255,255)"
     shaper:cutDepth="0"
     shaper:pathType="interior"
     stroke="rgb(0,0,0)"
     stroke-width="2"
     transform="matrix(1,0,0,-1,5.9130354,8.5042204)"
     vector-effect="non-scaling-stroke"
     id="path6"
     style="fill:none;stroke:#000000;stroke-opacity:1" /><path
     d="M31.2818437,1.024495 a0.25,0.25 0 1,1 0.5,0 a0.25,0.25 0 1,1 -0.5,0z"
     fill="rgb(255,255,255)"
     shaper:cutDepth="0"
     shaper:pathType="interior"
     stroke="rgb(0,0,0)"
     stroke-width="2"
     transform="matrix(1,0,0,-1,5.9130354,8.5042204)"
     vector-effect="non-scaling-stroke"
     id="path8"
     style="fill:none;stroke:#000000;stroke-opacity:1" /></svg>