<?xml version="1.0" encoding="UTF-8" standalone="no"?>
<!-- Generator: Fusion 360, Shaper Origin Export Add-In, Version 1.4.1  -->

<svg
   xmlns:shaper="http://www.shapertools.com/namespaces/shaper"
   xmlns:dc="http://purl.org/dc/elements/1.1/"
   xmlns:cc="http://creativecommons.org/ns#"
   xmlns:rdf="http://www.w3.org/1999/02/22-rdf-syntax-ns#"
   xmlns:svg="http://www.w3.org/2000/svg"
   xmlns="http://www.w3.org/2000/svg"
   xmlns:sodipodi="http://sodipodi.sourceforge.net/DTD/sodipodi-0.dtd"
   xmlns:inkscape="http://www.inkscape.org/namespaces/inkscape"
   enable-background="new 0 0 32.68292 6.1513419"
   height="6.1513419cm"
   shaper:fusionaddin="version:1.4.1"
   version="1.1"
   viewBox="0 0 32.68292 6.1513419"
   width="32.68292cm"
   x="0cm"
   xml:space="preserve"
   y="0cm"
   id="svg8"
   sodipodi:docname="Top2.svg"
   inkscape:version="0.92.2 (5c3e80d, 2017-08-06)"><metadata
     id="metadata14"><rdf:RDF><cc:Work
         rdf:about=""><dc:format>image/svg+xml</dc:format><dc:type
           rdf:resource="http://purl.org/dc/dcmitype/StillImage" /></cc:Work></rdf:RDF></metadata><defs
     id="defs12" /><sodipodi:namedview
     pagecolor="#ffffff"
     bordercolor="#666666"
     borderopacity="1"
     objecttolerance="10"
     gridtolerance="10"
     guidetolerance="10"
     inkscape:pageopacity="0"
     inkscape:pageshadow="2"
     inkscape:window-width="2560"
     inkscape:window-height="1537"
     id="namedview10"
     showgrid="false"
     inkscape:zoom="1.0167901"
     inkscape:cx="431.74995"
     inkscape:cy="133.32756"
     inkscape:window-x="1432"
     inkscape:window-y="757"
     inkscape:window-maximized="1"
     inkscape:current-layer="svg8" /><path
     d="M30.5752318,0.6850657 A1.1,1.1 252.1980237 0,1 31.6118666,2.5806491 A15.5941385,15.5941385 50.4562551 0,1 21.2511884,6.1435475 A18.7628351,18.7628351 88.3484365 0,1 14.185958,4.9804189 A8.8103785,8.8103785 290.149667 0,0 12.6703998,4.5731893 A13.3006074,13.3006074 279.9816094 0,0 8.1656833,4.5549539 A9.016641,9.016641 80.4828058 0,1 -0.5370001,1.0743658 A0.6713873,0.6713873 143.1145048 0,1 -0,0 L24.070961,0 A8.0988357,8.0988357 119.8270565 0,0 30.5752318,0.6850657z"
     fill="rgb(0,0,0)"
     shaper:cutDepth="0"
     shaper:pathType="exterior"
     transform="matrix(1,0,0,-1,0.6713873,6.1513419)"
     vector-effect="non-scaling-stroke"
     id="path2"
     style="fill:none;stroke:#000000;stroke-opacity:1" /><path
     d="M13.5950049,0.8 a0.25,0.25 0 1,1 0.5,0 a0.25,0.25 0 1,1 -0.5,0z"
     fill="rgb(255,255,255)"
     shaper:cutDepth="0"
     shaper:pathType="interior"
     stroke="rgb(0,0,0)"
     stroke-width="2"
     transform="matrix(1,0,0,-1,0.6713873,6.1513419)"
     vector-effect="non-scaling-stroke"
     id="path4"
     style="fill:none;stroke:#000000;stroke-opacity:1" /><path
     d="M30.6615328,1.7323965 a0.25,0.25 0 1,1 0.5,0 a0.25,0.25 0 1,1 -0.5,0z"
     fill="rgb(255,255,255)"
     shaper:cutDepth="0"
     shaper:pathType="interior"
     stroke="rgb(0,0,0)"
     stroke-width="2"
     transform="matrix(1,0,0,-1,0.6713873,6.1513419)"
     vector-effect="non-scaling-stroke"
     id="path6"
     style="fill:none;stroke:#000000;stroke-opacity:1" /></svg>